<?xml version="1.0" encoding="utf-8"?>
<!-- Generator: Adobe Illustrator 19.2.1, SVG Export Plug-In . SVG Version: 6.00 Build 0)  -->
<svg version="1.1" id="Layer_1" xmlns="http://www.w3.org/2000/svg" xmlns:xlink="http://www.w3.org/1999/xlink" x="0px" y="0px"
	 viewBox="0 0 117.3 116.7" style="enable-background:new 0 0 117.3 116.7;" xml:space="preserve">
<style type="text/css">
	.st0{fill:#282828;}
	.st1{fill:#C6724B;}
	.st2{fill:#897937;}
	.st3{fill:url(#SVGID_1_);}
	.st4{fill:#1E1D1D;}
	.st5{fill:#141414;}
	.st6{fill:#F21C1C;}
	.st7{fill:#CEC4C4;}
	.st8{fill:#A09D9D;}
	.st9{fill:#C11B1B;}
	.st10{fill:#36492A;}
	.st11{fill:#2C3A22;}
	.st12{fill:#938135;}
	.st13{fill:#7F6D20;}
	.st14{fill:#AA953D;}
	.st15{fill:#BCAC68;}
	.st16{fill:#C6AF4B;}
	.st17{fill:#514512;}
	.st18{clip-path:url(#SVGID_3_);fill:url(#SVGID_4_);}
	.st19{fill:#ED2B2B;}
	.st20{fill:#CE2929;}
	.st21{fill:#647532;}
	.st22{fill:#CDEAB0;}
	.st23{fill:#7B933B;}
	.st24{fill:#A0C64B;}
	.st25{fill:#C9C3A9;}
	.st26{fill:#AD9945;}
	.st27{fill:#D6C47C;}
	.st28{fill:#FFFFFF;}
	.st29{fill:#D8D8CB;}
	.st30{fill:#A31717;}
	.st31{fill:#C15B5B;}
	.st32{fill:#4BC6AF;}
	.st33{fill:#493E12;}
	.st34{fill:#2F3F25;}
	.st35{fill:#28331F;}
</style>
<g>
	<circle class="st2" cx="60.4" cy="59.6" r="50.4"/>
	<linearGradient id="SVGID_1_" gradientUnits="userSpaceOnUse" x1="94.2697" y1="97.1121" x2="59.8942" y2="62.7366">
		<stop  offset="0" style="stop-color:#000000;stop-opacity:0"/>
		<stop  offset="0.3187" style="stop-color:#2C2618;stop-opacity:0.1848"/>
		<stop  offset="0.5172" style="stop-color:#423A25;stop-opacity:0.3"/>
		<stop  offset="0.595" style="stop-color:#534928;stop-opacity:0.4128"/>
		<stop  offset="0.7" style="stop-color:#62572A;stop-opacity:0.5649"/>
		<stop  offset="0.822" style="stop-color:#6B5F2C;stop-opacity:0.7419"/>
		<stop  offset="1" style="stop-color:#6E612C"/>
	</linearGradient>
	<path class="st3" d="M73,46.5L53.7,70.3l11,39.7c0,0,33.7,0,45-39.9L73,46.5"/>
	<g>
		<polygon class="st4" points="80.8,51.9 88.5,24.9 59.7,45.4 30.9,24.9 38.6,51.9 25.3,66.4 42.5,81.4 47.1,82.7 54.6,95.2 
			59.7,96.9 59.7,96.9 59.7,96.9 59.7,96.9 59.7,96.9 64.7,95.2 72.2,82.7 76.9,81.4 94.1,66.4 		"/>
		<polygon class="st5" points="81.1,55.6 67.4,49.7 59.7,53.2 52,49.7 38.3,55.6 29.4,65.4 36.4,63.5 45.1,67.3 56.4,67.3 
			57.2,83.2 59.7,91.2 59.7,91.2 59.7,91.2 59.7,91.2 59.7,91.2 62.2,83.2 63,67.3 74.2,67.3 83,63.5 90,65.4 		"/>
		<polygon class="st6" points="42.5,60.4 47.7,60.4 52,63.8 47,64.9 		"/>
		<polygon class="st7" points="25.3,66.4 53.7,70.3 54.6,95.2 47.1,82.7 42.5,81.4 		"/>
		<path class="st7" d="M41.8,59.6l6-1l7.5,6.3l1.1-1.8c0,0-5.5-7.6-8.6-7.6S41.8,59.6,41.8,59.6z"/>
		<polygon class="st7" points="39.9,51.3 48.4,44.9 32.3,27.4 		"/>
		<polygon class="st5" points="42.4,49.7 45.1,47.4 36.9,35.7 		"/>
		<polygon class="st8" points="25.3,66.4 42.5,75.1 47.2,76.3 54.6,95.2 47.1,82.7 42.5,81.4 		"/>
		<polygon class="st9" points="42.5,60.4 47.2,62.7 52,63.8 47.7,60.4 		"/>
		<polygon class="st8" points="41.8,59.6 47.2,57.1 55.3,64.9 47.7,58.6 		"/>
		<polygon class="st8" points="46.4,46.5 32.3,27.4 48.4,44.9 		"/>
		<polygon class="st6" points="76.9,60.4 71.7,60.4 67.4,63.8 72.4,64.9 		"/>
		<polygon class="st7" points="94.1,66.4 65.7,70.3 64.7,95.2 72.2,82.7 76.9,81.4 		"/>
		<polygon points="64.7,89.6 59.7,93.3 54.6,89.6 54.6,95.2 59.7,96.9 59.7,96.9 59.7,96.9 59.7,96.9 59.7,96.9 64.7,95.2 		"/>
		<path class="st7" d="M77.6,59.6l-6-1l-7.5,6.3L63,63.2c0,0,5.5-7.6,8.6-7.6C74.7,55.6,77.6,59.6,77.6,59.6z"/>
		<polygon class="st7" points="79.4,51.3 71,44.9 87.1,27.4 		"/>
		<polygon class="st5" points="76.9,49.7 74.2,47.4 82.5,35.7 		"/>
		<polygon class="st8" points="94.1,66.4 76.9,75.1 72.2,76.3 64.7,95.2 72.2,82.7 76.9,81.4 		"/>
		<polygon class="st9" points="76.9,60.4 72.2,62.7 67.4,63.8 71.7,60.4 		"/>
		<polygon class="st8" points="77.6,59.6 72.2,57.1 64.1,64.9 71.6,58.6 		"/>
		<polygon class="st8" points="73,46.5 87.1,27.4 71,44.9 		"/>
	</g>
</g>
</svg>
