<?xml version="1.0" encoding="utf-8"?>
<!-- Generator: Adobe Illustrator 19.2.1, SVG Export Plug-In . SVG Version: 6.00 Build 0)  -->
<svg version="1.1" id="Layer_1" xmlns="http://www.w3.org/2000/svg" xmlns:xlink="http://www.w3.org/1999/xlink" x="0px" y="0px"
	 viewBox="0 0 28 28.1" style="enable-background:new 0 0 28 28.1;" xml:space="preserve">
<style type="text/css">
	.st0{fill:#28331F;}
	.st1{fill:#282828;}
	.st2{fill:#C6724B;}
	.st3{fill:#897937;}
	.st4{fill:url(#SVGID_1_);}
	.st5{fill:#1E1D1D;}
	.st6{fill:#141414;}
	.st7{fill:#F21C1C;}
	.st8{fill:#CEC4C4;}
	.st9{fill:#A09D9D;}
	.st10{fill:#C11B1B;}
	.st11{fill:#36492A;}
	.st12{fill:#2C3A22;}
	.st13{fill:#938135;}
	.st14{fill:#7F6D20;}
	.st15{fill:#AA953D;}
	.st16{fill:#BCAC68;}
	.st17{fill:#C6AF4B;}
	.st18{fill:#514512;}
	.st19{clip-path:url(#SVGID_3_);fill:url(#SVGID_4_);}
	.st20{fill:#ED2B2B;}
	.st21{fill:#CE2929;}
	.st22{fill:#647532;}
	.st23{fill:#CDEAB0;}
	.st24{fill:#7B933B;}
	.st25{fill:#A0C64B;}
	.st26{fill:#C9C3A9;}
	.st27{fill:#AD9945;}
	.st28{fill:#D6C47C;}
	.st29{fill:#7F7136;}
	.st30{fill:#FFFFFF;}
	.st31{fill:#D8D8CB;}
	.st32{fill:#A31717;}
	.st33{fill:#C15B5B;}
	.st34{fill:#4BC6AF;}
	.st35{fill:#493E12;}
	.st36{fill:#2F3F25;}
	.st37{fill:url(#SVGID_5_);}
	.st38{fill:#AF6146;}
	.st39{fill:#93493B;}
	.st40{fill:url(#SVGID_6_);}
	.st41{fill:#565555;}
	.st42{fill:#4C4C4C;}
	.st43{fill:url(#SVGID_7_);}
	.st44{fill:#565454;}
	.st45{opacity:0.92;fill:#DDC04A;enable-background:new    ;}
	.st46{fill:#B7B2B2;}
</style>
<g>
	<g>
		<path class="st12" d="M23.9,24c-5.5,5.5-14.3,5.5-19.8,0s-5.5-14.3,0-19.8L23.9,24z"/>
		<path class="st11" d="M4.2,4.2c5.5-5.5,14.3-5.5,19.8,0s5.5,14.3,0,19.8L4.2,4.2z"/>
	</g>
	<path class="st12" d="M23.9,4.2c5.5,5.5,5.5,14.3,0,19.8S9.6,29.5,4.1,24L23.9,4.2z"/>
	<path class="st11" d="M4.1,23.9c-5.5-5.5-5.5-14.3,0-19.8s14.3-5.5,19.8,0L4.1,23.9z"/>
</g>
<g>
	<path class="st1" d="M28,11.1c-1.8-0.1-5.6-5.9-5.6-5.9l-1.9,1.5h-0.1L0.7,21.6C0.1,22,0,22.8,0.4,23.4l0,0
		c0.4,0.6,1.2,0.7,1.8,0.3l17.7-13.3h0.5c2.2-0.1,3.4,4,3.4,4L28,11.1z"/>
	<path class="st1" d="M20,10.4c0,0,1.5-0.7,2.4,0.3s1.5,3.7,1.5,3.7S22.7,10.3,20,10.4z"/>
	<polygon class="st1" points="26.2,12.6 25.5,11.5 26.6,12.2 	"/>
	<path class="st1" d="M1.2,23L19.3,9.6C19.3,9.6,5.8,18.5,1.2,23z"/>
	<path class="st1" d="M6.7,19.5l6.3-4.8C13,14.8,9.9,17.7,6.7,19.5z"/>
</g>
<g>
	<path class="st17" d="M28,10.5c-1.8-0.1-5.6-5.9-5.6-5.9l-1.9,1.5h-0.1l-19.8,15c-0.6,0.4-0.7,1.2-0.3,1.8l0,0
		c0.4,0.6,1.2,0.7,1.8,0.3L19.8,9.9h0.5c2.2-0.1,3.4,4,3.4,4L28,10.5z"/>
	<path class="st3" d="M19.9,9.8c0,0,1.5-0.7,2.4,0.3c0.9,0.9,1.5,3.7,1.5,3.7S22.6,9.8,19.9,9.8z"/>
	<polygon class="st3" points="26.1,12 25.4,10.9 26.5,11.7 	"/>
	<path class="st3" d="M1.2,22.5L19.3,9.1C19.2,9.1,5.7,17.9,1.2,22.5z"/>
	<path class="st29" d="M6.6,19l6.3-4.8C12.9,14.2,9.8,17.1,6.6,19z"/>
</g>
</svg>
