<?xml version="1.0" encoding="utf-8"?>
<!-- Generator: Adobe Illustrator 19.2.1, SVG Export Plug-In . SVG Version: 6.00 Build 0)  -->
<svg version="1.1" id="Layer_1" xmlns="http://www.w3.org/2000/svg" xmlns:xlink="http://www.w3.org/1999/xlink" x="0px" y="0px"
	 viewBox="0 0 28 28" style="enable-background:new 0 0 28 28;" xml:space="preserve">
<style type="text/css">
	.st0{fill:#28331F;}
	.st1{fill:#282828;}
	.st2{fill:#C6724B;}
	.st3{fill:#897937;}
	.st4{fill:url(#SVGID_1_);}
	.st5{fill:#1E1D1D;}
	.st6{fill:#141414;}
	.st7{fill:#F21C1C;}
	.st8{fill:#CEC4C4;}
	.st9{fill:#A09D9D;}
	.st10{fill:#C11B1B;}
	.st11{fill:#36492A;}
	.st12{fill:#2C3A22;}
	.st13{fill:#938135;}
	.st14{fill:#7F6D20;}
	.st15{fill:#AA953D;}
	.st16{fill:#BCAC68;}
	.st17{fill:#C6AF4B;}
	.st18{fill:#514512;}
	.st19{clip-path:url(#SVGID_3_);fill:url(#SVGID_4_);}
	.st20{fill:#ED2B2B;}
	.st21{fill:#CE2929;}
	.st22{fill:#647532;}
	.st23{fill:#CDEAB0;}
	.st24{fill:#7B933B;}
	.st25{fill:#A0C64B;}
	.st26{fill:#C9C3A9;}
	.st27{fill:#AD9945;}
	.st28{fill:#D6C47C;}
	.st29{fill:#7F7136;}
	.st30{fill:#FFFFFF;}
	.st31{fill:#D8D8CB;}
	.st32{fill:#A31717;}
	.st33{fill:#C15B5B;}
	.st34{fill:#4BC6AF;}
	.st35{fill:#493E12;}
	.st36{fill:#2F3F25;}
	.st37{fill:url(#SVGID_5_);}
	.st38{fill:#AF6146;}
	.st39{fill:#93493B;}
	.st40{fill:url(#SVGID_6_);}
	.st41{fill:#565555;}
	.st42{fill:#4C4C4C;}
	.st43{fill:url(#SVGID_7_);}
	.st44{fill:#565454;}
	.st45{opacity:0.92;fill:#DDC04A;enable-background:new    ;}
	.st46{fill:#B7B2B2;}
</style>
<g>
	<path class="st12" d="M23.9,4.1c5.5,5.5,5.5,14.3,0,19.8s-14.3,5.5-19.8,0L23.9,4.1z"/>
	<path class="st11" d="M4.1,23.9c-5.5-5.5-5.5-14.3,0-19.8s14.3-5.5,19.8,0L4.1,23.9z"/>
	<g>
		<path class="st1" d="M6.6,8.9c-0.1,0.6,0,1.5,1.4,2.2l13.1-3.4l-2.2-2.8L7.9,8C7.2,8.2,6.7,8.2,6.6,8.9z"/>
		<path class="st1" d="M9.9,10.9L21,7.8l-1.7-2.2L6.8,9.5C6.9,9.4,7.6,10.9,9.9,10.9z"/>
		<polygon class="st1" points="8.1,22.7 9.4,23.7 22.1,20.2 21.3,7.4 8.1,11.2 		"/>
		<path class="st1" d="M9.9,10.7l0.5,12.8c0,0-2.1,1-3.4-1.3L6.5,8.9l0,0c0.7,0.9,1,1.4,2.1,1.8l1-0.1"/>
	</g>
	<g>
		<path class="st27" d="M6.3,8.5c-0.1,0.6,0,1.5,1.4,2.2l13.1-3.4l-2.2-2.8l-11,3.1C6.9,7.8,6.4,7.9,6.3,8.5z"/>
		<path class="st28" d="M9.6,10.5l11.1-3.1L19,5.2L6.5,9.1C6.6,9.1,7.3,10.6,9.6,10.5z"/>
		<polygon class="st3" points="7.9,22.3 9.1,23.3 21.8,19.8 21,7 7.9,10.8 		"/>
		<path class="st17" d="M9.6,10.3l0.5,12.8c0,0-2.1,1-3.4-1.3L6.2,8.5l0,0c0.7,0.9,1,1.4,2.1,1.8l1-0.1"/>
	</g>
</g>
</svg>
