<?xml version="1.0" encoding="utf-8"?>
<!-- Generator: Adobe Illustrator 19.2.1, SVG Export Plug-In . SVG Version: 6.00 Build 0)  -->
<svg version="1.1" id="Layer_1" xmlns="http://www.w3.org/2000/svg" xmlns:xlink="http://www.w3.org/1999/xlink" x="0px" y="0px"
	 viewBox="0 0 28 28.1" style="enable-background:new 0 0 28 28.1;" xml:space="preserve">
<style type="text/css">
	.st0{fill:#28331F;}
	.st1{fill:#282828;}
	.st2{fill:#C6724B;}
	.st3{fill:#897937;}
	.st4{fill:url(#SVGID_1_);}
	.st5{fill:#1E1D1D;}
	.st6{fill:#141414;}
	.st7{fill:#F21C1C;}
	.st8{fill:#CEC4C4;}
	.st9{fill:#A09D9D;}
	.st10{fill:#C11B1B;}
	.st11{fill:#36492A;}
	.st12{fill:#2C3A22;}
	.st13{fill:#938135;}
	.st14{fill:#7F6D20;}
	.st15{fill:#AA953D;}
	.st16{fill:#BCAC68;}
	.st17{fill:#C6AF4B;}
	.st18{fill:#514512;}
	.st19{clip-path:url(#SVGID_3_);fill:url(#SVGID_4_);}
	.st20{fill:#ED2B2B;}
	.st21{fill:#CE2929;}
	.st22{fill:#647532;}
	.st23{fill:#CDEAB0;}
	.st24{fill:#7B933B;}
	.st25{fill:#A0C64B;}
	.st26{fill:#C9C3A9;}
	.st27{fill:#AD9945;}
	.st28{fill:#D6C47C;}
	.st29{fill:#7F7136;}
	.st30{fill:#FFFFFF;}
	.st31{fill:#D8D8CB;}
	.st32{fill:#A31717;}
	.st33{fill:#C15B5B;}
	.st34{fill:#4BC6AF;}
	.st35{fill:#493E12;}
	.st36{fill:#2F3F25;}
	.st37{fill:url(#SVGID_5_);}
	.st38{fill:#AF6146;}
	.st39{fill:#93493B;}
	.st40{fill:url(#SVGID_6_);}
	.st41{fill:#565555;}
	.st42{fill:#4C4C4C;}
	.st43{fill:url(#SVGID_7_);}
	.st44{fill:#565454;}
	.st45{opacity:0.92;fill:#DDC04A;enable-background:new    ;}
	.st46{fill:#B7B2B2;}
</style>
<polygon class="st0" points="400.8,275.7 394.7,268.2 399.4,268.2 393.1,260.5 397.3,260.5 388.9,250.2 388.9,255.3 388.9,260.5 
	388.9,261.1 388.9,268.2 388.9,275 388.9,275 388.9,275 388.9,268.2 388.9,261.1 388.9,260.5 388.9,255.3 388.9,250.2 380.5,260.5 
	384.7,260.5 378.5,268.2 383.1,268.2 377,275.7 386.3,275.7 386.3,288.5 388.7,288.5 389.1,288.5 391.5,288.5 391.5,275.7 "/>
<g>
	<polygon class="st1" points="387.7,273 387.7,288.2 390.6,288.2 390.6,274.8 	"/>
	<polygon class="st1" points="381.9,260.1 387.4,258.6 386.2,260.1 	"/>
	<polygon class="st1" points="393,273 393,288.2 390.2,288.2 390.2,274.8 	"/>
	<polygon class="st1" points="379.9,267.8 386.6,265.8 384.6,267.8 	"/>
	<g>
		<polygon class="st1" points="386.2,260.1 379.9,267.8 384.6,267.8 378.4,275.4 390.4,275.4 390.4,267.8 390.4,260.7 390.4,260.1 
			390.4,254.9 390.4,249.7 381.9,260.1 		"/>
		<polygon class="st1" points="396.2,267.8 400.9,267.8 394.6,260.1 398.8,260.1 390.4,249.7 390.4,254.9 390.4,260.1 390.4,260.7 
			390.4,267.8 390.4,275.4 402.4,275.4 		"/>
	</g>
	<polygon class="st1" points="398.9,260.1 393.4,258.6 394.6,260.1 	"/>
	<polygon class="st1" points="400.9,267.8 394.2,265.8 396.2,267.8 	"/>
</g>
<g>
	<polygon class="st1" points="407,270.7 407,289.5 410.5,289.5 410.5,273 	"/>
	<polygon class="st1" points="399.9,254.8 406.6,253 405.1,254.8 	"/>
	<polygon class="st1" points="413.5,270.7 413.5,289.5 410,289.5 410,273 	"/>
	<polygon class="st1" points="397.3,264.3 405.6,261.8 403.1,264.3 	"/>
	<g>
		<polygon class="st1" points="405.1,254.8 397.3,264.3 403.1,264.3 395.5,273.6 410.3,273.6 410.3,264.3 410.3,255.5 410.3,254.8 
			410.3,248.4 410.3,242 399.9,254.8 		"/>
		<polygon class="st1" points="417.4,264.3 423.3,264.3 415.5,254.8 420.7,254.8 410.3,242 410.3,248.4 410.3,254.8 410.3,255.5 
			410.3,264.3 410.3,273.6 425,273.6 		"/>
	</g>
	<polygon class="st1" points="420.7,254.8 414,253 415.5,254.8 	"/>
	<polygon class="st1" points="423.3,264.3 415,261.8 417.4,264.3 	"/>
	<g>
		<polygon class="st1" points="405.1,254.8 397.3,264.3 403.1,264.3 395.5,273.6 410.3,273.6 410.3,264.3 410.3,255.5 410.3,254.8 
			410.3,248.4 410.3,242 399.9,254.8 		"/>
		<polygon class="st1" points="417.4,264.3 423.3,264.3 415.5,254.8 420.7,254.8 410.3,242 410.3,248.4 410.3,254.8 410.3,255.5 
			410.3,264.3 410.3,273.6 425,273.6 		"/>
	</g>
</g>
<rect x="-315.5" y="211.7" class="st2" width="571.5" height="426"/>
<g>
	<circle class="st3" cx="570" cy="280.9" r="50.4"/>
	
		<linearGradient id="SVGID_1_" gradientUnits="userSpaceOnUse" x1="604.0159" y1="1624.366" x2="569.6404" y2="1589.9904" gradientTransform="matrix(1 0 0 1 0 -1306)">
		<stop  offset="0" style="stop-color:#000000;stop-opacity:0"/>
		<stop  offset="0.3187" style="stop-color:#2C2618;stop-opacity:0.1848"/>
		<stop  offset="0.5172" style="stop-color:#423A25;stop-opacity:0.3"/>
		<stop  offset="0.595" style="stop-color:#534928;stop-opacity:0.4128"/>
		<stop  offset="0.7" style="stop-color:#62572A;stop-opacity:0.5649"/>
		<stop  offset="0.822" style="stop-color:#6B5F2C;stop-opacity:0.7419"/>
		<stop  offset="1" style="stop-color:#6E612C"/>
	</linearGradient>
	<path class="st4" d="M582.7,267.7l-19.3,23.8l11,39.7c0,0,33.7,0,45-39.9L582.7,267.7"/>
	<g>
		<polygon class="st5" points="590.5,273.2 598.2,246.2 569.4,266.7 540.6,246.2 548.3,273.2 534.9,287.7 552.2,302.7 556.8,304 
			564.3,316.5 569.4,318.2 569.4,318.2 569.4,318.2 569.4,318.2 569.4,318.2 574.4,316.5 581.9,304 586.6,302.7 603.8,287.7 		"/>
		<polygon class="st6" points="590.8,276.8 577.1,271 569.4,274.4 561.7,271 547.9,276.8 539.1,286.7 546.1,284.7 554.8,288.6 
			566,288.6 566.8,304.5 569.4,312.4 569.4,312.5 569.4,312.5 569.4,312.5 569.4,312.4 571.9,304.5 572.7,288.6 583.9,288.6 
			592.7,284.7 599.7,286.7 		"/>
		<polygon class="st7" points="552.2,281.7 557.4,281.7 561.7,285.1 556.7,286.2 		"/>
		<polygon class="st8" points="534.9,287.7 563.4,291.5 564.3,316.5 556.8,304 552.2,302.7 		"/>
		<path class="st8" d="M551.4,280.8l6-1l7.5,6.3l1.1-1.8c0,0-5.5-7.6-8.6-7.6C554.3,276.8,551.4,280.8,551.4,280.8z"/>
		<polygon class="st8" points="549.6,272.6 558.1,266.2 541.9,248.7 		"/>
		<polygon class="st6" points="552.1,271 554.8,268.7 546.6,257 		"/>
		<polygon class="st9" points="534.9,287.7 552.2,296.4 556.9,297.5 564.3,316.5 556.8,304 552.2,302.7 		"/>
		<polygon class="st10" points="552.2,281.7 556.9,284 561.7,285.1 557.4,281.7 		"/>
		<polygon class="st9" points="551.4,280.8 556.9,278.4 564.9,286.2 557.4,279.9 		"/>
		<polygon class="st9" points="556.1,267.7 541.9,248.7 558.1,266.2 		"/>
		<polygon class="st7" points="586.6,281.7 581.3,281.7 577.1,285.1 582.1,286.2 		"/>
		<polygon class="st8" points="603.8,287.7 575.3,291.5 574.4,316.5 581.9,304 586.6,302.7 		"/>
		<polygon points="574.4,310.8 569.4,314.5 564.3,310.8 564.3,316.5 569.4,318.2 569.4,318.2 569.4,318.2 569.4,318.2 569.4,318.2 
			574.4,316.5 		"/>
		<path class="st8" d="M587.3,280.8l-6-1l-7.5,6.3l-1.1-1.8c0,0,5.5-7.6,8.6-7.6C584.4,276.8,587.3,280.8,587.3,280.8z"/>
		<polygon class="st8" points="589.1,272.6 580.7,266.2 596.8,248.7 		"/>
		<polygon class="st6" points="586.6,271 583.9,268.7 592.2,257 		"/>
		<polygon class="st9" points="603.8,287.7 586.6,296.4 581.8,297.5 574.4,316.5 581.9,304 586.6,302.7 		"/>
		<polygon class="st10" points="586.6,281.7 581.8,284 577.1,285.1 581.3,281.7 		"/>
		<polygon class="st9" points="587.3,280.8 581.8,278.4 573.8,286.2 581.3,279.9 		"/>
		<polygon class="st9" points="582.7,267.7 596.8,248.7 580.7,266.2 		"/>
	</g>
</g>
<g>
	<path class="st11" d="M413.3,518.8c-16.1-16.1-16.1-42.2,0-58.2c16.1-16,42.2-16.1,58.2,0L413.3,518.8z"/>
	<path class="st12" d="M413.3,518.8c16.1,16.1,42.2,16.1,58.2,0c16.1-16.1,16.1-42.2,0-58.2L413.3,518.8z"/>
	<polygon class="st1" points="465.4,481.7 473.1,454.7 444.3,475.2 415.5,454.7 423.2,481.7 409.9,496.2 427.1,511.2 431.7,512.4 
		439.2,524.9 444.3,526.7 444.3,526.7 444.3,526.7 444.3,526.7 444.3,526.7 449.4,524.9 456.9,512.4 461.5,511.2 478.7,496.2 	"/>
	<g>
		<polygon class="st13" points="463.5,480.7 471.2,453.7 442.4,474.2 413.6,453.7 421.4,480.7 408,495.2 425.2,510.2 429.9,511.4 
			437.4,523.9 442.4,525.7 442.4,525.7 442.4,525.7 442.4,525.7 442.4,525.7 447.5,523.9 455,511.4 459.7,510.2 476.9,495.2 		"/>
		<polygon class="st3" points="463.9,484.3 450.2,478.4 442.4,481.9 434.7,478.4 421,484.3 412.1,494.2 419.1,492.2 427.9,496 
			439.1,496 439.9,511.9 442.4,519.9 442.4,519.9 442.4,519.9 442.4,519.9 442.4,519.9 445,511.9 445.8,496 457,496 465.7,492.2 
			472.7,494.2 		"/>
		<polygon class="st14" points="425.2,489.2 430.5,489.2 434.7,492.5 429.7,493.7 		"/>
		<polygon class="st15" points="408,495.2 436.5,499 437.4,523.9 429.9,511.4 425.2,510.2 		"/>
		<path class="st16" d="M424.5,488.3l6-1l7.5,6.3l1.1-1.8c0,0-5.5-7.6-8.6-7.6S424.5,488.3,424.5,488.3z"/>
		<polygon class="st15" points="422.7,480 431.1,473.7 415,456.2 		"/>
		<polygon class="st3" points="425.2,478.4 427.9,476.1 419.6,464.4 		"/>
		<polygon class="st17" points="408,495.2 425.2,503.8 430,505 437.4,523.9 429.9,511.4 425.2,510.2 		"/>
		<polygon class="st18" points="425.2,489.2 430,491.4 434.7,492.5 430.5,489.2 		"/>
		<polygon class="st15" points="424.5,488.3 430,485.8 438,493.7 430.5,487.3 		"/>
		<polygon class="st17" points="429.1,475.2 415,456.2 431.1,473.7 		"/>
		<polygon class="st14" points="459.7,489.2 454.4,489.2 450.2,492.5 455.2,493.7 		"/>
		<polygon class="st15" points="476.9,495.2 448.4,499 447.5,523.9 455,511.4 459.7,510.2 		"/>
		<polygon class="st18" points="447.5,518.3 442.4,522 437.4,518.3 437.4,523.9 442.4,525.7 442.4,525.7 442.4,525.7 442.4,525.7 
			442.4,525.7 447.5,523.9 		"/>
		<path class="st16" d="M460.4,488.3l-6-1l-7.5,6.3l-1.1-1.8c0,0,5.5-7.6,8.6-7.6S460.4,488.3,460.4,488.3z"/>
		<polygon class="st15" points="462.2,480 453.7,473.7 469.9,456.2 		"/>
		<polygon class="st3" points="459.7,478.4 457,476.1 465.2,464.4 		"/>
		<polygon class="st17" points="476.9,495.2 459.7,503.8 454.9,505 447.5,523.9 455,511.4 459.7,510.2 		"/>
		<polygon class="st18" points="459.7,489.2 454.9,491.4 450.2,492.5 454.4,489.2 		"/>
		<polygon class="st15" points="460.4,488.3 454.9,485.8 446.9,493.7 454.4,487.3 		"/>
		<polygon class="st17" points="455.7,475.2 469.9,456.2 453.7,473.7 		"/>
	</g>
</g>
<g>
	<circle class="st17" cx="-522" cy="467.1" r="67"/>
	<g>
		<g>
			<g>
				<defs>
					<circle id="SVGID_2_" cx="-522" cy="467.1" r="67"/>
				</defs>
				<clipPath id="SVGID_3_">
					<use xlink:href="#SVGID_2_"  style="overflow:visible;"/>
				</clipPath>
				
					<linearGradient id="SVGID_4_" gradientUnits="userSpaceOnUse" x1="-578.9692" y1="1728.5308" x2="-519.925" y2="1787.5751" gradientTransform="matrix(1 0 0 1 0 -1306)">
					<stop  offset="0" style="stop-color:#000000;stop-opacity:0.2"/>
					<stop  offset="1.385228e-002" style="stop-color:#110F07;stop-opacity:0.2027"/>
					<stop  offset="4.458252e-002" style="stop-color:#302B13;stop-opacity:0.2085"/>
					<stop  offset="7.939110e-002" style="stop-color:#4C431E;stop-opacity:0.2152"/>
					<stop  offset="0.1187" style="stop-color:#625627;stop-opacity:0.2227"/>
					<stop  offset="0.1646" style="stop-color:#73652E;stop-opacity:0.2315"/>
					<stop  offset="0.2214" style="stop-color:#7E6F33;stop-opacity:0.2424"/>
					<stop  offset="0.3011" style="stop-color:#857535;stop-opacity:0.2577"/>
					<stop  offset="0.5222" style="stop-color:#877736;stop-opacity:0.3"/>
					<stop  offset="1" style="stop-color:#877736"/>
				</linearGradient>
				<path class="st19" d="M-492.2,447.8l-44-49c0,0-19.3,2.5-29.8,11.9c-10.6,9.4-27.3,18.8-28,63.3l53.1,28.5L-492.2,447.8z"/>
			</g>
		</g>
	</g>
	<g>
		<path class="st20" d="M-547.4,499.9c0,0,2.4,12.3,0,14s-7.9,3.5-7.9,3.5s3.8,0,5.2,0c1.4,0-2.7,2.3-2.7,2.3s6.7-1,10-4
			c3.3-3-0.5-15.8-0.5-15.8H-547.4z"/>
		<path class="st21" d="M-542,505.4l-4.4,3.3l-0.7-6.1l3.5-0.9C-543.5,501.7-542.3,503.1-542,505.4z"/>
		<path class="st22" d="M-559.2,433.5c-0.7,3.1,0.2,7.1,6.4,10.6l63-16l-10.5-13.5l-52.7,14.7C-556,430-558.5,430.4-559.2,433.5z"/>
		<path class="st23" d="M-543.1,443.1l53.4-15l-8.4-10.7l-59.7,18.8C-557.8,436.2-554.2,443.4-543.1,443.1z"/>
		<polygon class="st24" points="-551.6,499.6 -545.7,504.6 -484.7,487.6 -488.7,426.3 -551.6,444.6 		"/>
		<path class="st25" d="M-543.1,442.1l2.4,61.5c0,0-10,4.8-16-6l-2.6-63.5l0,0c3.3,4.5,4.9,6.9,10.1,8.6l4.7-0.2"/>
		<g>
			<path class="st26" d="M-550.4,437.8c0,0,0.4-0.2,0.9-0.5c0.6-0.2,1.3-0.5,2.1-0.6c0.8-0.2,1.6-0.2,2.2-0.2c0.6,0,1,0.1,1,0.1
				s-0.4,0.2-0.9,0.5c-0.6,0.2-1.3,0.5-2.1,0.6c-0.8,0.2-1.6,0.2-2.2,0.2S-550.4,437.8-550.4,437.8z"/>
		</g>
		<path class="st20" d="M-550,437.6c0,0,0-2.5,2.5-2.5s2.8,1.3,2.8,1.3L-550,437.6z"/>
	</g>
</g>
<g>
	<path class="st12" d="M-100.5,5.5c5.5,5.5,5.5,14.3,0,19.8s-14.3,5.5-19.8,0L-100.5,5.5z"/>
	<path class="st11" d="M-120.3,25.3c-5.5-5.5-5.5-14.3,0-19.8s14.3-5.5,19.8,0L-120.3,25.3z"/>
	<g>
		<path class="st1" d="M-117.8,10.3c-0.1,0.6,0,1.5,1.4,2.2l13.1-3.4l-2.2-2.8l-11,3.1C-117.2,9.6-117.7,9.6-117.8,10.3z"/>
		<path class="st1" d="M-114.5,12.3l11.1-3.1l-1.7-2.2l-12.5,3.9C-117.5,10.8-116.8,12.3-114.5,12.3z"/>
		<polygon class="st1" points="-116.3,24.1 -115,25.1 -102.3,21.6 -103.1,8.8 -116.3,12.6 		"/>
		<path class="st1" d="M-114.5,12.1l0.5,12.8c0,0-2.1,1-3.4-1.3l-0.5-13.3l0,0c0.7,0.9,1,1.4,2.1,1.8l1-0.1"/>
	</g>
	<g>
		<path class="st27" d="M-118.1,9.9c-0.1,0.6,0,1.5,1.4,2.2l13.1-3.4l-2.2-2.8l-11,3.1C-117.5,9.2-118,9.3-118.1,9.9z"/>
		<path class="st28" d="M-114.8,11.9l11.1-3.1l-1.7-2.2l-12.5,3.9C-117.8,10.5-117.1,12-114.8,11.9z"/>
		<polygon class="st3" points="-116.5,23.7 -115.3,24.7 -102.6,21.2 -103.4,8.4 -116.5,12.2 		"/>
		<path class="st17" d="M-114.8,11.7l0.5,12.8c0,0-2.1,1-3.4-1.3l-0.5-13.3l0,0c0.7,0.9,1,1.4,2.1,1.8l1-0.1"/>
	</g>
</g>
<g>
	<path class="st12" d="M-53.7,5.5c5.5,5.5,5.5,14.3,0,19.8s-14.3,5.5-19.8,0L-53.7,5.5z"/>
	<path class="st11" d="M-73.5,25.3C-79,19.8-79,11-73.5,5.5s14.3-5.5,19.8,0L-73.5,25.3z"/>
	<g>
		<polygon class="st1" points="-63,5.7 -71.8,12.8 -69.1,12.7 -69,22.9 -62.9,22.9 -56.8,22.9 -56.8,12.7 -54,12.7 		"/>
		<polygon class="st1" points="-62.9,16.6 -66,16.6 -66,22.9 -62.9,22.9 -59.8,22.9 -59.8,16.6 		"/>
		<polygon class="st1" points="-62.9,12.7 -69.1,12.7 -69.1,13.8 -62.9,13.8 -56.8,13.8 -56.8,12.7 		"/>
	</g>
	<g>
		<polygon class="st3" points="-63.6,5.7 -72.5,12.8 -69.7,12.7 -69.7,22.9 -63.5,22.9 -57.4,22.9 -57.5,12.7 -54.7,12.7 		"/>
		<polygon class="st17" points="-63.6,16.6 -66.7,16.6 -66.7,22.9 -63.6,22.9 -60.5,22.9 -60.5,16.6 		"/>
		<polygon class="st29" points="-63.6,12.7 -69.7,12.7 -69.7,13.8 -63.6,13.8 -57.5,13.8 -57.5,12.7 		"/>
		<polygon class="st17" points="-69.4,12.7 -54.7,12.7 -63.6,5.7 -72.5,12.8 		"/>
	</g>
</g>
<g>
	<path class="st12" d="M-16.5,5.1c5.5,5.5,5.5,14.3,0,19.8s-14.3,5.5-19.8,0L-16.5,5.1z"/>
	<path class="st11" d="M-36.2,24.9c-5.5-5.5-5.5-14.3,0-19.8s14.3-5.5,19.8,0L-36.2,24.9z"/>
</g>
<g>
	<g>
		<g>
			<path class="st6" d="M423.3,583.4c-21.5,21.5-21.5,56.3,0,77.8l77.8-77.8C479.6,561.9,444.8,561.9,423.3,583.4z"/>
			<path class="st6" d="M501.1,583.4l-77.8,77.8c21.5,21.5,56.3,21.5,77.8,0S522.5,604.8,501.1,583.4z"/>
		</g>
		<path class="st5" d="M423.4,661.1c-21.5-21.5-21.5-56.3,0-77.8s56.3-21.5,77.8,0L423.4,661.1z"/>
		<path class="st6" d="M423.4,661.1c21.5,21.5,56.3,21.5,77.8,0s21.5-56.3,0-77.8L423.4,661.1z"/>
	</g>
	<g>
		<path class="st1" d="M428.8,593.6c0,0-14.8,40.8,5.1,57.4c0,0-4.3-48.1,9.7-48.6l5.7,7.6l6.3-6.2l7,7.5l0.9-9.8
			c0.2-2.5-1.6-4.6-4-4.9L428.8,593.6z"/>
		<path class="st1" d="M434,650.9c0,0-8.2-31.5-3-42.2c5.2-10.7,12.7-6.3,12.7-6.3s-2.9,0.2-6.9,6.4
			C431.9,616.2,434,650.9,434,650.9z"/>
		<polygon class="st1" points="449.3,610 455.3,601.5 455.6,603.7 		"/>
		<path class="st1" d="M496.4,593.6c0,0,14.8,40.8-5.1,57.4c0,0,4.3-48.1-9.7-48.6l-5.7,7.6l-6.3-6.2l-7,7.5l1.2-12.3
			c0.1-1.2,1-2.1,2.2-2.2L496.4,593.6z"/>
		<path class="st1" d="M491.3,650.9c0,0,8.2-31.5,3-42.2c-5.2-10.7-12.7-6.3-12.7-6.3s2.9,0.2,6.9,6.4
			C493.3,616.2,491.3,650.9,491.3,650.9z"/>
		<polygon class="st1" points="475.9,610 470,601.5 469.6,603.7 		"/>
		<path class="st1" d="M449.3,595.5c0,0,19,2.3,26.6,0.2v4.7h-25.6L449.3,595.5z"/>
	</g>
	<g>
		<path class="st30" d="M460.2,611.2l7-7.5l6.3,6.2l5.7-7.6c14,0.5,9.7,48.6,9.7,48.6c19.9-16.5,5.1-57.4,5.1-57.4l-29.3,3.1
			c-3.7,0-7.7-0.2-10.9-0.4l-6.8-0.7l0,0l0,0l-20.5-2c0,0-14.8,40.8,5.1,57.4c0,0-4.3-48.1,9.7-48.6l5.7,7.6l6.3-6.2L460.2,611.2"/>
		<path class="st30" d="M461.1,600.4"/>
		<path class="st31" d="M431.6,650.9c0,0-8.2-31.5-3-42.2c5.2-10.7,12.7-6.3,12.7-6.3s-2.9,0.2-6.9,6.4
			C429.5,616.2,431.6,650.9,431.6,650.9z"/>
		<polygon class="st31" points="447,610 452.9,601.5 453.3,603.7 		"/>
		<path class="st31" d="M488.9,650.9c0,0,8.2-31.5,3-42.2c-5.2-10.7-12.7-6.3-12.7-6.3s2.9,0.2,6.9,6.4
			C490.9,616.2,488.9,650.9,488.9,650.9z"/>
		<polygon class="st31" points="473.5,610 467.6,601.5 467.2,603.7 		"/>
	</g>
	<g>
		<path class="st32" d="M471.6,620.8c0.7,3,1.7,5.9,3.3,8.6c1.8,3,1.4,6.6-0.5,8.3c-1.9,1.7-5.4,1.9-7.4,0.1c-2.2-1.9-2.5-5.9-0.1-9
			c1-1.3,1.9-2.7,2.7-4.2L471.6,620.8L471.6,620.8z"/>
		
			<ellipse transform="matrix(0.1724 -0.985 0.985 0.1724 -233.8545 989.7889)" class="st33" cx="472.1" cy="634.1" rx="4.3" ry="2.5"/>
	</g>
</g>
<rect x="190.8" y="588.2" class="st25" width="20.2" height="157.5"/>
<rect x="-223.3" y="666.9" class="st34" width="141.4" height="70.7"/>
<polygon class="st0" points="423.2,273.6 415.6,264.3 421.4,264.3 413.6,254.8 418.8,254.8 408.4,242 408.4,248.4 408.4,254.8 
	408.4,255.5 408.4,264.3 408.4,272.8 408.4,272.8 408.4,272.8 408.4,264.3 408.4,255.5 408.4,254.8 408.4,248.4 408.4,242 
	398,254.8 403.2,254.8 395.4,264.3 401.3,264.3 393.7,273.6 405.2,273.6 405.2,289.5 408.2,289.5 408.7,289.5 411.7,289.5 
	411.7,273.6 "/>
<rect x="-30.7" y="666.9" class="st34" width="141.4" height="70.7"/>
<g>
	<polygon class="st18" points="386.3,273.4 386.3,288.5 389.1,288.5 389.1,275.1 	"/>
	<polygon class="st11" points="380.5,260.5 384.7,260.5 378.5,268.2 383.1,268.2 377,275.7 388.9,275.7 388.9,268.2 388.9,261.1 
		388.9,260.5 388.9,255.3 388.9,250.2 	"/>
	<polygon class="st12" points="380.5,260.5 385.9,259 384.7,260.5 	"/>
	<polygon class="st35" points="391.5,273.4 391.5,288.5 388.7,288.5 388.7,275.1 	"/>
	<polygon class="st12" points="378.5,268.2 385.1,266.2 383.1,268.2 	"/>
	<polygon class="st36" points="397.3,260.5 393.1,260.5 399.4,268.2 394.7,268.2 400.8,275.7 388.9,275.7 388.9,268.2 388.9,261.1 
		388.9,260.5 388.9,255.3 388.9,250.2 	"/>
	<polygon class="st0" points="397.3,260.5 391.9,259 393.1,260.5 	"/>
	<polygon class="st0" points="399.4,268.2 392.7,266.2 394.7,268.2 	"/>
</g>
<polygon class="st1" points="421.3,289.4 413.7,280.1 419.6,280.1 411.8,270.5 417,270.5 406.6,257.7 406.6,264.1 406.6,270.5 
	406.6,271.3 406.6,280.1 406.6,288.6 406.6,288.6 406.6,288.6 406.6,280.1 406.6,271.3 406.6,270.5 406.6,264.1 406.6,257.7 
	396.2,270.5 401.4,270.5 393.6,280.1 399.4,280.1 391.8,289.4 403.3,289.4 403.3,305.3 406.3,305.3 406.8,305.3 409.8,305.3 
	409.8,289.4 "/>
<g>
	<polygon class="st18" points="405.2,270.7 405.2,289.5 408.7,289.5 408.7,273 	"/>
	<polygon class="st11" points="398,254.8 403.2,254.8 395.4,264.3 401.3,264.3 393.7,273.6 408.4,273.6 408.4,264.3 408.4,255.5 
		408.4,254.8 408.4,248.4 408.4,242 	"/>
	<polygon class="st12" points="398,254.8 404.7,253 403.2,254.8 	"/>
	<polygon class="st35" points="411.7,270.7 411.7,289.5 408.2,289.5 408.2,273 	"/>
	<polygon class="st12" points="395.4,264.3 403.7,261.8 401.3,264.3 	"/>
	<polygon class="st36" points="418.8,254.8 413.6,254.8 421.4,264.3 415.6,264.3 423.2,273.6 408.4,273.6 408.4,264.3 408.4,255.5 
		408.4,254.8 408.4,248.4 408.4,242 	"/>
	<polygon class="st0" points="418.8,254.8 412.1,253 413.6,254.8 	"/>
	<polygon class="st0" points="421.4,264.3 413.1,261.8 415.6,264.3 	"/>
</g>
<g>
	<polygon class="st1" points="403.3,286.5 403.3,305.3 406.8,305.3 406.8,288.7 	"/>
	<polygon class="st1" points="396.2,270.5 401.4,270.5 393.6,280.1 399.4,280.1 391.8,289.4 406.6,289.4 406.6,280.1 406.6,271.3 
		406.6,270.5 406.6,264.1 406.6,257.7 	"/>
	<polygon class="st1" points="396.2,270.5 402.9,268.7 401.4,270.5 	"/>
	<polygon class="st1" points="409.8,286.5 409.8,305.3 406.3,305.3 406.3,288.7 	"/>
	<polygon class="st1" points="393.6,280.1 401.9,277.6 399.4,280.1 	"/>
	<polygon class="st1" points="417,270.5 411.8,270.5 419.6,280.1 413.7,280.1 421.3,289.4 406.6,289.4 406.6,280.1 406.6,271.3 
		406.6,270.5 406.6,264.1 406.6,257.7 	"/>
	<polygon class="st1" points="417,270.5 410.3,268.7 411.8,270.5 	"/>
	<polygon class="st1" points="419.6,280.1 411.3,277.6 413.7,280.1 	"/>
</g>
<g>
	<polygon class="st18" points="401.5,286.5 401.5,305.3 405,305.3 405,288.7 	"/>
	<polygon class="st11" points="394.3,270.5 399.5,270.5 391.8,280.1 397.6,280.1 390,289.4 404.7,289.4 404.7,280.1 404.7,271.3 
		404.7,270.5 404.7,264.1 404.7,257.7 	"/>
	<polygon class="st12" points="394.3,270.5 401,268.7 399.5,270.5 	"/>
	<polygon class="st35" points="408,286.5 408,305.3 404.5,305.3 404.5,288.7 	"/>
	<polygon class="st12" points="391.8,280.1 400,277.6 397.6,280.1 	"/>
	<polygon class="st36" points="415.1,270.5 409.9,270.5 417.7,280.1 411.9,280.1 419.5,289.4 404.7,289.4 404.7,280.1 404.7,271.3 
		404.7,270.5 404.7,264.1 404.7,257.7 	"/>
	<polygon class="st0" points="415.1,270.5 408.4,268.7 409.9,270.5 	"/>
	<polygon class="st0" points="417.7,280.1 409.4,277.6 411.9,280.1 	"/>
</g>
<g>
	<g>
		<path class="st25" d="M535,464c-16.1,16.1-16.1,42.2,0,58.2l58.2-58.2C577.2,448,551.1,448,535,464z"/>
		<path class="st25" d="M593.2,464L535,522.2c16.1,16.1,42.2,16.1,58.2,0C609.3,506.2,609.3,480.1,593.2,464z"/>
		<g>
			<path class="st25" d="M523,493.2c0,22.7,18.4,41.2,41.2,41.2V452C541.4,452,523,470.4,523,493.2z"/>
			<path class="st25" d="M564.1,452v82.4c22.7,0,41.2-18.4,41.2-41.2S586.9,452,564.1,452z"/>
		</g>
	</g>
	
		<linearGradient id="SVGID_5_" gradientUnits="userSpaceOnUse" x1="592.2738" y1="1829.3239" x2="557.2251" y2="1794.2751" gradientTransform="matrix(1 0 0 1 0 -1306)">
		<stop  offset="0" style="stop-color:#000000;stop-opacity:0"/>
		<stop  offset="0.3187" style="stop-color:#2C2618;stop-opacity:0.1848"/>
		<stop  offset="0.5172" style="stop-color:#423A25;stop-opacity:0.3"/>
		<stop  offset="0.5238" style="stop-color:#453E26;stop-opacity:0.3096"/>
		<stop  offset="0.5828" style="stop-color:#5D6030;stop-opacity:0.3951"/>
		<stop  offset="0.6459" style="stop-color:#707C39;stop-opacity:0.4865"/>
		<stop  offset="0.7136" style="stop-color:#7F923F;stop-opacity:0.5847"/>
		<stop  offset="0.788" style="stop-color:#8AA144;stop-opacity:0.6925"/>
		<stop  offset="0.8742" style="stop-color:#90AA46;stop-opacity:0.8176"/>
		<stop  offset="1" style="stop-color:#92AD47"/>
	</linearGradient>
	<path class="st37" d="M570.6,471.6l-19.3,23.8l10.8,38.9c0,0,38.3,1.8,43.1-39.2L570.6,471.6"/>
	<g>
		<g>
			<polygon class="st2" points="534.4,486.8 536.5,504.3 550.5,513.7 555.4,516.7 563.2,518.4 563.2,468 544.2,468 			"/>
			<polygon class="st2" points="582,468 562.8,468 562.8,517.2 572.3,515.9 575.6,513.7 589.8,504.3 591.9,486.8 			"/>
		</g>
		<polygon class="st38" points="529.5,470.3 533.3,467.1 545.4,467.1 548.2,470.3 538.9,485.6 		"/>
		<polygon class="st39" points="547,490.5 557.2,490.5 552.1,482.8 		"/>
		<polygon class="st38" points="536.7,504.3 544.5,503.4 550.5,513.7 		"/>
		<polygon class="st38" points="543.8,495.2 552.1,498.4 557.2,496.8 552.1,501.5 		"/>
		<path class="st38" d="M575.2,514.4c0-4-5.4-7.2-12-7.2s-12,3.2-12,7.2l3,5.2l1,0.8h15.9l1.2-0.9L575.2,514.4z"/>
		<polygon class="st39" points="548.2,470.3 537.6,483.5 538.9,485.6 		"/>
		<path class="st39" d="M556.4,513.6c0,0-0.4-2.5,2.1-3.3c2.5-0.8,2.7,3.3,2.7,3.3H556.4z"/>
		<polygon class="st38" points="598.7,470.3 594.9,467.1 582.9,467.1 580.1,470.3 589.4,485.6 		"/>
		<polygon class="st39" points="579.4,490.5 569.1,490.5 574.3,482.8 		"/>
		<polygon class="st38" points="589.7,504.3 581.9,503.4 575.8,513.7 		"/>
		<g>
			<polygon class="st38" points="563.2,502.1 563.2,499.4 554.6,502.1 			"/>
			<polygon class="st38" points="563.2,499.4 563.2,502.1 571.7,502.1 			"/>
		</g>
		<polygon class="st38" points="582.6,495.2 574.3,498.4 569.1,496.8 574.3,501.5 		"/>
		<polygon class="st39" points="580.1,470.3 590.6,483.5 589.4,485.6 		"/>
		<path class="st39" d="M570,513.6c0,0,0.4-2.5-2.1-3.3c-2.5-0.8-2.7,3.3-2.7,3.3H570z"/>
		<g>
			<polygon class="st38" points="563.1,506 563.1,503.4 555.4,506 			"/>
			<polygon class="st38" points="563.2,503.4 563.2,506 570.9,506 			"/>
		</g>
	</g>
</g>
<g>
	<g>
		<path class="st25" d="M671.5,462.6c-16.1,16.1-16.1,42.2,0,58.2l58.2-58.2C713.6,446.5,687.5,446.5,671.5,462.6z"/>
		<path class="st25" d="M729.7,462.6l-58.2,58.2c16.1,16.1,42.2,16.1,58.2,0C745.8,504.8,745.8,478.7,729.7,462.6z"/>
		<g>
			<path class="st25" d="M659.4,491.7c0,22.7,18.4,41.2,41.2,41.2v-82.4C677.8,450.5,659.4,469,659.4,491.7z"/>
			<path class="st25" d="M700.6,450.5v82.4c22.7,0,41.2-18.4,41.2-41.2C741.8,469,723.3,450.5,700.6,450.5z"/>
		</g>
	</g>
	
		<linearGradient id="SVGID_6_" gradientUnits="userSpaceOnUse" x1="728.9701" y1="1827.8701" x2="693.8066" y2="1792.7067" gradientTransform="matrix(1 0 0 1 0 -1306)">
		<stop  offset="0" style="stop-color:#000000;stop-opacity:0"/>
		<stop  offset="0.3187" style="stop-color:#2C2618;stop-opacity:0.1848"/>
		<stop  offset="0.5172" style="stop-color:#423A25;stop-opacity:0.3"/>
		<stop  offset="0.5238" style="stop-color:#453E26;stop-opacity:0.3096"/>
		<stop  offset="0.5828" style="stop-color:#5D6030;stop-opacity:0.3951"/>
		<stop  offset="0.6459" style="stop-color:#707C39;stop-opacity:0.4865"/>
		<stop  offset="0.7136" style="stop-color:#7F923F;stop-opacity:0.5847"/>
		<stop  offset="0.788" style="stop-color:#8AA144;stop-opacity:0.6925"/>
		<stop  offset="0.8742" style="stop-color:#90AA46;stop-opacity:0.8176"/>
		<stop  offset="1" style="stop-color:#92AD47"/>
	</linearGradient>
	<path class="st40" d="M707.1,470.1l-19.3,23.8l10.8,38.9c0,0,38.5,2.3,43.1-39.5L707.1,470.1"/>
</g>
<g>
	<path class="st41" d="M725.9,469.2l-24.3-7.5l-24.3,7.5l-7.3,14v26l6.1,6.3c4.5,4.6,10.6,7.2,17,7.2h8.6h13.1
		c3.5,0,6.9-1.4,9.4-3.9l9.2-9.5v-26L725.9,469.2z"/>
	<path class="st9" d="M685.8,496c-1.8-1.3-3.8,2.2-2.1,3.3c1.7,1.1,17.9,13.6,17.9,13.6v-13.6"/>
	<path class="st8" d="M726,477.4c-1.7-2.2-4.3-3.4-7.1-3.4h-12.4h-4.9h-4.9h-10.2c-4.2,0-8.1,1.9-10.7,5.2l-2.2,2.8v22.4l5.7,6.7
		c3.1,3.6,7.5,5.9,12.3,6.3l10,0.8l12.2-1c3.3-0.3,6.4-1.8,8.5-4.4l7.2-8.4V482L726,477.4z"/>
	<path class="st9" d="M690,480.4c0,0-12.8,1.3-13.8,6.8s2,7.8,2,7.8s4.2-5.3,7.6-4.5c3.4,0.8,6.9,1.5,8.4,0.3S698.4,480.4,690,480.4
		z"/>
	<polygon class="st42" points="690,483.4 685.8,487.6 692.9,487.6 	"/>
	<path class="st41" d="M706,511.7c0.9-0.9,1.9-1.7,2.9-2.5c4-3,8.5-6.9,10.6-10c0.4-0.6,2.3-3.4,2.1-3.5c-0.1,0-0.2,0-0.3,0.2
		c-0.8,0.8-6.8,2.9-10.4,3.3s-6.4,1.6-6.4,1.6l-2.9-0.5l-2.9,0.5c0,0-2.8-1.3-6.4-1.6c-3.6-0.3-9.6-2.5-10.4-3.3
		c-0.8-0.8-0.5,1.4,1.8,3.3c1.4,1.2,7.8,7.1,12.6,11.5c0.3,0.3,2.3,2.4,5.3,2.6C703.7,513.4,705.2,512.5,706,511.7z"/>
	<path class="st9" d="M713.2,480.4c0,0,12.8,1.3,13.8,6.8s-2,7.8-2,7.8s-4.2-5.3-7.6-4.5c-3.4,0.8-6.9,1.5-8.4,0.3
		S704.9,480.4,713.2,480.4z"/>
	<polygon class="st42" points="713.2,483.4 717.4,487.6 710.3,487.6 	"/>
	<path class="st42" d="M701.6,494.9c0,0-5.7-0.3-5.8,2.8c-0.1,3,5.8,6,5.8,6s5.9-3,5.8-6C707.3,494.6,701.6,494.9,701.6,494.9z"/>
	<ellipse class="st42" cx="701.8" cy="498.4" rx="3.8" ry="2.9"/>
	<path class="st42" d="M701.6,506c0,0-8.9-2.1-10-3.2c0,0,6.9,7.3,10,7.4c3.1-0.2,10-7.4,10-7.4C710.6,504,701.6,506,701.6,506z"/>
</g>
<g>
	<g>
		<path class="st25" d="M811,521c-16.1-16.1-16.1-42.2,0-58.2c16.1-16.1,42.2-16.1,58.2,0L811,521z"/>
		<path class="st25" d="M811,521c16.1,16.1,42.2,16.1,58.2,0c16.1-16.1,16.1-42.2,0-58.2L811,521z"/>
		<g>
			<path class="st25" d="M840.1,533.1c-22.7,0-41.2-18.4-41.2-41.2s18.4-41.2,41.2-41.2V533.1z"/>
			<path class="st25" d="M840.1,533.1c22.7,0,41.2-18.4,41.2-41.2s-18.4-41.2-41.2-41.2V533.1z"/>
		</g>
	</g>
	
		<linearGradient id="SVGID_7_" gradientUnits="userSpaceOnUse" x1="868.1161" y1="1828.1661" x2="833.0834" y2="1793.1334" gradientTransform="matrix(1 0 0 1 0 -1306)">
		<stop  offset="0" style="stop-color:#000000;stop-opacity:0"/>
		<stop  offset="0.3187" style="stop-color:#2C2618;stop-opacity:0.1848"/>
		<stop  offset="0.5172" style="stop-color:#423A25;stop-opacity:0.3"/>
		<stop  offset="0.5238" style="stop-color:#453E26;stop-opacity:0.3096"/>
		<stop  offset="0.5828" style="stop-color:#5D6030;stop-opacity:0.3951"/>
		<stop  offset="0.6459" style="stop-color:#707C39;stop-opacity:0.4865"/>
		<stop  offset="0.7136" style="stop-color:#7F923F;stop-opacity:0.5847"/>
		<stop  offset="0.788" style="stop-color:#8AA144;stop-opacity:0.6925"/>
		<stop  offset="0.8742" style="stop-color:#90AA46;stop-opacity:0.8176"/>
		<stop  offset="1" style="stop-color:#92AD47"/>
	</linearGradient>
	<path class="st43" d="M846.6,470.3l-19.3,23.8l11,39.7c0,0,38.5,0,42.9-40L846.6,470.3"/>
</g>
<g>
	<polygon class="st17" points="834.7,476.8 834.8,476.5 843.2,447 848.5,476.8 	"/>
	<polygon class="st8" points="862.7,481.1 852.4,475 841.2,474.1 841.2,474.1 841.1,474.1 841.1,474.1 841.1,474.1 829.9,475 
		819.6,481.1 814.9,494.5 818.9,505.1 825.7,511.5 831.7,532.5 841.1,537.6 841.1,537.6 841.1,537.6 841.2,537.6 841.2,537.6 
		850.6,532.5 856.6,511.5 863.4,505.1 867.4,494.5 	"/>
	<polygon class="st8" points="828.1,476.1 821.7,470 817.9,468.8 817.9,473.3 819.6,481.1 	"/>
	<polygon class="st44" points="833.1,523 833.9,528.2 837.5,530.9 837.5,527 	"/>
	<polygon class="st44" points="825.1,495.4 830.8,489.4 834.5,496 	"/>
	<polygon class="st45" points="835.1,474.7 842.3,465.3 848.1,474.7 	"/>
	<polygon class="st44" points="820.9,480 819,473.3 819,471 820.9,471.5 826.1,476.3 	"/>
	<polygon class="st2" points="829.9,475 831.3,483.8 836.9,474.4 	"/>
	<polygon class="st2" points="836.9,474.4 841.7,486.6 845.4,474.4 841.2,474.1 	"/>
	<polygon class="st8" points="854.2,476.1 860.6,470 864.4,468.8 864.4,473.3 862.7,481.1 	"/>
	<polygon class="st44" points="849.2,523 848.4,528.2 844.8,530.9 844.8,527 	"/>
	<polygon class="st44" points="857.2,495.4 851.4,489.4 847.8,496 	"/>
	<polygon class="st44" points="861.4,480 863.3,473.3 863.3,471 861.4,471.5 856.2,476.3 	"/>
	<polygon class="st2" points="852.4,475 851,483.8 845.4,474.4 	"/>
	<polygon class="st46" points="818.9,505.1 823.9,502.2 830.4,505.9 833.5,505.9 833.5,520.7 827.8,511 824.4,511.5 	"/>
	<polygon class="st46" points="863.4,505.1 858,502.3 851.6,505.3 848.6,505.1 848.4,519.8 853.6,510.7 856.7,511.4 	"/>
</g>
<polygon class="st0" points="419.5,289.4 411.9,280.1 417.7,280.1 409.9,270.5 415.1,270.5 404.7,257.7 404.7,264.1 404.7,270.5 
	404.7,271.3 404.7,280.1 404.7,288.6 404.7,288.6 404.7,288.6 404.7,280.1 404.7,271.3 404.7,270.5 404.7,264.1 404.7,257.7 
	394.3,270.5 399.5,270.5 391.8,280.1 397.6,280.1 390,289.4 401.5,289.4 401.5,305.3 404.5,305.3 405,305.3 408,305.3 408,289.4 "/>
<g>
	<polygon class="st18" points="401.5,286.5 401.5,305.3 405,305.3 405,288.7 	"/>
	<polygon class="st11" points="394.3,270.5 399.5,270.5 391.8,280.1 397.6,280.1 390,289.4 404.7,289.4 404.7,280.1 404.7,271.3 
		404.7,270.5 404.7,264.1 404.7,257.7 	"/>
	<polygon class="st12" points="394.3,270.5 401,268.7 399.5,270.5 	"/>
	<polygon class="st35" points="408,286.5 408,305.3 404.5,305.3 404.5,288.7 	"/>
	<polygon class="st12" points="391.8,280.1 400,277.6 397.6,280.1 	"/>
	<polygon class="st36" points="415.1,270.5 409.9,270.5 417.7,280.1 411.9,280.1 419.5,289.4 404.7,289.4 404.7,280.1 404.7,271.3 
		404.7,270.5 404.7,264.1 404.7,257.7 	"/>
	<polygon class="st0" points="415.1,270.5 408.4,268.7 409.9,270.5 	"/>
	<polygon class="st0" points="417.7,280.1 409.4,277.6 411.9,280.1 	"/>
</g>
<g>
	<g>
		<g>
			<path class="st1" d="M-31.2,25.6l1-6.6h-3v-2h3.3l0.7-4.8h-3.1v-2h3.5l1-6.4h2.1l-0.9,6.4h3.8l1-6.4h2.2l-0.9,6.4h3v2h-3.3
				l-0.7,4.8h3.1v2h-3.5l-1,6.6h-2.2l1-6.6h-3.8l-1,6.6H-31.2z M-23.9,17l0.7-4.8H-27l-0.7,4.8H-23.9z"/>
		</g>
		<g>
			<path class="st1" d="M-32,25.6l1-6.6h-3v-2h3.3l0.7-4.8h-3.1v-2h3.5l1-6.4h2.1l-0.9,6.4h3.8l1-6.4h2.2l-0.9,6.4h3v2h-3.3
				l-0.7,4.8h3.1v2h-3.5l-1,6.6h-2.2l1-6.6h-3.8l-1,6.6H-32z M-24.7,17.1l0.7-4.8h-3.8l-0.7,4.8H-24.7z"/>
		</g>
	</g>
	<g>
		<g>
			<path class="st3" d="M-32.1,26l1-6.6h-3v-2h3.3l0.7-4.8h-3.1v-2h3.5l1-6.4h2.1l-0.9,6.4h3.8l1-6.4h2.2l-0.9,6.4h3v2h-3.3
				l-0.7,4.8h3.1v2h-3.5l-1,6.6H-26l1-6.6h-3.8l-1,6.6H-32.1z M-24.8,17.5l0.7-4.8h-3.8l-0.7,4.8H-24.8z"/>
		</g>
		<g>
			<path class="st17" d="M-33,26.1l1-6.6h-3v-2h3.3l0.7-4.8h-3.1v-2h3.5l1-6.4h2.1l-0.9,6.4h3.8l1-6.4h2.2l-0.9,6.4h3v2h-3.3
				l-0.7,4.8h3.1v2h-3.5l-1,6.6h-2.2l1-6.6h-3.8l-1,6.6H-33z M-25.7,17.6l0.7-4.8h-3.8l-0.7,4.8H-25.7z"/>
		</g>
	</g>
</g>
<g>
	<g>
		<path class="st12" d="M23.9,24c-5.5,5.5-14.3,5.5-19.8,0s-5.5-14.3,0-19.8L23.9,24z"/>
		<path class="st11" d="M4.2,4.2c5.5-5.5,14.3-5.5,19.8,0s5.5,14.3,0,19.8L4.2,4.2z"/>
	</g>
	<path class="st12" d="M23.9,4.2c5.5,5.5,5.5,14.3,0,19.8S9.6,29.5,4.1,24L23.9,4.2z"/>
	<path class="st11" d="M4.1,23.9c-5.5-5.5-5.5-14.3,0-19.8s14.3-5.5,19.8,0L4.1,23.9z"/>
</g>
<path class="st17" d="M-69.1,49.5"/>
<path class="st17" d="M-65.9,48.9"/>
<g>
	<path class="st1" d="M28,11.1c-1.8-0.1-5.6-5.9-5.6-5.9l-1.9,1.5h-0.1L0.7,21.6C0.1,22,0,22.8,0.4,23.4l0,0
		c0.4,0.6,1.2,0.7,1.8,0.3l17.7-13.3h0.5c2.2-0.1,3.4,4,3.4,4L28,11.1z"/>
	<path class="st1" d="M20,10.4c0,0,1.5-0.7,2.4,0.3s1.5,3.7,1.5,3.7S22.7,10.3,20,10.4z"/>
	<polygon class="st1" points="26.2,12.6 25.5,11.5 26.6,12.2 	"/>
	<path class="st1" d="M1.2,23L19.3,9.6C19.3,9.6,5.8,18.5,1.2,23z"/>
	<path class="st1" d="M6.7,19.5l6.3-4.8C13,14.8,9.9,17.7,6.7,19.5z"/>
</g>
<g>
	<path class="st17" d="M28,10.5c-1.8-0.1-5.6-5.9-5.6-5.9l-1.9,1.5h-0.1l-19.8,15c-0.6,0.4-0.7,1.2-0.3,1.8l0,0
		c0.4,0.6,1.2,0.7,1.8,0.3L19.8,9.9h0.5c2.2-0.1,3.4,4,3.4,4L28,10.5z"/>
	<path class="st3" d="M19.9,9.8c0,0,1.5-0.7,2.4,0.3c0.9,0.9,1.5,3.7,1.5,3.7S22.6,9.8,19.9,9.8z"/>
	<polygon class="st3" points="26.1,12 25.4,10.9 26.5,11.7 	"/>
	<path class="st3" d="M1.2,22.5L19.3,9.1C19.2,9.1,5.7,17.9,1.2,22.5z"/>
	<path class="st29" d="M6.6,19l6.3-4.8C12.9,14.2,9.8,17.1,6.6,19z"/>
</g>
</svg>
