<?xml version="1.0" encoding="utf-8"?>
<!-- Generator: Adobe Illustrator 19.2.1, SVG Export Plug-In . SVG Version: 6.00 Build 0)  -->
<svg version="1.1" id="Layer_1" xmlns="http://www.w3.org/2000/svg" xmlns:xlink="http://www.w3.org/1999/xlink" x="0px" y="0px"
	 viewBox="0 0 155 155" style="enable-background:new 0 0 155 155;" xml:space="preserve">
<style type="text/css">
	.st0{fill:#28331F;}
	.st1{fill:#282828;}
	.st2{fill:#C6724B;}
	.st3{fill:#897937;}
	.st4{fill:url(#SVGID_1_);}
	.st5{fill:#1E1D1D;}
	.st6{fill:#141414;}
	.st7{fill:#F21C1C;}
	.st8{fill:#CEC4C4;}
	.st9{fill:#A09D9D;}
	.st10{fill:#C11B1B;}
	.st11{fill:#36492A;}
	.st12{fill:#2C3A22;}
	.st13{fill:#938135;}
	.st14{fill:#7F6D20;}
	.st15{fill:#AA953D;}
	.st16{fill:#BCAC68;}
	.st17{fill:#C6AF4B;}
	.st18{fill:#514512;}
	.st19{clip-path:url(#SVGID_3_);fill:url(#SVGID_4_);}
	.st20{fill:#ED2B2B;}
	.st21{fill:#CE2929;}
	.st22{fill:#647532;}
	.st23{fill:#CDEAB0;}
	.st24{fill:#7B933B;}
	.st25{fill:#A0C64B;}
	.st26{fill:#C9C3A9;}
	.st27{fill:#AD9945;}
	.st28{fill:#D6C47C;}
	.st29{fill:#7F7136;}
	.st30{fill:#FFFFFF;}
	.st31{fill:#D8D8CB;}
	.st32{fill:#A31717;}
	.st33{fill:#C15B5B;}
	.st34{fill:#4BC6AF;}
	.st35{fill:#493E12;}
	.st36{fill:#2F3F25;}
	.st37{fill:url(#SVGID_5_);}
	.st38{fill:#AF6146;}
	.st39{fill:#93493B;}
	.st40{fill:url(#SVGID_6_);}
	.st41{fill:#565555;}
	.st42{fill:#4C4C4C;}
	.st43{fill:url(#SVGID_7_);}
	.st44{fill:#565454;}
	.st45{opacity:0.92;fill:#DDC04A;enable-background:new    ;}
	.st46{fill:#B7B2B2;}
</style>
<g>
	<circle class="st17" cx="82.4" cy="79.5" r="67"/>
	<g>
		<g>
			<g>
				<defs>
					<circle id="SVGID_2_" cx="82.4" cy="79.5" r="67"/>
				</defs>
				<clipPath id="SVGID_1_">
					<use xlink:href="#SVGID_2_"  style="overflow:visible;"/>
				</clipPath>
				
					<linearGradient id="SVGID_3_" gradientUnits="userSpaceOnUse" x1="25.4058" y1="1340.9058" x2="84.45" y2="1399.9501" gradientTransform="matrix(1 0 0 1 0 -1306)">
					<stop  offset="0" style="stop-color:#000000;stop-opacity:0.2"/>
					<stop  offset="1.385228e-002" style="stop-color:#110F07;stop-opacity:0.2027"/>
					<stop  offset="4.458252e-002" style="stop-color:#302B13;stop-opacity:0.2085"/>
					<stop  offset="7.939110e-002" style="stop-color:#4C431E;stop-opacity:0.2152"/>
					<stop  offset="0.1187" style="stop-color:#625627;stop-opacity:0.2227"/>
					<stop  offset="0.1646" style="stop-color:#73652E;stop-opacity:0.2315"/>
					<stop  offset="0.2214" style="stop-color:#7E6F33;stop-opacity:0.2424"/>
					<stop  offset="0.3011" style="stop-color:#857535;stop-opacity:0.2577"/>
					<stop  offset="0.5222" style="stop-color:#877736;stop-opacity:0.3"/>
					<stop  offset="1" style="stop-color:#877736"/>
				</linearGradient>
				<path style="clip-path:url(#SVGID_1_);fill:url(#SVGID_3_);" d="M112.2,60.2l-44-49c0,0-19.3,2.5-29.8,11.9
					c-10.6,9.4-27.3,18.8-28,63.3l53.1,28.5L112.2,60.2z"/>
			</g>
		</g>
	</g>
	<g>
		<path class="st20" d="M57,112.3c0,0,2.4,12.3,0,14s-7.9,3.5-7.9,3.5s3.8,0,5.2,0s-2.7,2.3-2.7,2.3s6.7-1,10-4
			c3.3-3-0.5-15.8-0.5-15.8H57z"/>
		<path class="st21" d="M62.4,117.8l-4.4,3.3l-0.7-6.1l3.5-0.9C60.9,114.1,62.1,115.5,62.4,117.8z"/>
		<path class="st22" d="M45.2,45.9c-0.7,3.1,0.2,7.1,6.4,10.6l63-16L104.1,27L51.4,41.7C48.4,42.4,45.9,42.8,45.2,45.9z"/>
		<path class="st23" d="M61.3,55.5l53.4-15l-8.4-10.7L46.6,48.6C46.6,48.6,50.2,55.8,61.3,55.5z"/>
		<polygon class="st24" points="52.8,112 58.7,117 119.7,100 115.7,38.7 52.8,57 		"/>
		<path class="st25" d="M61.3,54.5l2.4,61.5c0,0-10,4.8-16-6l-2.6-63.5l0,0c3.3,4.5,4.9,6.9,10.1,8.6l4.7-0.2"/>
		<g>
			<path class="st26" d="M54,50.2c0,0,0.4-0.2,0.9-0.5c0.6-0.2,1.3-0.5,2.1-0.6c0.8-0.2,1.6-0.2,2.2-0.2c0.6,0,1,0.1,1,0.1
				s-0.4,0.2-0.9,0.5c-0.6,0.2-1.3,0.5-2.1,0.6c-0.8,0.2-1.6,0.2-2.2,0.2C54.4,50.3,54,50.2,54,50.2z"/>
		</g>
		<path class="st20" d="M54.4,50c0,0,0-2.5,2.5-2.5s2.8,1.3,2.8,1.3L54.4,50z"/>
	</g>
</g>
</svg>
