<?xml version="1.0" encoding="utf-8"?>
<!-- Generator: Adobe Illustrator 19.2.1, SVG Export Plug-In . SVG Version: 6.00 Build 0)  -->
<svg version="1.1" id="Layer_1" xmlns="http://www.w3.org/2000/svg" xmlns:xlink="http://www.w3.org/1999/xlink" x="0px" y="0px"
	 viewBox="0 0 94.9 95.9" style="enable-background:new 0 0 94.9 95.9;" xml:space="preserve">
<style type="text/css">
	.st0{fill:#282828;}
	.st1{fill:#C6724B;}
	.st2{fill:#897937;}
	.st3{fill:url(#SVGID_1_);}
	.st4{fill:#1E1D1D;}
	.st5{fill:#141414;}
	.st6{fill:#F21C1C;}
	.st7{fill:#CEC4C4;}
	.st8{fill:#A09D9D;}
	.st9{fill:#C11B1B;}
	.st10{fill:#36492A;}
	.st11{fill:#2C3A22;}
	.st12{fill:#938135;}
	.st13{fill:#7F6D20;}
	.st14{fill:#AA953D;}
	.st15{fill:#BCAC68;}
	.st16{fill:#C6AF4B;}
	.st17{fill:#514512;}
	.st18{clip-path:url(#SVGID_3_);fill:url(#SVGID_4_);}
	.st19{fill:#ED2B2B;}
	.st20{fill:#CE2929;}
	.st21{fill:#647532;}
	.st22{fill:#CDEAB0;}
	.st23{fill:#7B933B;}
	.st24{fill:#A0C64B;}
	.st25{fill:#C9C3A9;}
	.st26{fill:#AD9945;}
	.st27{fill:#D6C47C;}
	.st28{fill:#FFFFFF;}
	.st29{fill:#D8D8CB;}
	.st30{fill:#A31717;}
	.st31{fill:#C15B5B;}
	.st32{fill:#4BC6AF;}
	.st33{fill:#493E12;}
	.st34{fill:#2F3F25;}
	.st35{fill:#28331F;}
</style>
<g>
	<polygon class="st0" points="-7.7,-169.7 -7.7,-154.5 -4.8,-154.5 -4.8,-167.9 	"/>
	<polygon class="st0" points="-13.5,-182.7 -9.3,-182.7 -15.6,-174.9 -10.9,-174.9 -17,-167.3 -5.1,-167.3 -5.1,-174.9 -5.1,-182.1 
		-5.1,-182.7 -5.1,-187.9 -5.1,-193.1 	"/>
	<polygon class="st0" points="-13.5,-182.7 -8,-184.1 -9.3,-182.7 	"/>
	<polygon class="st0" points="-2.4,-169.7 -2.4,-154.5 -5.2,-154.5 -5.2,-167.9 	"/>
	<polygon class="st0" points="-15.6,-174.9 -8.9,-177 -10.9,-174.9 	"/>
	<polygon class="st0" points="3.4,-182.7 -0.8,-182.7 5.5,-174.9 0.8,-174.9 6.9,-167.3 -5,-167.3 -5,-174.9 -5,-182.1 -5,-182.7 
		-5,-187.9 -5,-193.1 	"/>
	<polygon class="st0" points="3.4,-182.7 -2.1,-184.1 -0.8,-182.7 	"/>
	<polygon class="st0" points="5.5,-174.9 -1.2,-177 0.8,-174.9 	"/>
</g>
<g>
	<polygon class="st0" points="11.6,-172 11.6,-153.2 15.1,-153.2 15.1,-169.8 	"/>
	<polygon class="st0" points="4.4,-188 9.6,-188 1.9,-178.4 7.7,-178.4 0.1,-169.1 14.8,-169.1 14.8,-178.4 14.8,-187.2 14.8,-188 
		14.8,-194.4 14.8,-200.8 	"/>
	<polygon class="st0" points="4.4,-188 11.1,-189.8 9.6,-188 	"/>
	<polygon class="st0" points="18.1,-172 18.1,-153.2 14.6,-153.2 14.6,-169.8 	"/>
	<polygon class="st0" points="1.9,-178.4 10.1,-180.9 7.7,-178.4 	"/>
	<polygon class="st0" points="25.3,-188 20,-188 27.8,-178.4 22,-178.4 29.6,-169.1 14.8,-169.1 14.8,-178.4 14.8,-187.2 14.8,-188 
		14.8,-194.4 14.8,-200.8 	"/>
	<polygon class="st0" points="25.3,-188 18.5,-189.8 20,-188 	"/>
	<polygon class="st0" points="27.8,-178.4 19.5,-180.9 22,-178.4 	"/>
</g>
<rect x="-710.9" y="-231" class="st1" width="571.5" height="426"/>
<g>
	<circle class="st2" cx="-144.2" cy="-111.8" r="50.4"/>
	<linearGradient id="SVGID_1_" gradientUnits="userSpaceOnUse" x1="-110.2618" y1="-74.3381" x2="-144.6373" y2="-108.7136">
		<stop  offset="0" style="stop-color:#000000;stop-opacity:0"/>
		<stop  offset="0.3187" style="stop-color:#2C2618;stop-opacity:0.1848"/>
		<stop  offset="0.5172" style="stop-color:#423A25;stop-opacity:0.3"/>
		<stop  offset="0.595" style="stop-color:#534928;stop-opacity:0.4128"/>
		<stop  offset="0.7" style="stop-color:#62572A;stop-opacity:0.5649"/>
		<stop  offset="0.822" style="stop-color:#6B5F2C;stop-opacity:0.7419"/>
		<stop  offset="1" style="stop-color:#6E612C"/>
	</linearGradient>
	<path class="st3" d="M-131.5-125l-19.3,23.8l11,39.7c0,0,33.7,0,45-39.9L-131.5-125"/>
	<g>
		<polyline class="st4" points="-144.8,-126 -144.8,-74.5 -149.9,-76.3 -157.4,-88.8 -162.1,-90 -179.3,-105 -165.9,-119.5 
			-173.7,-146.5 -144.8,-126 		"/>
		<polygon class="st5" points="-147.4,-88.3 -144.8,-80.3 -144.8,-118.3 -152.6,-121.8 -166.3,-115.9 -175.2,-106 -168.1,-108 
			-159.4,-104.1 -148.2,-104.1 		"/>
		<polygon class="st6" points="-162.1,-111 -156.8,-111 -152.6,-107.6 -157.6,-106.5 		"/>
		<polygon class="st7" points="-179.3,-105 -150.8,-101.2 -149.9,-76.3 -157.4,-88.8 -162.1,-90 		"/>
		<polygon points="-149.9,-76.3 -149.9,-81.9 -144.8,-78.2 -144.8,-74.5 		"/>
		<path class="st7" d="M-162.8-111.9l6-1l7.5,6.3l1.1-1.8c0,0-5.5-7.6-8.6-7.6S-162.8-111.9-162.8-111.9z"/>
		<polygon class="st7" points="-164.6,-120.1 -156.2,-126.5 -172.3,-144 		"/>
		<polygon class="st5" points="-162.1,-121.8 -159.4,-124.1 -167.7,-135.8 		"/>
		<polygon class="st8" points="-179.3,-105 -162.1,-96.3 -157.3,-95.2 -149.9,-76.3 -157.4,-88.8 -162.1,-90 		"/>
		<polygon class="st9" points="-162.1,-111 -157.3,-108.8 -152.6,-107.6 -156.8,-111 		"/>
		<polygon class="st8" points="-162.8,-111.9 -157.3,-114.3 -149.3,-106.5 -156.8,-112.8 		"/>
		<polygon class="st8" points="-158.1,-125 -172.3,-144 -156.2,-126.5 		"/>
		<polyline class="st4" points="-144.8,-126 -144.8,-74.5 -139.8,-76.3 -132.3,-88.8 -127.6,-90 -110.4,-105 -123.8,-119.5 
			-116,-146.5 -144.8,-126 		"/>
		<polygon class="st5" points="-142.3,-88.3 -144.8,-80.3 -144.8,-118.3 -137.1,-121.8 -123.4,-115.9 -114.5,-106 -121.5,-108 
			-130.3,-104.1 -141.5,-104.1 		"/>
		<polygon class="st6" points="-127.6,-111 -132.9,-111 -137.1,-107.6 -132.1,-106.5 		"/>
		<polygon class="st7" points="-110.4,-105 -138.9,-101.2 -139.8,-76.3 -132.3,-88.8 -127.6,-90 		"/>
		<polygon points="-139.8,-76.3 -139.8,-81.9 -144.8,-78.2 -144.8,-74.5 		"/>
		<path class="st7" d="M-126.9-111.9l-6-1l-7.5,6.3l-1.1-1.8c0,0,5.5-7.6,8.6-7.6S-126.9-111.9-126.9-111.9z"/>
		<polygon class="st7" points="-125.1,-120.1 -133.5,-126.5 -117.4,-144 		"/>
		<polygon class="st5" points="-127.6,-121.8 -130.3,-124.1 -122,-135.8 		"/>
		<polygon class="st8" points="-110.4,-105 -127.6,-96.3 -132.4,-95.2 -139.8,-76.3 -132.3,-88.8 -127.6,-90 		"/>
		<polygon class="st9" points="-127.6,-111 -132.4,-108.8 -137.1,-107.6 -132.9,-111 		"/>
		<polygon class="st8" points="-126.9,-111.9 -132.4,-114.3 -140.4,-106.5 -132.9,-112.8 		"/>
		<polygon class="st8" points="-131.5,-125 -117.4,-144 -133.5,-126.5 		"/>
	</g>
</g>
<g>
	<path class="st10" d="M14.9,76C-1.2,60-1.2,33.9,14.9,17.8s42.2-16.1,58.2,0L14.9,76z"/>
	<path class="st11" d="M14.9,76C31,92.1,57,92.1,73.1,76s16.1-42.2,0-58.2L14.9,76z"/>
	<polygon class="st0" points="66.9,38.9 74.7,11.9 45.9,32.4 17,11.9 24.8,38.9 11.4,53.4 28.6,68.4 33.3,69.7 40.8,82.2 45.9,83.9 
		45.9,83.9 45.9,83.9 45.9,83.9 45.9,83.9 50.9,82.2 58.4,69.7 63.1,68.4 80.3,53.4 	"/>
	<g>
		<polygon class="st12" points="65.1,37.9 72.8,10.9 44,31.4 15.2,10.9 22.9,37.9 9.6,52.4 26.8,67.4 31.4,68.7 38.9,81.2 44,82.9 
			44,82.9 44,82.9 44,82.9 44,82.9 49.1,81.2 56.6,68.7 61.2,67.4 78.4,52.4 		"/>
		<polygon class="st2" points="65.4,41.6 51.7,35.7 44,39.1 36.3,35.7 22.6,41.6 13.7,51.4 20.7,49.5 29.5,53.3 40.7,53.3 
			41.5,69.2 44,77.2 44,77.2 44,77.2 44,77.2 44,77.2 46.5,69.2 47.3,53.3 58.5,53.3 67.3,49.5 74.3,51.4 		"/>
		<polygon class="st13" points="26.8,46.4 32,46.4 36.3,49.8 31.3,50.9 		"/>
		<polygon class="st14" points="9.6,52.4 38,56.3 38.9,81.2 31.4,68.7 26.8,67.4 		"/>
		<path class="st15" d="M26.1,45.6l6-1l7.5,6.3l1.1-1.8c0,0-5.5-7.6-8.6-7.6S26.1,45.6,26.1,45.6z"/>
		<polygon class="st14" points="24.2,37.3 32.7,30.9 16.6,13.4 		"/>
		<polygon class="st2" points="26.7,35.7 29.5,33.4 21.2,21.7 		"/>
		<polygon class="st16" points="9.6,52.4 26.8,61.1 31.5,62.3 38.9,81.2 31.4,68.7 26.8,67.4 		"/>
		<polygon class="st17" points="26.8,46.4 31.5,48.7 36.3,49.8 32,46.4 		"/>
		<polygon class="st14" points="26.1,45.6 31.5,43.1 39.6,50.9 32,44.6 		"/>
		<polygon class="st16" points="30.7,32.4 16.6,13.4 32.7,30.9 		"/>
		<polygon class="st13" points="61.2,46.4 56,46.4 51.7,49.8 56.7,50.9 		"/>
		<polygon class="st14" points="78.4,52.4 50,56.3 49.1,81.2 56.6,68.7 61.2,67.4 		"/>
		<polygon class="st17" points="49.1,75.5 44,79.2 38.9,75.5 38.9,81.2 44,82.9 44,82.9 44,82.9 44,82.9 44,82.9 49.1,81.2 		"/>
		<path class="st15" d="M61.9,45.6l-6-1l-7.5,6.3l-1.1-1.8c0,0,5.5-7.6,8.6-7.6C59.1,41.6,61.9,45.6,61.9,45.6z"/>
		<polygon class="st14" points="63.7,37.3 55.3,30.9 71.4,13.4 		"/>
		<polygon class="st2" points="61.2,35.7 58.5,33.4 66.8,21.7 		"/>
		<polygon class="st16" points="78.4,52.4 61.2,61.1 56.5,62.3 49.1,81.2 56.6,68.7 61.2,67.4 		"/>
		<polygon class="st17" points="61.2,46.4 56.5,48.7 51.7,49.8 56,46.4 		"/>
		<polygon class="st14" points="61.9,45.6 56.5,43.1 48.4,50.9 55.9,44.6 		"/>
		<polygon class="st16" points="57.3,32.4 71.4,13.4 55.3,30.9 		"/>
	</g>
</g>
<g>
	<circle class="st16" cx="-588.7" cy="28.9" r="67"/>
	<g>
		<defs>
			<circle id="SVGID_2_" cx="-588.7" cy="28.9" r="67"/>
		</defs>
		<clipPath id="SVGID_3_">
			<use xlink:href="#SVGID_2_"  style="overflow:visible;"/>
		</clipPath>
		<linearGradient id="SVGID_4_" gradientUnits="userSpaceOnUse" x1="-644.7709" y1="-16.5471" x2="-585.7277" y2="42.496">
			<stop  offset="0" style="stop-color:#000000;stop-opacity:0.2"/>
			<stop  offset="1.385228e-002" style="stop-color:#110F07;stop-opacity:0.2027"/>
			<stop  offset="4.458252e-002" style="stop-color:#302B13;stop-opacity:0.2085"/>
			<stop  offset="7.939110e-002" style="stop-color:#4C431E;stop-opacity:0.2152"/>
			<stop  offset="0.1187" style="stop-color:#625627;stop-opacity:0.2227"/>
			<stop  offset="0.1646" style="stop-color:#73652E;stop-opacity:0.2315"/>
			<stop  offset="0.2214" style="stop-color:#7E6F33;stop-opacity:0.2424"/>
			<stop  offset="0.3011" style="stop-color:#857535;stop-opacity:0.2577"/>
			<stop  offset="0.5222" style="stop-color:#877736;stop-opacity:0.3"/>
			<stop  offset="1" style="stop-color:#877736"/>
		</linearGradient>
		<path class="st18" d="M-552.8,7.1l-50.1-46.5c0,0-19.3,2.5-29.8,11.9c-10.6,9.4-27.3,18.8-28,63.3l53.1,28.5L-552.8,7.1z"/>
	</g>
	<g>
		<path class="st19" d="M-614,61.6c0,0,2.4,12.3,0,14s-7.9,3.5-7.9,3.5s3.8,0,5.2,0s-2.7,2.3-2.7,2.3s6.7-1,10-4s-0.5-15.8-0.5-15.8
			H-614z"/>
		<path class="st20" d="M-608.6,67.2l-4.4,3.3l-0.7-6.1l3.5-0.9C-610.1,63.5-608.9,64.8-608.6,67.2z"/>
		<path class="st21" d="M-625.8-4.7c-0.7,3.1,0.2,7.1,6.4,10.6l63-16l-10.5-13.5l-52.7,14.7C-622.6-8.2-625.1-7.8-625.8-4.7z"/>
		<path class="st22" d="M-609.7,4.9l53.4-15l-8.4-10.7l-59.7,18.8C-624.4-2.1-620.8,5.1-609.7,4.9z"/>
		<polygon class="st23" points="-618.3,61.4 -612.4,66.4 -551.4,49.4 -555.4,-12 -618.3,6.4 		"/>
		<path class="st24" d="M-609.7,3.9l2.4,61.5c0,0-10,4.8-16-6l-2.6-63.5v0c3.3,4.5,4.9,6.9,10.1,8.6l4.7-0.2"/>
		<g>
			<path class="st25" d="M-617-0.4c0,0,0.4-0.2,0.9-0.5c0.6-0.2,1.3-0.5,2.1-0.6c0.8-0.2,1.6-0.2,2.2-0.2c0.6,0,1,0.1,1,0.1
				s-0.4,0.2-0.9,0.5c-0.6,0.2-1.3,0.5-2.1,0.6c-0.8,0.2-1.6,0.2-2.2,0.2C-616.6-0.4-617-0.4-617-0.4z"/>
		</g>
		<path class="st19" d="M-616.6-0.6c0,0,0-2.5,2.5-2.5s2.8,1.3,2.8,1.3L-616.6-0.6z"/>
	</g>
</g>
<g>
	<path class="st11" d="M-507.5-195.9c18.6,18.6,18.6,48.7,0,67.3c-18.6,18.6-48.7,18.6-67.3,0L-507.5-195.9z"/>
	<path class="st10" d="M-574.7-128.5c-18.6-18.6-18.6-48.7,0-67.3s48.7-18.6,67.3,0L-574.7-128.5z"/>
	<g>
		<path class="st0" d="M-566.6-179.5c-0.5,2.2,0.1,5.1,4.6,7.5l44.7-11.4l-7.5-9.6l-37.4,10.4C-564.3-182-566.1-181.7-566.6-179.5z"
			/>
		<path class="st0" d="M-555.1-172.7l37.9-10.6l-5.9-7.6l-42.4,13.3C-565.6-177.6-563-172.5-555.1-172.7z"/>
		<polygon class="st0" points="-561.2,-132.6 -557,-129 -513.7,-141.1 -516.6,-184.6 -561.2,-171.6 		"/>
		<path class="st0" d="M-555.1-173.4l1.7,43.7c0,0-7.1,3.4-11.4-4.3l-1.8-45.1l0,0c2.3,3.2,3.5,4.9,7.2,6.1l3.3-0.2"/>
	</g>
	<g>
		<path class="st26" d="M-567.5-180.8c-0.5,2.2,0.1,5.1,4.6,7.5l44.7-11.4l-7.5-9.6l-37.4,10.4C-565.2-183.2-567-183-567.5-180.8z"
			/>
		<path class="st27" d="M-556.1-174l37.9-10.6l-5.9-7.6l-42.4,13.3C-566.5-178.9-564-173.8-556.1-174z"/>
		<polygon class="st2" points="-562.1,-133.9 -558,-130.3 -514.6,-142.4 -517.5,-185.9 -562.1,-172.9 		"/>
		<path class="st16" d="M-556.1-174.7l1.7,43.7c0,0-7.1,3.4-11.4-4.3l-1.8-45.1v0c2.3,3.2,3.5,4.9,7.2,6.1l3.3-0.2"/>
	</g>
</g>
<g>
	<g>
		<path class="st4" d="M-445.4,77.7c-21.5-21.5-21.5-56.3,0-77.8c21.5-21.5,56.3-21.5,77.8,0L-445.4,77.7z"/>
		<path class="st5" d="M-445.4,77.8c21.5,21.5,56.3,21.5,77.8,0c21.5-21.5,21.5-56.3,0-77.8L-445.4,77.8z"/>
	</g>
	<g>
		<path class="st0" d="M-439.9,10.2c0,0-14.8,40.8,5.1,57.4c0,0-4.3-48.1,9.7-48.6l5.7,7.6l6.3-6.2l7,7.5l0.9-9.8
			c0.2-2.5-1.6-4.6-4-4.9L-439.9,10.2z"/>
		<path class="st0" d="M-434.8,67.6c0,0-8.2-31.5-3-42.2c5.2-10.7,12.7-6.3,12.7-6.3s-2.9,0.2-6.9,6.4
			C-436.8,32.9-434.8,67.6-434.8,67.6z"/>
		<polygon class="st0" points="-419.4,26.6 -413.4,18.1 -413.1,20.4 		"/>
		<path class="st0" d="M-372.3,10.2c0,0,14.8,40.8-5.1,57.4c0,0,4.3-48.1-9.7-48.6l-5.7,7.6l-6.3-6.2l-7,7.5l1.2-12.3
			c0.1-1.2,1-2.1,2.2-2.2L-372.3,10.2z"/>
		<path class="st0" d="M-377.4,67.6c0,0,8.2-31.5,3-42.2c-5.2-10.7-12.7-6.3-12.7-6.3s2.9,0.2,6.9,6.4
			C-375.4,32.9-377.4,67.6-377.4,67.6z"/>
		<polygon class="st0" points="-392.8,26.6 -398.8,18.1 -399.1,20.4 		"/>
		<path class="st0" d="M-419.4,12.2c0,0,19,2.3,26.6,0.2V17h-25.6L-419.4,12.2z"/>
	</g>
	<g>
		<path class="st28" d="M-442.3,10.2c0,0-14.8,40.8,5.1,57.4c0,0-4.3-48.1,9.7-48.6l5.7,7.6l6.3-6.2l7,7.5l0.9-9.8
			c0.2-2.5-1.6-4.6-4-4.9L-442.3,10.2z"/>
		<path class="st29" d="M-437.1,67.6c0,0-8.2-31.5-3-42.2s12.7-6.3,12.7-6.3s-2.9,0.2-6.9,6.4C-439.2,32.9-437.1,67.6-437.1,67.6z"
			/>
		<polygon class="st29" points="-421.8,26.6 -415.8,18.1 -415.5,20.4 		"/>
		<path class="st28" d="M-374.7,10.2c0,0,14.8,40.8-5.1,57.4c0,0,4.3-48.1-9.7-48.6l-5.7,7.6l-6.3-6.2l-7,7.5l1.2-12.3
			c0.1-1.2,1-2.1,2.2-2.2L-374.7,10.2z"/>
		<path class="st29" d="M-379.8,67.6c0,0,8.2-31.5,3-42.2s-12.7-6.3-12.7-6.3s2.9,0.2,6.9,6.4C-377.8,32.9-379.8,67.6-379.8,67.6z"
			/>
		<polygon class="st29" points="-395.2,26.6 -401.1,18.1 -401.5,20.4 		"/>
		<path class="st28" d="M-421.8,12.2c0,0,19,2.3,26.6,0.2V17h-25.6L-421.8,12.2z"/>
	</g>
	<g>
		<path class="st30" d="M-397.1,37.4c0.7,3,1.7,5.9,3.3,8.6c1.8,3,1.4,6.6-0.5,8.3c-1.9,1.7-5.4,1.9-7.4,0.1c-2.2-1.9-2.5-5.9-0.1-9
			c1-1.3,1.9-2.7,2.7-4.2L-397.1,37.4L-397.1,37.4z"/>
		
			<ellipse transform="matrix(0.1724 -0.985 0.985 0.1724 -378.1046 -348.7622)" class="st31" cx="-396.6" cy="50.6" rx="4.3" ry="2.5"/>
	</g>
</g>
<rect x="-204.6" y="145.5" class="st24" width="20.2" height="157.5"/>
<rect x="-618.7" y="224.2" class="st32" width="141.4" height="70.7"/>
<g>
	<polygon class="st17" points="-9.2,-169.4 -9.2,-154.3 -6.3,-154.3 -6.3,-167.6 	"/>
	<polygon class="st10" points="-14.9,-182.2 -10.7,-182.2 -17,-174.5 -12.3,-174.5 -18.4,-167 -6.5,-167 -6.5,-174.5 -6.5,-181.6 
		-6.5,-182.2 -6.5,-187.4 -6.5,-192.6 	"/>
	<polygon class="st11" points="-14.9,-182.2 -9.5,-183.7 -10.7,-182.2 	"/>
	<polygon class="st33" points="-3.9,-169.4 -3.9,-154.3 -6.7,-154.3 -6.7,-167.6 	"/>
	<polygon class="st11" points="-17,-174.5 -10.3,-176.6 -12.3,-174.5 	"/>
	<polygon class="st34" points="1.9,-182.2 -2.3,-182.2 3.9,-174.5 -0.8,-174.5 5.3,-167 -6.5,-167 -6.5,-174.5 -6.5,-181.6 
		-6.5,-182.2 -6.5,-187.4 -6.5,-192.6 	"/>
	<polygon class="st35" points="1.9,-182.2 -3.6,-183.7 -2.3,-182.2 	"/>
	<polygon class="st35" points="3.9,-174.5 -2.7,-176.6 -0.8,-174.5 	"/>
</g>
<g>
	<polygon class="st17" points="9.7,-172 9.7,-153.2 13.2,-153.2 13.2,-169.8 	"/>
	<polygon class="st10" points="2.6,-188 7.8,-188 0,-178.4 5.8,-178.4 -1.8,-169.1 13,-169.1 13,-178.4 13,-187.2 13,-188 
		13,-194.4 13,-200.8 	"/>
	<polygon class="st11" points="2.6,-188 9.3,-189.8 7.8,-188 	"/>
	<polygon class="st33" points="16.2,-172 16.2,-153.2 12.7,-153.2 12.7,-169.8 	"/>
	<polygon class="st11" points="0,-178.4 8.3,-180.9 5.8,-178.4 	"/>
	<polygon class="st34" points="23.4,-188 18.2,-188 26,-178.4 20.1,-178.4 27.7,-169.1 13,-169.1 13,-178.4 13,-187.2 13,-188 
		13,-194.4 13,-200.8 	"/>
	<polygon class="st35" points="23.4,-188 16.7,-189.8 18.2,-188 	"/>
	<polygon class="st35" points="26,-178.4 17.7,-180.9 20.1,-178.4 	"/>
</g>
<g>
	<polygon class="st0" points="7.9,-156.2 7.9,-137.5 11.4,-137.5 11.4,-154 	"/>
	<polygon class="st0" points="0.7,-172.2 5.9,-172.2 -1.8,-162.7 4,-162.7 -3.6,-153.3 11.1,-153.3 11.1,-162.7 11.1,-171.4 
		11.1,-172.2 11.1,-178.6 11.1,-185 	"/>
	<polygon class="st0" points="0.7,-172.2 7.5,-174 5.9,-172.2 	"/>
	<polygon class="st0" points="14.4,-156.2 14.4,-137.5 10.9,-137.5 10.9,-154 	"/>
	<polygon class="st0" points="-1.8,-162.7 6.4,-165.2 4,-162.7 	"/>
	<polygon class="st0" points="21.6,-172.2 16.4,-172.2 24.1,-162.7 18.3,-162.7 25.9,-153.3 11.1,-153.3 11.1,-162.7 11.1,-171.4 
		11.1,-172.2 11.1,-178.6 11.1,-185 	"/>
	<polygon class="st0" points="21.6,-172.2 14.8,-174 16.4,-172.2 	"/>
	<polygon class="st0" points="24.1,-162.7 15.9,-165.2 18.3,-162.7 	"/>
</g>
<g>
	<polygon class="st17" points="6,-156.2 6,-137.5 9.5,-137.5 9.5,-154 	"/>
	<polygon class="st10" points="-1.1,-172.2 4.1,-172.2 -3.7,-162.6 2.1,-162.6 -5.5,-153.3 9.3,-153.3 9.3,-162.6 9.3,-171.4 
		9.3,-172.2 9.3,-178.6 9.3,-185 	"/>
	<polygon class="st11" points="-1.1,-172.2 5.6,-174 4.1,-172.2 	"/>
	<polygon class="st33" points="12.5,-156.2 12.5,-137.5 9,-137.5 9,-154 	"/>
	<polygon class="st11" points="-3.7,-162.6 4.6,-165.1 2.1,-162.6 	"/>
	<polygon class="st34" points="19.7,-172.2 14.5,-172.2 22.3,-162.6 16.4,-162.6 24,-153.3 9.3,-153.3 9.3,-162.6 9.3,-171.4 
		9.3,-172.2 9.3,-178.6 9.3,-185 	"/>
	<polygon class="st35" points="19.7,-172.2 13,-174 14.5,-172.2 	"/>
	<polygon class="st35" points="22.3,-162.6 14,-165.1 16.4,-162.6 	"/>
</g>
</svg>
