<?xml version="1.0" encoding="utf-8"?>
<!-- Generator: Adobe Illustrator 19.2.1, SVG Export Plug-In . SVG Version: 6.00 Build 0)  -->
<svg version="1.1" id="Layer_1" xmlns="http://www.w3.org/2000/svg" xmlns:xlink="http://www.w3.org/1999/xlink" x="0px" y="0px"
	 viewBox="0 0 94.9 95.9" style="enable-background:new 0 0 94.9 95.9;" xml:space="preserve">
<style type="text/css">
	.st0{fill:#282828;}
	.st1{fill:#C6724B;}
	.st2{fill:#897937;}
	.st3{fill:url(#SVGID_1_);}
	.st4{fill:#1E1D1D;}
	.st5{fill:#141414;}
	.st6{fill:#F21C1C;}
	.st7{fill:#CEC4C4;}
	.st8{fill:#A09D9D;}
	.st9{fill:#C11B1B;}
	.st10{fill:#36492A;}
	.st11{fill:#2C3A22;}
	.st12{fill:#938135;}
	.st13{fill:#7F6D20;}
	.st14{fill:#AA953D;}
	.st15{fill:#BCAC68;}
	.st16{fill:#C6AF4B;}
	.st17{fill:#514512;}
	.st18{clip-path:url(#SVGID_3_);fill:url(#SVGID_4_);}
	.st19{fill:#ED2B2B;}
	.st20{fill:#CE2929;}
	.st21{fill:#647532;}
	.st22{fill:#CDEAB0;}
	.st23{fill:#7B933B;}
	.st24{fill:#A0C64B;}
	.st25{fill:#C9C3A9;}
	.st26{fill:#AD9945;}
	.st27{fill:#D6C47C;}
	.st28{fill:#FFFFFF;}
	.st29{fill:#D8D8CB;}
	.st30{fill:#A31717;}
	.st31{fill:#C15B5B;}
	.st32{fill:#4BC6AF;}
	.st33{fill:#493E12;}
	.st34{fill:#2F3F25;}
	.st35{fill:#28331F;}
	.st36{fill:url(#SVGID_5_);}
	.st37{fill:#AF6146;}
	.st38{fill:#93493B;}
	.st39{fill:url(#SVGID_6_);}
	.st40{fill:#565555;}
	.st41{fill:#4C4C4C;}
	.st42{fill:url(#SVGID_7_);}
	.st43{fill:#565454;}
	.st44{opacity:0.92;fill:#DDC04A;}
	.st45{fill:#B7B2B2;}
</style>
<g>
	<g>
		<path class="st24" d="M16.7,21.3c-16.1,16.1-16.1,42.2,0,58.2l58.2-58.2C58.8,5.2,32.8,5.2,16.7,21.3z"/>
		<path class="st24" d="M74.9,21.3L16.7,79.6c16.1,16.1,42.2,16.1,58.2,0C91,63.5,91,37.4,74.9,21.3z"/>
		<g>
			<path class="st24" d="M4.6,50.4c0,22.7,18.4,41.2,41.2,41.2V9.3C23.1,9.3,4.6,27.7,4.6,50.4z"/>
			<path class="st24" d="M45.8,9.3v82.4C68.6,91.6,87,73.2,87,50.4C87,27.7,68.6,9.3,45.8,9.3z"/>
		</g>
	</g>
	<linearGradient id="SVGID_1_" gradientUnits="userSpaceOnUse" x1="73.9496" y1="80.551" x2="38.9009" y2="45.5023">
		<stop  offset="0" style="stop-color:#000000;stop-opacity:0"/>
		<stop  offset="0.3187" style="stop-color:#2C2618;stop-opacity:0.1848"/>
		<stop  offset="0.5172" style="stop-color:#423A25;stop-opacity:0.3"/>
		<stop  offset="0.5238" style="stop-color:#453E26;stop-opacity:0.3096"/>
		<stop  offset="0.5828" style="stop-color:#5D6030;stop-opacity:0.3951"/>
		<stop  offset="0.6459" style="stop-color:#707C39;stop-opacity:0.4865"/>
		<stop  offset="0.7136" style="stop-color:#7F923F;stop-opacity:0.5847"/>
		<stop  offset="0.788" style="stop-color:#8AA144;stop-opacity:0.6925"/>
		<stop  offset="0.8742" style="stop-color:#90AA46;stop-opacity:0.8176"/>
		<stop  offset="1" style="stop-color:#92AD47"/>
	</linearGradient>
	<path class="st3" d="M52.3,28.8L33,52.7l10.8,38.9c0,0,38.3,1.8,43.1-39.2L52.3,28.8"/>
	<g>
		<g>
			<polygon class="st1" points="16.1,44.1 18.2,61.6 32.2,71 37,74 44.8,75.7 44.8,25.2 25.9,25.2 			"/>
			<polygon class="st1" points="63.7,25.2 44.5,25.2 44.5,74.5 53.9,73.2 57.3,71 71.5,61.6 73.6,44.1 			"/>
		</g>
		<polygon class="st37" points="11.2,27.5 15,24.3 27.1,24.3 29.9,27.5 20.5,42.8 		"/>
		<polygon class="st38" points="28.7,47.7 38.9,47.8 33.8,40.1 		"/>
		<polygon class="st37" points="18.4,61.6 26.2,60.6 32.2,71 		"/>
		<polygon class="st37" points="25.5,52.4 33.8,55.6 38.9,54 33.8,58.8 		"/>
		<path class="st37" d="M56.9,71.7c0-4-5.4-7.2-12-7.2s-12,3.2-12,7.2l3,5.2l1,0.8h15.9l1.2-0.9L56.9,71.7z"/>
		<polygon class="st38" points="29.9,27.5 19.3,40.8 20.5,42.8 		"/>
		<path class="st38" d="M38,70.8c0,0-0.4-2.5,2.1-3.3c2.5-0.8,2.7,3.3,2.7,3.3H38z"/>
		<polygon class="st37" points="80.4,27.5 76.6,24.3 64.5,24.3 61.8,27.5 71.1,42.8 		"/>
		<polygon class="st38" points="61.1,47.7 50.8,47.8 55.9,40.1 		"/>
		<polygon class="st37" points="71.3,61.6 63.6,60.6 57.5,71 		"/>
		<g>
			<polygon class="st37" points="44.8,59.4 44.8,56.7 36.3,59.4 			"/>
			<polygon class="st37" points="44.9,56.7 44.9,59.4 53.4,59.4 			"/>
		</g>
		<polygon class="st37" points="64.2,52.4 55.9,55.6 50.8,54 55.9,58.8 		"/>
		<polygon class="st38" points="61.8,27.5 72.3,40.8 71.1,42.8 		"/>
		<path class="st38" d="M51.7,70.8c0,0,0.4-2.5-2.1-3.3c-2.5-0.8-2.7,3.3-2.7,3.3H51.7z"/>
		<g>
			<polygon class="st37" points="44.8,63.3 44.8,60.6 37.1,63.3 			"/>
			<polygon class="st37" points="44.8,60.6 44.8,63.3 52.5,63.3 			"/>
		</g>
	</g>
</g>
</svg>
