<?xml version="1.0" encoding="utf-8"?>
<!-- Generator: Adobe Illustrator 19.2.1, SVG Export Plug-In . SVG Version: 6.00 Build 0)  -->
<svg version="1.1" id="Layer_1" xmlns="http://www.w3.org/2000/svg" xmlns:xlink="http://www.w3.org/1999/xlink" x="0px" y="0px"
	 viewBox="0 0 28 28" style="enable-background:new 0 0 28 28;" xml:space="preserve">
<style type="text/css">
	.st0{fill:#28331F;}
	.st1{fill:#282828;}
	.st2{fill:#C6724B;}
	.st3{fill:#897937;}
	.st4{fill:url(#SVGID_1_);}
	.st5{fill:#1E1D1D;}
	.st6{fill:#141414;}
	.st7{fill:#F21C1C;}
	.st8{fill:#CEC4C4;}
	.st9{fill:#A09D9D;}
	.st10{fill:#C11B1B;}
	.st11{fill:#36492A;}
	.st12{fill:#2C3A22;}
	.st13{fill:#938135;}
	.st14{fill:#7F6D20;}
	.st15{fill:#AA953D;}
	.st16{fill:#BCAC68;}
	.st17{fill:#C6AF4B;}
	.st18{fill:#514512;}
	.st19{clip-path:url(#SVGID_3_);fill:url(#SVGID_4_);}
	.st20{fill:#ED2B2B;}
	.st21{fill:#CE2929;}
	.st22{fill:#647532;}
	.st23{fill:#CDEAB0;}
	.st24{fill:#7B933B;}
	.st25{fill:#A0C64B;}
	.st26{fill:#C9C3A9;}
	.st27{fill:#AD9945;}
	.st28{fill:#D6C47C;}
	.st29{fill:#7F7136;}
	.st30{fill:#FFFFFF;}
	.st31{fill:#D8D8CB;}
	.st32{fill:#A31717;}
	.st33{fill:#C15B5B;}
	.st34{fill:#4BC6AF;}
	.st35{fill:#493E12;}
	.st36{fill:#2F3F25;}
	.st37{fill:url(#SVGID_5_);}
	.st38{fill:#AF6146;}
	.st39{fill:#93493B;}
	.st40{fill:url(#SVGID_6_);}
	.st41{fill:#565555;}
	.st42{fill:#4C4C4C;}
	.st43{fill:url(#SVGID_7_);}
	.st44{fill:#565454;}
	.st45{opacity:0.92;fill:#DDC04A;enable-background:new    ;}
	.st46{fill:#B7B2B2;}
</style>
<g>
	<path class="st12" d="M23.8,4.1c5.5,5.5,5.5,14.3,0,19.8S9.5,29.4,4,23.9L23.8,4.1z"/>
	<path class="st11" d="M4.1,23.9c-5.5-5.5-5.5-14.3,0-19.8s14.3-5.5,19.8,0L4.1,23.9z"/>
</g>
<g>
	<g>
		<g>
			<path class="st1" d="M9.1,24.6l1-6.6h-3v-2h3.3l0.7-4.8H8v-2h3.5l1-6.4h2.1l-0.9,6.4h3.8l1-6.4h2.2l-0.9,6.4h3v2h-3.3L18.8,16
				h3.1v2h-3.5l-1,6.6h-2.2l1-6.6h-3.8l-1,6.6H9.1z M16.4,16l0.7-4.8h-3.8L12.6,16H16.4z"/>
		</g>
		<g>
			<path class="st1" d="M8.3,24.6l1-6.6h-3v-2h3.3l0.7-4.8H7.2v-2h3.5l1-6.4h2.1l-0.9,6.4h3.8l1-6.4h2.2L19,9.2h3v2h-3.3L18,16h3.1
				v2h-3.5l-1,6.6h-2.2l1-6.6h-3.8l-1,6.6H8.3z M15.6,16.1l0.7-4.8h-3.8l-0.7,4.8H15.6z"/>
		</g>
	</g>
	<g>
		<g>
			<path class="st3" d="M8.2,25l1-6.6h-3v-2h3.3l0.7-4.8H7.1v-2h3.5l1-6.4h2.1l-0.9,6.4h3.8l1-6.4h2.2l-0.9,6.4h3v2h-3.3l-0.7,4.8
				H21v2h-3.5l-1,6.6h-2.2l1-6.6h-3.8l-1,6.6H8.2z M15.5,16.5l0.7-4.8h-3.8l-0.7,4.8H15.5z"/>
		</g>
		<g>
			<path class="st17" d="M7.3,25.1l1-6.6h-3v-2h3.3l0.7-4.8H6.2v-2h3.5l1-6.4h2.1l-0.9,6.4h3.8l1-6.4h2.2L18,9.7h3v2h-3.3L17,16.5
				h3.1v2h-3.5l-1,6.6h-2.2l1-6.6h-3.8l-1,6.6H7.3z M14.6,16.6l0.7-4.8h-3.8l-0.7,4.8H14.6z"/>
		</g>
	</g>
</g>
</svg>
