<?xml version="1.0" encoding="utf-8"?>
<!-- Generator: Adobe Illustrator 19.2.1, SVG Export Plug-In . SVG Version: 6.00 Build 0)  -->
<svg version="1.1" id="Layer_1" xmlns="http://www.w3.org/2000/svg" xmlns:xlink="http://www.w3.org/1999/xlink" x="0px" y="0px"
	 viewBox="0 0 94.9 95.9" style="enable-background:new 0 0 94.9 95.9;" xml:space="preserve">
<style type="text/css">
	.st0{fill:#282828;}
	.st1{fill:#C6724B;}
	.st2{fill:#897937;}
	.st3{fill:url(#SVGID_1_);}
	.st4{fill:#1E1D1D;}
	.st5{fill:#141414;}
	.st6{fill:#F21C1C;}
	.st7{fill:#CEC4C4;}
	.st8{fill:#A09D9D;}
	.st9{fill:#C11B1B;}
	.st10{fill:#36492A;}
	.st11{fill:#2C3A22;}
	.st12{fill:#938135;}
	.st13{fill:#7F6D20;}
	.st14{fill:#AA953D;}
	.st15{fill:#BCAC68;}
	.st16{fill:#C6AF4B;}
	.st17{fill:#514512;}
	.st18{clip-path:url(#SVGID_3_);fill:url(#SVGID_4_);}
	.st19{fill:#ED2B2B;}
	.st20{fill:#CE2929;}
	.st21{fill:#647532;}
	.st22{fill:#CDEAB0;}
	.st23{fill:#7B933B;}
	.st24{fill:#A0C64B;}
	.st25{fill:#C9C3A9;}
	.st26{fill:#AD9945;}
	.st27{fill:#D6C47C;}
	.st28{fill:#FFFFFF;}
	.st29{fill:#D8D8CB;}
	.st30{fill:#A31717;}
	.st31{fill:#C15B5B;}
	.st32{fill:#4BC6AF;}
	.st33{fill:#493E12;}
	.st34{fill:#2F3F25;}
	.st35{fill:#28331F;}
	.st36{fill:url(#SVGID_5_);}
	.st37{fill:#AF6146;}
	.st38{fill:#93493B;}
	.st39{fill:url(#SVGID_6_);}
	.st40{fill:#565555;}
	.st41{fill:#4C4C4C;}
	.st42{fill:url(#SVGID_7_);}
	.st43{fill:#565454;}
	.st44{opacity:0.92;fill:#DDC04A;}
	.st45{fill:#B7B2B2;}
</style>
<g>
	<g>
		<path class="st24" d="M16.1,19.9C0,36,0,62,16.1,78.1l58.2-58.2C58.2,3.8,32.2,3.8,16.1,19.9z"/>
		<path class="st24" d="M74.3,19.9L16.1,78.1c16.1,16.1,42.2,16.1,58.2,0C90.4,62,90.4,36,74.3,19.9z"/>
		<g>
			<path class="st24" d="M4,49c0,22.7,18.4,41.2,41.2,41.2l0-82.4C22.4,7.8,4,26.3,4,49z"/>
			<path class="st24" d="M45.2,7.8l0,82.4c22.7,0,41.2-18.4,41.2-41.2C86.4,26.3,67.9,7.8,45.2,7.8z"/>
		</g>
	</g>
	<linearGradient id="SVGID_1_" gradientUnits="userSpaceOnUse" x1="73.5165" y1="79.1607" x2="38.353" y2="43.9973">
		<stop  offset="0" style="stop-color:#000000;stop-opacity:0"/>
		<stop  offset="0.3187" style="stop-color:#2C2618;stop-opacity:0.1848"/>
		<stop  offset="0.5172" style="stop-color:#423A25;stop-opacity:0.3"/>
		<stop  offset="0.5238" style="stop-color:#453E26;stop-opacity:0.3096"/>
		<stop  offset="0.5828" style="stop-color:#5D6030;stop-opacity:0.3951"/>
		<stop  offset="0.6459" style="stop-color:#707C39;stop-opacity:0.4865"/>
		<stop  offset="0.7136" style="stop-color:#7F923F;stop-opacity:0.5847"/>
		<stop  offset="0.788" style="stop-color:#8AA144;stop-opacity:0.6925"/>
		<stop  offset="0.8742" style="stop-color:#90AA46;stop-opacity:0.8176"/>
		<stop  offset="1" style="stop-color:#92AD47"/>
	</linearGradient>
	<path class="st3" d="M51.7,27.4L32.4,51.2l10.8,38.9c0,0,38.5,2.3,43.1-39.5L51.7,27.4"/>
</g>
<g>
	<path class="st40" d="M70.6,26.5l-24.3-7.5l-24.3,7.5l-7.3,14v26l6.1,6.3c4.5,4.6,10.6,7.2,17,7.2h8.6h13.1c3.5,0,6.9-1.4,9.4-3.9
		l9.2-9.5v-26L70.6,26.5z"/>
	<path class="st8" d="M30.4,53.3c-1.8-1.3-3.8,2.2-2.1,3.3s17.9,13.6,17.9,13.6V56.5"/>
	<path class="st7" d="M70.6,34.7c-1.7-2.2-4.3-3.4-7.1-3.4H51.1h-4.9h-4.9H31.1c-4.2,0-8.1,1.9-10.7,5.2l-2.2,2.8v22.4l5.7,6.7
		c3.1,3.6,7.5,5.9,12.3,6.3l10,0.8l12.2-1c3.3-0.3,6.4-1.8,8.5-4.4l7.2-8.4V39.2L70.6,34.7z"/>
	<path class="st8" d="M34.6,37.7c0,0-12.8,1.3-13.8,6.8s2,7.8,2,7.8s4.2-5.3,7.6-4.5s6.9,1.5,8.4,0.3S43,37.7,34.6,37.7z"/>
	<polygon class="st41" points="34.6,40.7 30.4,44.9 37.6,44.9 	"/>
	<path class="st40" d="M50.6,69c0.9-0.9,1.9-1.7,2.9-2.5c4-3,8.5-6.9,10.6-10c0.4-0.6,2.3-3.4,2.1-3.5c-0.1,0-0.2,0-0.3,0.2
		c-0.8,0.8-6.8,2.9-10.4,3.3c-3.6,0.4-6.4,1.6-6.4,1.6l-2.9-0.5l-2.9,0.5c0,0-2.8-1.3-6.4-1.6s-9.6-2.5-10.4-3.3
		c-0.8-0.8-0.5,1.4,1.8,3.3c1.4,1.2,7.8,7.1,12.6,11.5c0.3,0.3,2.3,2.4,5.3,2.6C48.3,70.7,49.8,69.8,50.6,69z"/>
	<path class="st8" d="M57.8,37.7c0,0,12.8,1.3,13.8,6.8s-2,7.8-2,7.8s-4.2-5.3-7.6-4.5s-6.9,1.5-8.4,0.3S49.5,37.7,57.8,37.7z"/>
	<polygon class="st41" points="57.8,40.7 62.1,44.9 54.9,44.9 	"/>
	<path class="st41" d="M46.2,52.2c0,0-5.7-0.3-5.8,2.8c-0.1,3,5.8,6,5.8,6s5.9-3,5.8-6C51.9,51.9,46.2,52.2,46.2,52.2z"/>
	<ellipse class="st41" cx="46.4" cy="55.7" rx="3.8" ry="2.9"/>
	<path class="st41" d="M46.2,63.3c0,0-8.9-2.1-10-3.2c0,0,6.9,7.3,10,7.4c3.1-0.2,10-7.4,10-7.4C55.2,61.2,46.2,63.3,46.2,63.3z"/>
</g>
</svg>
