<?xml version="1.0" encoding="utf-8"?>
<!-- Generator: Adobe Illustrator 19.2.1, SVG Export Plug-In . SVG Version: 6.00 Build 0)  -->
<svg version="1.1" id="Layer_1" xmlns="http://www.w3.org/2000/svg" xmlns:xlink="http://www.w3.org/1999/xlink" x="0px" y="0px"
	 viewBox="0 0 183.7 118.3" style="enable-background:new 0 0 183.7 118.3;" xml:space="preserve">
<style type="text/css">
	.st0{fill:#282828;}
	.st1{fill:#C6724B;}
	.st2{fill:#897937;}
	.st3{fill:url(#SVGID_1_);}
	.st4{fill:#1E1D1D;}
	.st5{fill:#141414;}
	.st6{fill:#F21C1C;}
	.st7{fill:#CEC4C4;}
	.st8{fill:#A09D9D;}
	.st9{fill:#C11B1B;}
	.st10{fill:#36492A;}
	.st11{fill:#2C3A22;}
	.st12{fill:#938135;}
	.st13{fill:#7F6D20;}
	.st14{fill:#AA953D;}
	.st15{fill:#BCAC68;}
	.st16{fill:#C6AF4B;}
	.st17{fill:#514512;}
	.st18{clip-path:url(#SVGID_3_);fill:url(#SVGID_4_);}
	.st19{fill:#ED2B2B;}
	.st20{fill:#CE2929;}
	.st21{fill:#647532;}
	.st22{fill:#CDEAB0;}
	.st23{fill:#7B933B;}
	.st24{fill:#A0C64B;}
	.st25{fill:#C9C3A9;}
	.st26{fill:#AD9945;}
	.st27{fill:#D6C47C;}
	.st28{fill:#FFFFFF;}
	.st29{fill:#D8D8CB;}
	.st30{fill:#A31717;}
	.st31{fill:#C15B5B;}
	.st32{fill:#4BC6AF;}
	.st33{fill:#493E12;}
	.st34{fill:#2F3F25;}
	.st35{fill:#28331F;}
</style>
<g>
	<g>
		<g>
			<path class="st5" d="M53,18.4c-21.5,21.5-21.5,56.3,0,77.8l77.8-77.8C109.2-3,74.4-3,53,18.4z"/>
			<path class="st5" d="M130.7,18.4L53,96.2c21.5,21.5,56.3,21.5,77.8,0S152.2,39.9,130.7,18.4z"/>
		</g>
		<path class="st4" d="M53,96.2c-21.5-21.5-21.5-56.3,0-77.8s56.3-21.5,77.8,0L53,96.2z"/>
		<path class="st5" d="M53,96.2c21.5,21.5,56.3,21.5,77.8,0s21.5-56.3,0-77.8L53,96.2z"/>
	</g>
	<g>
		<path class="st0" d="M58.5,28.6c0,0-14.8,40.8,5.1,57.4c0,0-4.3-48.1,9.7-48.6L79,45l6.3-6.2l7,7.5l0.9-9.8c0.2-2.5-1.6-4.6-4-4.9
			L58.5,28.6z"/>
		<path class="st0" d="M63.6,86c0,0-8.2-31.5-3-42.2s12.7-6.3,12.7-6.3s-2.9,0.2-6.9,6.4C61.6,51.3,63.6,86,63.6,86z"/>
		<polygon class="st0" points="79,45 84.9,36.6 85.3,38.8 		"/>
		<path class="st0" d="M126.1,28.6c0,0,14.8,40.8-5.1,57.4c0,0,4.3-48.1-9.7-48.6l-5.7,7.6l-6.3-6.2l-7,7.5L93.4,34
			c0.1-1.2,1-2.1,2.2-2.2L126.1,28.6z"/>
		<path class="st0" d="M120.9,86c0,0,8.2-31.5,3-42.2s-12.7-6.3-12.7-6.3s2.9,0.2,6.9,6.4C123,51.3,120.9,86,120.9,86z"/>
		<polygon class="st0" points="105.6,45 99.6,36.6 99.2,38.8 		"/>
		<path class="st0" d="M79,30.6c0,0,19,2.3,26.6,0.2v4.7H79.9L79,30.6z"/>
	</g>
	<g>
		<path class="st28" d="M89.9,46.3l7-7.5l6.3,6.2l5.7-7.6c14,0.5,9.7,48.6,9.7,48.6c19.9-16.5,5.1-57.4,5.1-57.4l-29.4,3.1
			c-3.7,0-7.7-0.2-10.9-0.4l-6.8-0.7l0,0l0,0l-20.5-2c0,0-14.8,40.8,5.1,57.4c0,0-4.3-48.1,9.7-48.6l5.7,7.6l6.3-6.2L89.9,46.3"/>
		<path class="st29" d="M61.2,86c0,0-8.2-31.5-3-42.2s12.7-6.3,12.7-6.3S68,37.6,64,43.8C59.2,51.3,61.2,86,61.2,86z"/>
		<polygon class="st29" points="76.6,45 82.6,36.6 82.9,38.8 		"/>
		<path class="st29" d="M118.6,86c0,0,8.2-31.5,3-42.2s-12.7-6.3-12.7-6.3s2.9,0.2,6.9,6.4C120.6,51.3,118.6,86,118.6,86z"/>
		<polygon class="st29" points="103.2,45 97.2,36.6 96.9,38.8 		"/>
	</g>
	<g>
		<path class="st30" d="M101.2,55.8c0.7,3,1.7,5.9,3.3,8.6c1.8,3,1.4,6.6-0.5,8.3c-1.9,1.7-5.4,1.9-7.4,0.1c-2.2-1.9-2.5-5.9-0.1-9
			c1-1.3,1.9-2.7,2.7-4.2L101.2,55.8L101.2,55.8z"/>
		<ellipse transform="matrix(0.1724 -0.985 0.985 0.1724 16.1905 157.3976)" class="st31" cx="101.8" cy="69.1" rx="4.3" ry="2.5"/>
	</g>
</g>
</svg>
