<?xml version="1.0" encoding="utf-8"?>
<!-- Generator: Adobe Illustrator 19.2.1, SVG Export Plug-In . SVG Version: 6.00 Build 0)  -->
<svg version="1.1" id="Layer_1" xmlns="http://www.w3.org/2000/svg" xmlns:xlink="http://www.w3.org/1999/xlink" x="0px" y="0px"
	 viewBox="0 0 50.5 68.3" style="enable-background:new 0 0 50.5 68.3;" xml:space="preserve">
<style type="text/css">
	.st0{fill:#28331F;}
	.st1{fill:#282828;}
	.st2{fill:#C6724B;}
	.st3{fill:#897937;}
	.st4{fill:url(#SVGID_1_);}
	.st5{fill:#1E1D1D;}
	.st6{fill:#141414;}
	.st7{fill:#F21C1C;}
	.st8{fill:#CEC4C4;}
	.st9{fill:#A09D9D;}
	.st10{fill:#C11B1B;}
	.st11{fill:#36492A;}
	.st12{fill:#2C3A22;}
	.st13{fill:#938135;}
	.st14{fill:#7F6D20;}
	.st15{fill:#AA953D;}
	.st16{fill:#BCAC68;}
	.st17{fill:#C6AF4B;}
	.st18{fill:#514512;}
	.st19{clip-path:url(#SVGID_3_);fill:url(#SVGID_4_);}
	.st20{fill:#ED2B2B;}
	.st21{fill:#CE2929;}
	.st22{fill:#647532;}
	.st23{fill:#CDEAB0;}
	.st24{fill:#7B933B;}
	.st25{fill:#A0C64B;}
	.st26{fill:#C9C3A9;}
	.st27{fill:#AD9945;}
	.st28{fill:#D6C47C;}
	.st29{fill:#FFFFFF;}
	.st30{fill:#D8D8CB;}
	.st31{fill:#A31717;}
	.st32{fill:#C15B5B;}
	.st33{fill:#4BC6AF;}
	.st34{fill:#493E12;}
	.st35{fill:#2F3F25;}
	.st36{fill:url(#SVGID_5_);}
	.st37{fill:#AF6146;}
	.st38{fill:#93493B;}
	.st39{fill:url(#SVGID_6_);}
	.st40{fill:#565555;}
	.st41{fill:#4C4C4C;}
	.st42{fill:url(#SVGID_7_);}
	.st43{fill:#565454;}
	.st44{opacity:0.92;fill:#DDC04A;}
	.st45{fill:#B7B2B2;}
</style>
<polygon class="st0" points="25.2,36.1 19.1,28.6 23.8,28.6 17.5,20.9 21.7,20.9 13.3,10.6 13.3,15.7 13.3,20.9 13.3,21.5 
	13.3,28.6 13.3,35.4 13.3,35.4 13.3,35.4 13.3,28.6 13.3,21.5 13.3,20.9 13.3,15.7 13.3,10.6 4.9,20.9 9.1,20.9 2.9,28.6 7.5,28.6 
	1.4,36.1 10.7,36.1 10.7,48.9 13.1,48.9 13.5,48.9 15.9,48.9 15.9,36.1 "/>
<g>
	<polygon class="st1" points="12.1,33.4 12.1,48.6 15,48.6 15,35.2 	"/>
	<polygon class="st1" points="6.3,20.5 11.8,19 10.6,20.5 	"/>
	<polygon class="st1" points="17.4,33.4 17.4,48.6 14.6,48.6 14.6,35.2 	"/>
	<polygon class="st1" points="4.3,28.2 11,26.2 9,28.2 	"/>
	<g>
		<polygon class="st1" points="10.6,20.5 4.3,28.2 9,28.2 2.8,35.8 14.8,35.8 14.8,28.2 14.8,21.1 14.8,20.5 14.8,15.3 14.8,10.1 
			6.3,20.5 		"/>
		<polygon class="st1" points="20.6,28.2 25.3,28.2 19,20.5 23.2,20.5 14.8,10.1 14.8,15.3 14.8,20.5 14.8,21.1 14.8,28.2 
			14.8,35.8 26.8,35.8 		"/>
	</g>
	<polygon class="st1" points="23.3,20.5 17.8,19 19,20.5 	"/>
	<polygon class="st1" points="25.3,28.2 18.6,26.2 20.6,28.2 	"/>
</g>
<g>
	<polygon class="st1" points="31.4,31.1 31.4,49.9 34.9,49.9 34.9,33.4 	"/>
	<polygon class="st1" points="24.3,15.2 31,13.4 29.5,15.2 	"/>
	<polygon class="st1" points="37.9,31.1 37.9,49.9 34.4,49.9 34.4,33.4 	"/>
	<polygon class="st1" points="21.7,24.7 30,22.2 27.5,24.7 	"/>
	<g>
		<polygon class="st1" points="29.5,15.2 21.7,24.7 27.5,24.7 19.9,34 34.7,34 34.7,24.7 34.7,15.9 34.7,15.2 34.7,8.8 34.7,2.4 
			24.3,15.2 		"/>
		<polygon class="st1" points="41.8,24.7 47.7,24.7 39.9,15.2 45.1,15.2 34.7,2.4 34.7,8.8 34.7,15.2 34.7,15.9 34.7,24.7 34.7,34 
			49.4,34 		"/>
	</g>
	<polygon class="st1" points="45.1,15.2 38.4,13.4 39.9,15.2 	"/>
	<polygon class="st1" points="47.7,24.7 39.4,22.2 41.8,24.7 	"/>
	<g>
		<polygon class="st1" points="29.5,15.2 21.7,24.7 27.5,24.7 19.9,34 34.7,34 34.7,24.7 34.7,15.9 34.7,15.2 34.7,8.8 34.7,2.4 
			24.3,15.2 		"/>
		<polygon class="st1" points="41.8,24.7 47.7,24.7 39.9,15.2 45.1,15.2 34.7,2.4 34.7,8.8 34.7,15.2 34.7,15.9 34.7,24.7 34.7,34 
			49.4,34 		"/>
	</g>
</g>
<polygon class="st0" points="47.6,34 40,24.7 45.8,24.7 38,15.2 43.2,15.2 32.8,2.4 32.8,8.8 32.8,15.2 32.8,15.9 32.8,24.7 
	32.8,33.2 32.8,33.2 32.8,33.2 32.8,24.7 32.8,15.9 32.8,15.2 32.8,8.8 32.8,2.4 22.4,15.2 27.6,15.2 19.8,24.7 25.7,24.7 18.1,34 
	29.6,34 29.6,49.9 32.6,49.9 33.1,49.9 36.1,49.9 36.1,34 "/>
<g>
	<polygon class="st18" points="10.7,33.8 10.7,48.9 13.5,48.9 13.5,35.5 	"/>
	<polygon class="st11" points="4.9,20.9 9.1,20.9 2.9,28.6 7.5,28.6 1.4,36.1 13.3,36.1 13.3,28.6 13.3,21.5 13.3,20.9 13.3,15.7 
		13.3,10.6 	"/>
	<polygon class="st12" points="4.9,20.9 10.3,19.4 9.1,20.9 	"/>
	<polygon class="st34" points="15.9,33.8 15.9,48.9 13.1,48.9 13.1,35.5 	"/>
	<polygon class="st12" points="2.9,28.6 9.5,26.6 7.5,28.6 	"/>
	<polygon class="st35" points="21.7,20.9 17.5,20.9 23.8,28.6 19.1,28.6 25.2,36.1 13.3,36.1 13.3,28.6 13.3,21.5 13.3,20.9 
		13.3,15.7 13.3,10.6 	"/>
	<polygon class="st0" points="21.7,20.9 16.3,19.4 17.5,20.9 	"/>
	<polygon class="st0" points="23.8,28.6 17.1,26.6 19.1,28.6 	"/>
</g>
<polygon class="st1" points="45.7,49.8 38.1,40.5 44,40.5 36.2,30.9 41.4,30.9 31,18.1 31,24.5 31,30.9 31,31.7 31,40.5 31,49 
	31,49 31,49 31,40.5 31,31.7 31,30.9 31,24.5 31,18.1 20.6,30.9 25.8,30.9 18,40.5 23.8,40.5 16.2,49.8 27.7,49.8 27.7,65.7 
	30.7,65.7 31.2,65.7 34.2,65.7 34.2,49.8 "/>
<g>
	<polygon class="st18" points="29.6,31.1 29.6,49.9 33.1,49.9 33.1,33.4 	"/>
	<polygon class="st11" points="22.4,15.2 27.6,15.2 19.8,24.7 25.7,24.7 18.1,34 32.8,34 32.8,24.7 32.8,15.9 32.8,15.2 32.8,8.8 
		32.8,2.4 	"/>
	<polygon class="st12" points="22.4,15.2 29.1,13.4 27.6,15.2 	"/>
	<polygon class="st34" points="36.1,31.1 36.1,49.9 32.6,49.9 32.6,33.4 	"/>
	<polygon class="st12" points="19.8,24.7 28.1,22.2 25.7,24.7 	"/>
	<polygon class="st35" points="43.2,15.2 38,15.2 45.8,24.7 40,24.7 47.6,34 32.8,34 32.8,24.7 32.8,15.9 32.8,15.2 32.8,8.8 
		32.8,2.4 	"/>
	<polygon class="st0" points="43.2,15.2 36.5,13.4 38,15.2 	"/>
	<polygon class="st0" points="45.8,24.7 37.5,22.2 40,24.7 	"/>
</g>
<g>
	<polygon class="st1" points="27.7,46.9 27.7,65.7 31.2,65.7 31.2,49.1 	"/>
	<polygon class="st1" points="20.6,30.9 25.8,30.9 18,40.5 23.8,40.5 16.2,49.8 31,49.8 31,40.5 31,31.7 31,30.9 31,24.5 31,18.1 	
		"/>
	<polygon class="st1" points="20.6,30.9 27.3,29.1 25.8,30.9 	"/>
	<polygon class="st1" points="34.2,46.9 34.2,65.7 30.7,65.7 30.7,49.1 	"/>
	<polygon class="st1" points="18,40.5 26.3,38 23.8,40.5 	"/>
	<polygon class="st1" points="41.4,30.9 36.2,30.9 44,40.5 38.1,40.5 45.7,49.8 31,49.8 31,40.5 31,31.7 31,30.9 31,24.5 31,18.1 	
		"/>
	<polygon class="st1" points="41.4,30.9 34.7,29.1 36.2,30.9 	"/>
	<polygon class="st1" points="44,40.5 35.7,38 38.1,40.5 	"/>
</g>
<g>
	<polygon class="st18" points="25.9,46.9 25.9,65.7 29.4,65.7 29.4,49.1 	"/>
	<polygon class="st11" points="18.7,30.9 23.9,30.9 16.2,40.5 22,40.5 14.4,49.8 29.1,49.8 29.1,40.5 29.1,31.7 29.1,30.9 
		29.1,24.5 29.1,18.1 	"/>
	<polygon class="st12" points="18.7,30.9 25.4,29.1 23.9,30.9 	"/>
	<polygon class="st34" points="32.4,46.9 32.4,65.7 28.9,65.7 28.9,49.1 	"/>
	<polygon class="st12" points="16.2,40.5 24.4,38 22,40.5 	"/>
	<polygon class="st35" points="39.5,30.9 34.3,30.9 42.1,40.5 36.3,40.5 43.9,49.8 29.1,49.8 29.1,40.5 29.1,31.7 29.1,30.9 
		29.1,24.5 29.1,18.1 	"/>
	<polygon class="st0" points="39.5,30.9 32.8,29.1 34.3,30.9 	"/>
	<polygon class="st0" points="42.1,40.5 33.8,38 36.3,40.5 	"/>
</g>
<polygon class="st0" points="43.9,49.8 36.3,40.5 42.1,40.5 34.3,30.9 39.5,30.9 29.1,18.1 29.1,24.5 29.1,30.9 29.1,31.7 
	29.1,40.5 29.1,49 29.1,49 29.1,49 29.1,40.5 29.1,31.7 29.1,30.9 29.1,24.5 29.1,18.1 18.7,30.9 23.9,30.9 16.2,40.5 22,40.5 
	14.4,49.8 25.9,49.8 25.9,65.7 28.9,65.7 29.4,65.7 32.4,65.7 32.4,49.8 "/>
<g>
	<polygon class="st18" points="25.9,46.9 25.9,65.7 29.4,65.7 29.4,49.1 	"/>
	<polygon class="st11" points="18.7,30.9 23.9,30.9 16.2,40.5 22,40.5 14.4,49.8 29.1,49.8 29.1,40.5 29.1,31.7 29.1,30.9 
		29.1,24.5 29.1,18.1 	"/>
	<polygon class="st12" points="18.7,30.9 25.4,29.1 23.9,30.9 	"/>
	<polygon class="st34" points="32.4,46.9 32.4,65.7 28.9,65.7 28.9,49.1 	"/>
	<polygon class="st12" points="16.2,40.5 24.4,38 22,40.5 	"/>
	<polygon class="st35" points="39.5,30.9 34.3,30.9 42.1,40.5 36.3,40.5 43.9,49.8 29.1,49.8 29.1,40.5 29.1,31.7 29.1,30.9 
		29.1,24.5 29.1,18.1 	"/>
	<polygon class="st0" points="39.5,30.9 32.8,29.1 34.3,30.9 	"/>
	<polygon class="st0" points="42.1,40.5 33.8,38 36.3,40.5 	"/>
</g>
</svg>
