<?xml version="1.0" encoding="utf-8"?>
<!-- Generator: Adobe Illustrator 19.2.1, SVG Export Plug-In . SVG Version: 6.00 Build 0)  -->
<svg version="1.1" id="Layer_1" xmlns="http://www.w3.org/2000/svg" xmlns:xlink="http://www.w3.org/1999/xlink" x="0px" y="0px"
	 viewBox="0 0 50.5 68.3" style="enable-background:new 0 0 50.5 68.3;" xml:space="preserve">
<style type="text/css">
	.st0{fill:#28331F;}
	.st1{fill:#282828;}
	.st2{fill:#C6724B;}
	.st3{fill:#897937;}
	.st4{fill:url(#SVGID_1_);}
	.st5{fill:#1E1D1D;}
	.st6{fill:#141414;}
	.st7{fill:#F21C1C;}
	.st8{fill:#CEC4C4;}
	.st9{fill:#A09D9D;}
	.st10{fill:#C11B1B;}
	.st11{fill:#36492A;}
	.st12{fill:#2C3A22;}
	.st13{fill:#938135;}
	.st14{fill:#7F6D20;}
	.st15{fill:#AA953D;}
	.st16{fill:#BCAC68;}
	.st17{fill:#C6AF4B;}
	.st18{fill:#514512;}
	.st19{clip-path:url(#SVGID_3_);fill:url(#SVGID_4_);}
	.st20{fill:#ED2B2B;}
	.st21{fill:#CE2929;}
	.st22{fill:#647532;}
	.st23{fill:#CDEAB0;}
	.st24{fill:#7B933B;}
	.st25{fill:#A0C64B;}
	.st26{fill:#C9C3A9;}
	.st27{fill:#AD9945;}
	.st28{fill:#D6C47C;}
	.st29{fill:#FFFFFF;}
	.st30{fill:#D8D8CB;}
	.st31{fill:#A31717;}
	.st32{fill:#C15B5B;}
	.st33{fill:#4BC6AF;}
	.st34{fill:#493E12;}
	.st35{fill:#2F3F25;}
	.st36{fill:url(#SVGID_5_);}
	.st37{fill:#AF6146;}
	.st38{fill:#93493B;}
	.st39{fill:url(#SVGID_6_);}
	.st40{fill:#565555;}
	.st41{fill:#4C4C4C;}
	.st42{fill:url(#SVGID_7_);}
	.st43{fill:#565454;}
	.st44{opacity:0.92;fill:#DDC04A;}
	.st45{fill:#B7B2B2;}
</style>
<polygon class="st0" points="25.2,36.1 19.1,28.6 23.8,28.6 17.5,20.9 21.7,20.9 13.3,10.6 13.3,15.7 13.3,20.9 13.3,21.5 
	13.3,28.6 13.3,35.4 13.3,35.4 13.3,35.4 13.3,28.6 13.3,21.5 13.3,20.9 13.3,15.7 13.3,10.6 4.9,20.9 9.1,20.9 2.9,28.6 7.5,28.6 
	1.4,36.1 10.7,36.1 10.7,48.9 13.1,48.9 13.5,48.9 15.9,48.9 15.9,36.1 "/>
<g>
	<polygon class="st1" points="12.1,33.4 12.1,48.6 15,48.6 15,35.2 	"/>
	<polygon class="st1" points="6.3,20.5 11.8,19 10.6,20.5 	"/>
	<polygon class="st1" points="17.4,33.4 17.4,48.6 14.6,48.6 14.6,35.2 	"/>
	<polygon class="st1" points="4.3,28.2 11,26.2 9,28.2 	"/>
	<g>
		<polygon class="st1" points="10.6,20.5 4.3,28.2 9,28.2 2.8,35.8 14.8,35.8 14.8,28.2 14.8,21.1 14.8,20.5 14.8,15.3 14.8,10.1 
			6.3,20.5 		"/>
		<polygon class="st1" points="20.6,28.2 25.3,28.2 19,20.5 23.3,20.5 14.8,10.1 14.8,15.3 14.8,20.5 14.8,21.1 14.8,28.2 
			14.8,35.8 26.8,35.8 		"/>
	</g>
	<polygon class="st1" points="23.3,20.5 17.8,19 19,20.5 	"/>
	<polygon class="st1" points="25.3,28.2 18.6,26.2 20.6,28.2 	"/>
	<text transform="matrix(1 0 0 1 396 306)" style="font-family:'MyriadPro-Regular'; font-size:12px;"> @media screen and (min-width: 600px){</text>
</g>
<g>
	<polygon class="st1" points="31.4,31.1 31.4,49.9 34.9,49.9 34.9,33.4 	"/>
	<polygon class="st1" points="24.3,15.2 31,13.4 29.5,15.2 	"/>
	<polygon class="st1" points="37.9,31.1 37.9,49.9 34.4,49.9 34.4,33.4 	"/>
	<polygon class="st1" points="21.7,24.7 30,22.2 27.5,24.7 	"/>
	<g>
		<polygon class="st1" points="29.5,15.2 21.7,24.7 27.5,24.7 19.9,34 34.7,34 34.7,24.7 34.7,15.9 34.7,15.2 34.7,8.8 34.7,2.4 
			24.3,15.2 		"/>
		<polygon class="st1" points="41.8,24.7 47.7,24.7 39.9,15.2 45.1,15.2 34.7,2.4 34.7,8.8 34.7,15.2 34.7,15.9 34.7,24.7 34.7,34 
			49.4,34 		"/>
	</g>
	<polygon class="st1" points="45.1,15.2 38.4,13.4 39.9,15.2 	"/>
	<polygon class="st1" points="47.7,24.7 39.4,22.2 41.8,24.7 	"/>
	<g>
		<polygon class="st1" points="29.5,15.2 21.7,24.7 27.5,24.7 19.9,34 34.7,34 34.7,24.7 34.7,15.9 34.7,15.2 34.7,8.8 34.7,2.4 
			24.3,15.2 		"/>
		<polygon class="st1" points="41.8,24.7 47.7,24.7 39.9,15.2 45.1,15.2 34.7,2.4 34.7,8.8 34.7,15.2 34.7,15.9 34.7,24.7 34.7,34 
			49.4,34 		"/>
	</g>
</g>
<rect x="-691.1" y="-27.9" class="st2" width="571.5" height="426"/>
<g>
	<circle class="st3" cx="194.4" cy="41.3" r="50.4"/>
	<linearGradient id="SVGID_1_" gradientUnits="userSpaceOnUse" x1="228.353" y1="78.7788" x2="193.9775" y2="44.4033">
		<stop  offset="0" style="stop-color:#000000;stop-opacity:0"/>
		<stop  offset="0.3187" style="stop-color:#2C2618;stop-opacity:0.1848"/>
		<stop  offset="0.5172" style="stop-color:#423A25;stop-opacity:0.3"/>
		<stop  offset="0.595" style="stop-color:#534928;stop-opacity:0.4128"/>
		<stop  offset="0.7" style="stop-color:#62572A;stop-opacity:0.5649"/>
		<stop  offset="0.822" style="stop-color:#6B5F2C;stop-opacity:0.7419"/>
		<stop  offset="1" style="stop-color:#6E612C"/>
	</linearGradient>
	<path class="st4" d="M207.1,28.1l-19.3,23.8l11,39.7c0,0,33.7,0,45-39.9L207.1,28.1"/>
	<g>
		<polygon class="st5" points="214.9,33.6 222.6,6.6 193.8,27.1 165,6.6 172.7,33.6 159.3,48.1 176.6,63.1 181.2,64.4 188.7,76.9 
			193.8,78.6 193.8,78.6 193.8,78.6 193.8,78.6 193.8,78.6 198.8,76.9 206.3,64.4 211,63.1 228.2,48.1 		"/>
		<polygon class="st6" points="215.2,37.2 201.5,31.4 193.8,34.8 186.1,31.4 172.3,37.2 163.5,47.1 170.5,45.1 179.2,49 190.4,49 
			191.2,64.9 193.8,72.8 193.8,72.9 193.8,72.9 193.8,72.9 193.8,72.8 196.3,64.9 197.1,49 208.3,49 217.1,45.1 224.1,47.1 		"/>
		<polygon class="st7" points="176.6,42.1 181.8,42.1 186.1,45.5 181.1,46.6 		"/>
		<polygon class="st8" points="159.3,48.1 187.8,51.9 188.7,76.9 181.2,64.4 176.6,63.1 		"/>
		<path class="st8" d="M175.8,41.2l6-1l7.5,6.3l1.1-1.8c0,0-5.5-7.6-8.6-7.6C178.7,37.2,175.8,41.2,175.8,41.2z"/>
		<polygon class="st8" points="174,33 182.5,26.6 166.3,9.1 		"/>
		<polygon class="st6" points="176.5,31.4 179.2,29.1 171,17.4 		"/>
		<polygon class="st9" points="159.3,48.1 176.6,56.8 181.3,57.9 188.7,76.9 181.2,64.4 176.6,63.1 		"/>
		<polygon class="st10" points="176.6,42.1 181.3,44.4 186.1,45.5 181.8,42.1 		"/>
		<polygon class="st9" points="175.8,41.2 181.3,38.8 189.3,46.6 181.8,40.3 		"/>
		<polygon class="st9" points="180.5,28.1 166.3,9.1 182.5,26.6 		"/>
		<polygon class="st7" points="211,42.1 205.7,42.1 201.5,45.5 206.5,46.6 		"/>
		<polygon class="st8" points="228.2,48.1 199.7,51.9 198.8,76.9 206.3,64.4 211,63.1 		"/>
		<polygon points="198.8,71.2 193.8,74.9 188.7,71.2 188.7,76.9 193.8,78.6 193.8,78.6 193.8,78.6 193.8,78.6 193.8,78.6 
			198.8,76.9 		"/>
		<path class="st8" d="M211.7,41.2l-6-1l-7.5,6.3l-1.1-1.8c0,0,5.5-7.6,8.6-7.6C208.8,37.2,211.7,41.2,211.7,41.2z"/>
		<polygon class="st8" points="213.5,33 205.1,26.6 221.2,9.1 		"/>
		<polygon class="st6" points="211,31.4 208.3,29.1 216.6,17.4 		"/>
		<polygon class="st9" points="228.2,48.1 211,56.8 206.2,57.9 198.8,76.9 206.3,64.4 211,63.1 		"/>
		<polygon class="st10" points="211,42.1 206.2,44.4 201.5,45.5 205.7,42.1 		"/>
		<polygon class="st9" points="211.7,41.2 206.2,38.8 198.2,46.6 205.7,40.3 		"/>
		<polygon class="st9" points="207.1,28.1 221.2,9.1 205.1,26.6 		"/>
	</g>
</g>
<g>
	<path class="st11" d="M37.7,279.2c-16.1-16.1-16.1-42.2,0-58.2s42.2-16.1,58.2,0L37.7,279.2z"/>
	<path class="st12" d="M37.7,279.2c16.1,16.1,42.2,16.1,58.2,0c16.1-16.1,16.1-42.2,0-58.2L37.7,279.2z"/>
	<polygon class="st1" points="89.8,242.1 97.5,215.1 68.7,235.6 39.9,215.1 47.6,242.1 34.3,256.6 51.5,271.6 56.1,272.8 
		63.6,285.3 68.7,287.1 68.7,287.1 68.7,287.1 68.7,287.1 68.7,287.1 73.8,285.3 81.3,272.8 85.9,271.6 103.1,256.6 	"/>
	<g>
		<polygon class="st13" points="87.9,241.1 95.6,214.1 66.8,234.6 38,214.1 45.8,241.1 32.4,255.6 49.6,270.6 54.3,271.8 
			61.8,284.3 66.8,286.1 66.8,286.1 66.8,286.1 66.8,286.1 66.8,286.1 71.9,284.3 79.4,271.8 84.1,270.6 101.3,255.6 		"/>
		<polygon class="st3" points="88.3,244.7 74.6,238.8 66.8,242.3 59.1,238.8 45.4,244.7 36.5,254.6 43.5,252.6 52.3,256.4 
			63.5,256.4 64.3,272.3 66.8,280.3 66.8,280.3 66.8,280.3 66.8,280.3 66.8,280.3 69.4,272.3 70.2,256.4 81.4,256.4 90.1,252.6 
			97.1,254.6 		"/>
		<polygon class="st14" points="49.6,249.6 54.9,249.6 59.1,252.9 54.1,254.1 		"/>
		<polygon class="st15" points="32.4,255.6 60.9,259.4 61.8,284.3 54.3,271.8 49.6,270.6 		"/>
		<path class="st16" d="M48.9,248.7l6-1l7.5,6.3l1.1-1.8c0,0-5.5-7.6-8.6-7.6S48.9,248.7,48.9,248.7z"/>
		<polygon class="st15" points="47.1,240.4 55.5,234.1 39.4,216.6 		"/>
		<polygon class="st3" points="49.6,238.8 52.3,236.5 44,224.8 		"/>
		<polygon class="st17" points="32.4,255.6 49.6,264.2 54.4,265.4 61.8,284.3 54.3,271.8 49.6,270.6 		"/>
		<polygon class="st18" points="49.6,249.6 54.4,251.8 59.1,252.9 54.9,249.6 		"/>
		<polygon class="st15" points="48.9,248.7 54.4,246.2 62.4,254.1 54.9,247.7 		"/>
		<polygon class="st17" points="53.5,235.6 39.4,216.6 55.5,234.1 		"/>
		<polygon class="st14" points="84.1,249.6 78.8,249.6 74.6,252.9 79.6,254.1 		"/>
		<polygon class="st15" points="101.3,255.6 72.8,259.4 71.9,284.3 79.4,271.8 84.1,270.6 		"/>
		<polygon class="st18" points="71.9,278.7 66.8,282.4 61.8,278.7 61.8,284.3 66.8,286.1 66.8,286.1 66.8,286.1 66.8,286.1 
			66.8,286.1 71.9,284.3 		"/>
		<path class="st16" d="M84.8,248.7l-6-1l-7.5,6.3l-1.1-1.8c0,0,5.5-7.6,8.6-7.6S84.8,248.7,84.8,248.7z"/>
		<polygon class="st15" points="86.6,240.4 78.1,234.1 94.3,216.6 		"/>
		<polygon class="st3" points="84.1,238.8 81.4,236.5 89.6,224.8 		"/>
		<polygon class="st17" points="101.3,255.6 84.1,264.2 79.3,265.4 71.9,284.3 79.4,271.8 84.1,270.6 		"/>
		<polygon class="st18" points="84.1,249.6 79.3,251.8 74.6,252.9 78.8,249.6 		"/>
		<polygon class="st15" points="84.8,248.7 79.3,246.2 71.3,254.1 78.8,247.7 		"/>
		<polygon class="st17" points="80.1,235.6 94.3,216.6 78.1,234.1 		"/>
	</g>
</g>
<g>
	<circle class="st17" cx="-568.8" cy="232" r="67"/>
	<g>
		<defs>
			<circle id="SVGID_2_" cx="-568.8" cy="232" r="67"/>
		</defs>
		<clipPath id="SVGID_3_">
			<use xlink:href="#SVGID_2_"  style="overflow:visible;"/>
		</clipPath>
		<linearGradient id="SVGID_4_" gradientUnits="userSpaceOnUse" x1="-624.9288" y1="186.5789" x2="-565.8856" y2="245.622">
			<stop  offset="0" style="stop-color:#000000;stop-opacity:0.2"/>
			<stop  offset="1.385228e-002" style="stop-color:#110F07;stop-opacity:0.2027"/>
			<stop  offset="4.458252e-002" style="stop-color:#302B13;stop-opacity:0.2085"/>
			<stop  offset="7.939110e-002" style="stop-color:#4C431E;stop-opacity:0.2152"/>
			<stop  offset="0.1187" style="stop-color:#625627;stop-opacity:0.2227"/>
			<stop  offset="0.1646" style="stop-color:#73652E;stop-opacity:0.2315"/>
			<stop  offset="0.2214" style="stop-color:#7E6F33;stop-opacity:0.2424"/>
			<stop  offset="0.3011" style="stop-color:#857535;stop-opacity:0.2577"/>
			<stop  offset="0.5222" style="stop-color:#877736;stop-opacity:0.3"/>
			<stop  offset="1" style="stop-color:#877736"/>
		</linearGradient>
		<path class="st19" d="M-532.9,210.2l-50.1-46.5c0,0-19.3,2.5-29.8,11.9c-10.6,9.4-27.3,18.8-28,63.3l53.1,28.5L-532.9,210.2z"/>
	</g>
	<g>
		<path class="st20" d="M-594.2,264.8c0,0,2.4,12.3,0,14s-7.9,3.5-7.9,3.5s3.8,0,5.2,0s-2.7,2.3-2.7,2.3s6.7-1,10-4
			s-0.5-15.8-0.5-15.8H-594.2z"/>
		<path class="st21" d="M-588.8,270.3l-4.4,3.3l-0.7-6.1l3.5-0.9C-590.3,266.6-589.1,268-588.8,270.3z"/>
		<path class="st22" d="M-606,198.4c-0.7,3.1,0.2,7.1,6.4,10.6l63-16l-10.5-13.5l-52.7,14.7C-602.8,194.9-605.3,195.3-606,198.4z"/>
		<path class="st23" d="M-589.9,208l53.4-15l-8.4-10.7l-59.7,18.8C-604.6,201.1-601,208.3-589.9,208z"/>
		<polygon class="st24" points="-598.4,264.5 -592.5,269.5 -531.5,252.5 -535.5,191.2 -598.4,209.5 		"/>
		<path class="st25" d="M-589.9,207l2.4,61.5c0,0-10,4.8-16-6l-2.6-63.5l0,0c3.3,4.5,4.9,6.9,10.1,8.6l4.7-0.2"/>
		<g>
			<path class="st26" d="M-597.2,202.7c0,0,0.4-0.2,0.9-0.5c0.6-0.2,1.3-0.5,2.1-0.6c0.8-0.2,1.6-0.2,2.2-0.2c0.6,0,1,0.1,1,0.1
				s-0.4,0.2-0.9,0.5c-0.6,0.2-1.3,0.5-2.1,0.6c-0.8,0.2-1.6,0.2-2.2,0.2C-596.8,202.8-597.2,202.7-597.2,202.7z"/>
		</g>
		<path class="st20" d="M-596.8,202.5c0,0,0-2.5,2.5-2.5s2.8,1.3,2.8,1.3L-596.8,202.5z"/>
	</g>
</g>
<g>
	<path class="st12" d="M-487.7,7.3c18.6,18.6,18.6,48.7,0,67.3c-18.6,18.6-48.7,18.6-67.3,0L-487.7,7.3z"/>
	<path class="st11" d="M-554.9,74.6c-18.6-18.6-18.6-48.7,0-67.3c18.6-18.6,48.7-18.6,67.3,0L-554.9,74.6z"/>
	<g>
		<path class="st1" d="M-546.7,23.6c-0.5,2.2,0.1,5.1,4.6,7.5l44.7-11.4l-7.5-9.6l-37.4,10.4C-544.5,21.2-546.2,21.4-546.7,23.6z"/>
		<path class="st1" d="M-535.3,30.4l37.9-10.6l-5.9-7.6l-42.4,13.3C-545.7,25.5-543.2,30.6-535.3,30.4z"/>
		<polygon class="st1" points="-541.4,70.6 -537.2,74.1 -493.9,62 -496.7,18.5 -541.4,31.5 		"/>
		<path class="st1" d="M-535.3,29.7l1.7,43.7c0,0-7.1,3.4-11.4-4.3l-1.8-45.1v0c2.3,3.2,3.5,4.9,7.2,6.1l3.3-0.2"/>
	</g>
	<g>
		<path class="st27" d="M-547.7,22.3c-0.5,2.2,0.1,5.1,4.6,7.5l44.7-11.4l-7.5-9.6l-37.4,10.4C-545.4,19.9-547.2,20.1-547.7,22.3z"
			/>
		<path class="st28" d="M-536.2,29.2l37.9-10.6l-5.9-7.6l-42.4,13.3C-546.7,24.2-544.1,29.3-536.2,29.2z"/>
		<polygon class="st3" points="-542.3,69.3 -538.1,72.8 -494.8,60.8 -497.6,17.2 -542.3,30.2 		"/>
		<path class="st17" d="M-536.2,28.5l1.7,43.7c0,0-7.1,3.4-11.4-4.3l-1.8-45.1v0c2.3,3.2,3.5,4.9,7.2,6.1l3.3-0.2"/>
	</g>
</g>
<g>
	<g>
		<g>
			<path class="st6" d="M47.7,343.8c-21.5,21.5-21.5,56.3,0,77.8l77.8-77.8C104,322.3,69.2,322.3,47.7,343.8z"/>
			<path class="st6" d="M125.5,343.8l-77.8,77.8c21.5,21.5,56.3,21.5,77.8,0S146.9,365.2,125.5,343.8z"/>
		</g>
		<path class="st5" d="M47.8,421.5c-21.5-21.5-21.5-56.3,0-77.8s56.3-21.5,77.8,0L47.8,421.5z"/>
		<path class="st6" d="M47.8,421.5c21.5,21.5,56.3,21.5,77.8,0c21.5-21.5,21.5-56.3,0-77.8L47.8,421.5z"/>
	</g>
	<g>
		<path class="st1" d="M53.2,354c0,0-14.8,40.8,5.1,57.4c0,0-4.3-48.1,9.7-48.6l5.7,7.6l6.3-6.2l7,7.5l0.9-9.8
			c0.2-2.5-1.6-4.6-4-4.9L53.2,354z"/>
		<path class="st1" d="M58.4,411.3c0,0-8.2-31.5-3-42.2c5.2-10.7,12.7-6.3,12.7-6.3s-2.9,0.2-6.9,6.4
			C56.3,376.6,58.4,411.3,58.4,411.3z"/>
		<polygon class="st1" points="73.7,370.4 79.7,361.9 80,364.1 		"/>
		<path class="st1" d="M120.8,354c0,0,14.8,40.8-5.1,57.4c0,0,4.3-48.1-9.7-48.6l-5.7,7.6l-6.3-6.2l-7,7.5l1.2-12.3
			c0.1-1.2,1-2.1,2.2-2.2L120.8,354z"/>
		<path class="st1" d="M115.7,411.3c0,0,8.2-31.5,3-42.2c-5.2-10.7-12.7-6.3-12.7-6.3s2.9,0.2,6.9,6.4
			C117.7,376.6,115.7,411.3,115.7,411.3z"/>
		<polygon class="st1" points="100.3,370.4 94.4,361.9 94,364.1 		"/>
		<path class="st1" d="M73.7,355.9c0,0,19,2.3,26.6,0.2v4.7H74.7L73.7,355.9z"/>
	</g>
	<g>
		<path class="st29" d="M84.6,371.6l7-7.5l6.3,6.2l5.7-7.6c14,0.5,9.7,48.6,9.7,48.6c19.9-16.5,5.1-57.4,5.1-57.4L89.1,357
			c-3.7,0-7.7-0.2-10.9-0.4l-6.8-0.7l0,0l0,0l-20.5-2c0,0-14.8,40.8,5.1,57.4c0,0-4.3-48.1,9.7-48.6l5.7,7.6l6.3-6.2L84.6,371.6"/>
		<path class="st29" d="M85.5,360.8"/>
		<path class="st30" d="M56,411.3c0,0-8.2-31.5-3-42.2c5.2-10.7,12.7-6.3,12.7-6.3s-2.9,0.2-6.9,6.4C53.9,376.6,56,411.3,56,411.3z"
			/>
		<polygon class="st30" points="71.4,370.4 77.3,361.9 77.7,364.1 		"/>
		<path class="st30" d="M113.3,411.3c0,0,8.2-31.5,3-42.2c-5.2-10.7-12.7-6.3-12.7-6.3s2.9,0.2,6.9,6.4
			C115.3,376.6,113.3,411.3,113.3,411.3z"/>
		<polygon class="st30" points="97.9,370.4 92,361.9 91.6,364.1 		"/>
	</g>
	<g>
		<path class="st31" d="M96,381.2c0.7,3,1.7,5.9,3.3,8.6c1.8,3,1.4,6.6-0.5,8.3c-1.9,1.7-5.4,1.9-7.4,0.1c-2.2-1.9-2.5-5.9-0.1-9
			c1-1.3,1.9-2.7,2.7-4.2L96,381.2L96,381.2z"/>
		
			<ellipse transform="matrix(0.1724 -0.985 0.985 0.1724 -308.6154 421.4666)" class="st32" cx="96.5" cy="394.4" rx="4.3" ry="2.5"/>
	</g>
</g>
<rect x="-184.8" y="348.6" class="st25" width="20.2" height="157.5"/>
<rect x="-598.9" y="427.3" class="st33" width="141.4" height="70.7"/>
<polygon class="st0" points="47.6,34 40,24.7 45.8,24.7 38,15.2 43.2,15.2 32.8,2.4 32.8,8.8 32.8,15.2 32.8,15.9 32.8,24.7 
	32.8,33.2 32.8,33.2 32.8,33.2 32.8,24.7 32.8,15.9 32.8,15.2 32.8,8.8 32.8,2.4 22.4,15.2 27.6,15.2 19.8,24.7 25.7,24.7 18.1,34 
	29.6,34 29.6,49.9 32.6,49.9 33.1,49.9 36.1,49.9 36.1,34 "/>
<rect x="-406.3" y="427.3" class="st33" width="141.4" height="70.7"/>
<g>
	<polygon class="st18" points="10.7,33.8 10.7,48.9 13.5,48.9 13.5,35.5 	"/>
	<polygon class="st11" points="4.9,20.9 9.1,20.9 2.9,28.6 7.5,28.6 1.4,36.1 13.3,36.1 13.3,28.6 13.3,21.5 13.3,20.9 13.3,15.7 
		13.3,10.6 	"/>
	<polygon class="st12" points="4.9,20.9 10.3,19.4 9.1,20.9 	"/>
	<polygon class="st34" points="15.9,33.8 15.9,48.9 13.1,48.9 13.1,35.5 	"/>
	<polygon class="st12" points="2.9,28.6 9.5,26.6 7.5,28.6 	"/>
	<polygon class="st35" points="21.7,20.9 17.5,20.9 23.8,28.6 19.1,28.6 25.2,36.1 13.3,36.1 13.3,28.6 13.3,21.5 13.3,20.9 
		13.3,15.7 13.3,10.6 	"/>
	<polygon class="st0" points="21.7,20.9 16.3,19.4 17.5,20.9 	"/>
	<polygon class="st0" points="23.8,28.6 17.1,26.6 19.1,28.6 	"/>
</g>
<polygon class="st1" points="45.7,49.8 38.1,40.5 44,40.5 36.2,30.9 41.4,30.9 31,18.1 31,24.5 31,30.9 31,31.7 31,40.5 31,49 
	31,49 31,49 31,40.5 31,31.7 31,30.9 31,24.5 31,18.1 20.6,30.9 25.8,30.9 18,40.5 23.8,40.5 16.2,49.8 27.7,49.8 27.7,65.7 
	30.7,65.7 31.2,65.7 34.2,65.7 34.2,49.8 "/>
<g>
	<polygon class="st18" points="29.6,31.1 29.6,49.9 33.1,49.9 33.1,33.4 	"/>
	<polygon class="st11" points="22.4,15.2 27.6,15.2 19.8,24.7 25.7,24.7 18.1,34 32.8,34 32.8,24.7 32.8,15.9 32.8,15.2 32.8,8.8 
		32.8,2.4 	"/>
	<polygon class="st12" points="22.4,15.2 29.1,13.4 27.6,15.2 	"/>
	<polygon class="st34" points="36.1,31.1 36.1,49.9 32.6,49.9 32.6,33.4 	"/>
	<polygon class="st12" points="19.8,24.7 28.1,22.2 25.7,24.7 	"/>
	<polygon class="st35" points="43.2,15.2 38,15.2 45.8,24.7 40,24.7 47.6,34 32.8,34 32.8,24.7 32.8,15.9 32.8,15.2 32.8,8.8 
		32.8,2.4 	"/>
	<polygon class="st0" points="43.2,15.2 36.5,13.4 38,15.2 	"/>
	<polygon class="st0" points="45.8,24.7 37.5,22.2 40,24.7 	"/>
</g>
<g>
	<polygon class="st1" points="27.7,46.9 27.7,65.7 31.2,65.7 31.2,49.1 	"/>
	<polygon class="st1" points="20.6,30.9 25.8,30.9 18,40.5 23.8,40.5 16.2,49.8 31,49.8 31,40.5 31,31.7 31,30.9 31,24.5 31,18.1 	
		"/>
	<polygon class="st1" points="20.6,30.9 27.3,29.1 25.8,30.9 	"/>
	<polygon class="st1" points="34.2,46.9 34.2,65.7 30.7,65.7 30.7,49.1 	"/>
	<polygon class="st1" points="18,40.5 26.3,38 23.8,40.5 	"/>
	<polygon class="st1" points="41.4,30.9 36.2,30.9 44,40.5 38.1,40.5 45.7,49.8 31,49.8 31,40.5 31,31.7 31,30.9 31,24.5 31,18.1 	
		"/>
	<polygon class="st1" points="41.4,30.9 34.7,29.1 36.2,30.9 	"/>
	<polygon class="st1" points="44,40.5 35.7,38 38.1,40.5 	"/>
</g>
<g>
	<polygon class="st18" points="25.9,46.9 25.9,65.7 29.4,65.7 29.4,49.1 	"/>
	<polygon class="st11" points="18.7,30.9 23.9,30.9 16.2,40.5 22,40.5 14.4,49.8 29.1,49.8 29.1,40.5 29.1,31.7 29.1,30.9 
		29.1,24.5 29.1,18.1 	"/>
	<polygon class="st12" points="18.7,30.9 25.4,29.1 23.9,30.9 	"/>
	<polygon class="st34" points="32.4,46.9 32.4,65.7 28.9,65.7 28.9,49.1 	"/>
	<polygon class="st12" points="16.2,40.5 24.4,38 22,40.5 	"/>
	<polygon class="st35" points="39.5,30.9 34.3,30.9 42.1,40.5 36.3,40.5 43.9,49.8 29.1,49.8 29.1,40.5 29.1,31.7 29.1,30.9 
		29.1,24.5 29.1,18.1 	"/>
	<polygon class="st0" points="39.5,30.9 32.8,29.1 34.3,30.9 	"/>
	<polygon class="st0" points="42.1,40.5 33.8,38 36.3,40.5 	"/>
</g>
<g>
	<g>
		<path class="st25" d="M159.4,224.4c-16.1,16.1-16.1,42.2,0,58.2l58.2-58.2C201.6,208.4,175.5,208.4,159.4,224.4z"/>
		<path class="st25" d="M217.6,224.4l-58.2,58.2c16.1,16.1,42.2,16.1,58.2,0C233.7,266.6,233.7,240.5,217.6,224.4z"/>
		<g>
			<path class="st25" d="M147.4,253.6c0,22.7,18.4,41.2,41.2,41.2v-82.4C165.8,212.4,147.4,230.8,147.4,253.6z"/>
			<path class="st25" d="M188.5,212.4v82.4c22.7,0,41.2-18.4,41.2-41.2C229.7,230.8,211.3,212.4,188.5,212.4z"/>
		</g>
	</g>
	<linearGradient id="SVGID_5_" gradientUnits="userSpaceOnUse" x1="216.6706" y1="283.677" x2="181.6219" y2="248.6283">
		<stop  offset="0" style="stop-color:#000000;stop-opacity:0"/>
		<stop  offset="0.3187" style="stop-color:#2C2618;stop-opacity:0.1848"/>
		<stop  offset="0.5172" style="stop-color:#423A25;stop-opacity:0.3"/>
		<stop  offset="0.5238" style="stop-color:#453E26;stop-opacity:0.3096"/>
		<stop  offset="0.5828" style="stop-color:#5D6030;stop-opacity:0.3951"/>
		<stop  offset="0.6459" style="stop-color:#707C39;stop-opacity:0.4865"/>
		<stop  offset="0.7136" style="stop-color:#7F923F;stop-opacity:0.5847"/>
		<stop  offset="0.788" style="stop-color:#8AA144;stop-opacity:0.6925"/>
		<stop  offset="0.8742" style="stop-color:#90AA46;stop-opacity:0.8176"/>
		<stop  offset="1" style="stop-color:#92AD47"/>
	</linearGradient>
	<path class="st36" d="M195,232l-19.3,23.8l10.8,38.9c0,0,38.3,1.8,43.1-39.2L195,232"/>
	<g>
		<g>
			<polygon class="st2" points="158.8,247.2 160.9,264.7 174.9,274.1 179.8,277.1 187.6,278.8 187.6,228.4 168.6,228.4 			"/>
			<polygon class="st2" points="206.4,228.4 187.2,228.4 187.2,277.6 196.7,276.3 200,274.1 214.2,264.7 216.3,247.2 			"/>
		</g>
		<polygon class="st37" points="153.9,230.7 157.7,227.5 169.8,227.5 172.6,230.7 163.3,246 		"/>
		<polygon class="st38" points="171.4,250.9 181.6,250.9 176.5,243.2 		"/>
		<polygon class="st37" points="161.1,264.7 168.9,263.8 174.9,274.1 		"/>
		<polygon class="st37" points="168.2,255.6 176.5,258.8 181.6,257.2 176.5,261.9 		"/>
		<path class="st37" d="M199.6,274.8c0-4-5.4-7.2-12-7.2s-12,3.2-12,7.2l3,5.2l1,0.8h15.9l1.2-0.9L199.6,274.8z"/>
		<polygon class="st38" points="172.6,230.7 162,243.9 163.3,246 		"/>
		<path class="st38" d="M180.8,274c0,0-0.4-2.5,2.1-3.3c2.5-0.8,2.7,3.3,2.7,3.3H180.8z"/>
		<polygon class="st37" points="223.1,230.7 219.3,227.5 207.3,227.5 204.5,230.7 213.8,246 		"/>
		<polygon class="st38" points="203.8,250.9 193.5,250.9 198.7,243.2 		"/>
		<polygon class="st37" points="214.1,264.7 206.3,263.8 200.2,274.1 		"/>
		<g>
			<polygon class="st37" points="187.6,262.5 187.6,259.8 179,262.5 			"/>
			<polygon class="st37" points="187.6,259.8 187.6,262.5 196.1,262.5 			"/>
		</g>
		<polygon class="st37" points="207,255.6 198.7,258.8 193.5,257.2 198.7,261.9 		"/>
		<polygon class="st38" points="204.5,230.7 215,243.9 213.8,246 		"/>
		<path class="st38" d="M194.4,274c0,0,0.4-2.5-2.1-3.3c-2.5-0.8-2.7,3.3-2.7,3.3H194.4z"/>
		<g>
			<polygon class="st37" points="187.5,266.4 187.5,263.8 179.8,266.4 			"/>
			<polygon class="st37" points="187.6,263.8 187.6,266.4 195.3,266.4 			"/>
		</g>
	</g>
</g>
<g>
	<g>
		<path class="st25" d="M295.9,223c-16.1,16.1-16.1,42.2,0,58.2l58.2-58.2C338,206.9,311.9,206.9,295.9,223z"/>
		<path class="st25" d="M354.1,223l-58.2,58.2c16.1,16.1,42.2,16.1,58.2,0C370.2,265.2,370.2,239.1,354.1,223z"/>
		<g>
			<path class="st25" d="M283.8,252.1c0,22.7,18.4,41.2,41.2,41.2l0-82.4C302.2,210.9,283.8,229.4,283.8,252.1z"/>
			<path class="st25" d="M325,210.9l0,82.4c22.7,0,41.2-18.4,41.2-41.2C366.2,229.4,347.7,210.9,325,210.9z"/>
		</g>
	</g>
	<linearGradient id="SVGID_6_" gradientUnits="userSpaceOnUse" x1="353.3035" y1="282.2867" x2="318.14" y2="247.1233">
		<stop  offset="0" style="stop-color:#000000;stop-opacity:0"/>
		<stop  offset="0.3187" style="stop-color:#2C2618;stop-opacity:0.1848"/>
		<stop  offset="0.5172" style="stop-color:#423A25;stop-opacity:0.3"/>
		<stop  offset="0.5238" style="stop-color:#453E26;stop-opacity:0.3096"/>
		<stop  offset="0.5828" style="stop-color:#5D6030;stop-opacity:0.3951"/>
		<stop  offset="0.6459" style="stop-color:#707C39;stop-opacity:0.4865"/>
		<stop  offset="0.7136" style="stop-color:#7F923F;stop-opacity:0.5847"/>
		<stop  offset="0.788" style="stop-color:#8AA144;stop-opacity:0.6925"/>
		<stop  offset="0.8742" style="stop-color:#90AA46;stop-opacity:0.8176"/>
		<stop  offset="1" style="stop-color:#92AD47"/>
	</linearGradient>
	<path class="st39" d="M331.5,230.5l-19.3,23.8l10.8,38.9c0,0,38.5,2.3,43.1-39.5L331.5,230.5"/>
</g>
<g>
	<path class="st40" d="M350.3,229.6l-24.3-7.5l-24.3,7.5l-7.3,14v26l6.1,6.3c4.5,4.6,10.6,7.2,17,7.2h8.6h13.1
		c3.5,0,6.9-1.4,9.4-3.9l9.2-9.5v-26L350.3,229.6z"/>
	<path class="st9" d="M310.2,256.4c-1.8-1.3-3.8,2.2-2.1,3.3s17.9,13.6,17.9,13.6v-13.6"/>
	<path class="st8" d="M350.4,237.8c-1.7-2.2-4.3-3.4-7.1-3.4h-12.4H326h-4.9h-10.2c-4.2,0-8.1,1.9-10.7,5.2l-2.2,2.8v22.4l5.7,6.7
		c3.1,3.6,7.5,5.9,12.3,6.3l10,0.8l12.2-1c3.3-0.3,6.4-1.8,8.5-4.4l7.2-8.4v-22.4L350.4,237.8z"/>
	<path class="st9" d="M314.4,240.8c0,0-12.8,1.3-13.8,6.8s2,7.8,2,7.8s4.2-5.3,7.6-4.5c3.4,0.8,6.9,1.5,8.4,0.3
		S322.8,240.8,314.4,240.8z"/>
	<polygon class="st41" points="314.4,243.8 310.2,248 317.3,248 	"/>
	<path class="st40" d="M330.4,272.1c0.9-0.9,1.9-1.7,2.9-2.5c4-3,8.5-6.9,10.6-10c0.4-0.6,2.3-3.4,2.1-3.5c-0.1,0-0.2,0-0.3,0.2
		c-0.8,0.8-6.8,2.9-10.4,3.3c-3.6,0.4-6.4,1.6-6.4,1.6l-2.9-0.5l-2.9,0.5c0,0-2.8-1.3-6.4-1.6s-9.6-2.5-10.4-3.3
		c-0.8-0.8-0.5,1.4,1.8,3.3c1.4,1.2,7.8,7.1,12.6,11.5c0.3,0.3,2.3,2.4,5.3,2.6C328.1,273.8,329.6,272.9,330.4,272.1z"/>
	<path class="st9" d="M337.6,240.8c0,0,12.8,1.3,13.8,6.8s-2,7.8-2,7.8s-4.2-5.3-7.6-4.5s-6.9,1.5-8.4,0.3S329.3,240.8,337.6,240.8z
		"/>
	<polygon class="st41" points="337.6,243.8 341.8,248 334.7,248 	"/>
	<path class="st41" d="M326,255.3c0,0-5.7-0.3-5.8,2.8c-0.1,3,5.8,6,5.8,6s5.9-3,5.8-6C331.7,255,326,255.3,326,255.3z"/>
	<ellipse class="st41" cx="326.2" cy="258.8" rx="3.8" ry="2.9"/>
	<path class="st41" d="M326,266.4c0,0-8.9-2.1-10-3.2c0,0,6.9,7.3,10,7.4c3.1-0.2,10-7.4,10-7.4C335,264.4,326,266.4,326,266.4z"/>
</g>
<g>
	<g>
		<path class="st25" d="M435.4,281.4c-16.1-16.1-16.1-42.2,0-58.2c16.1-16.1,42.2-16.1,58.2,0L435.4,281.4z"/>
		<path class="st25" d="M435.4,281.4c16.1,16.1,42.2,16.1,58.2,0c16.1-16.1,16.1-42.2,0-58.2L435.4,281.4z"/>
		<g>
			<path class="st25" d="M464.5,293.5c-22.7,0-41.2-18.4-41.2-41.2s18.4-41.2,41.2-41.2V293.5z"/>
			<path class="st25" d="M464.5,293.5c22.7,0,41.2-18.4,41.2-41.2s-18.4-41.2-41.2-41.2V293.5z"/>
		</g>
	</g>
	<linearGradient id="SVGID_7_" gradientUnits="userSpaceOnUse" x1="492.503" y1="282.5293" x2="457.4702" y2="247.4965">
		<stop  offset="0" style="stop-color:#000000;stop-opacity:0"/>
		<stop  offset="0.3187" style="stop-color:#2C2618;stop-opacity:0.1848"/>
		<stop  offset="0.5172" style="stop-color:#423A25;stop-opacity:0.3"/>
		<stop  offset="0.5238" style="stop-color:#453E26;stop-opacity:0.3096"/>
		<stop  offset="0.5828" style="stop-color:#5D6030;stop-opacity:0.3951"/>
		<stop  offset="0.6459" style="stop-color:#707C39;stop-opacity:0.4865"/>
		<stop  offset="0.7136" style="stop-color:#7F923F;stop-opacity:0.5847"/>
		<stop  offset="0.788" style="stop-color:#8AA144;stop-opacity:0.6925"/>
		<stop  offset="0.8742" style="stop-color:#90AA46;stop-opacity:0.8176"/>
		<stop  offset="1" style="stop-color:#92AD47"/>
	</linearGradient>
	<path class="st42" d="M471,230.7l-19.3,23.8l11,39.7c0,0,38.5,0,42.9-40L471,230.7"/>
</g>
<g>
	<polygon class="st17" points="459.1,237.2 459.2,236.9 467.6,207.4 472.9,237.2 	"/>
	<polygon class="st8" points="487.1,241.5 476.8,235.4 465.6,234.5 465.6,234.5 465.5,234.5 465.5,234.5 465.5,234.5 454.3,235.4 
		444,241.5 439.3,254.9 443.3,265.5 450.1,271.9 456.1,292.9 465.5,298 465.5,298 465.5,298 465.6,298 465.6,298 475,292.9 
		481,271.9 487.8,265.5 491.8,254.9 	"/>
	<polygon class="st8" points="452.5,236.5 446.1,230.4 442.3,229.2 442.3,233.7 444,241.5 	"/>
	<polygon class="st43" points="457.5,283.4 458.3,288.6 461.9,291.3 461.9,287.4 	"/>
	<polygon class="st43" points="449.5,255.8 455.2,249.8 458.9,256.4 	"/>
	<polygon class="st44" points="459.5,235.1 466.7,225.7 472.5,235.1 	"/>
	<polygon class="st43" points="445.3,240.4 443.4,233.7 443.4,231.4 445.3,231.9 450.5,236.7 	"/>
	<polygon class="st2" points="454.3,235.4 455.7,244.2 461.3,234.8 	"/>
	<polygon class="st2" points="461.3,234.8 466.1,247 469.8,234.8 465.6,234.5 	"/>
	<polygon class="st8" points="478.6,236.5 485,230.4 488.8,229.2 488.8,233.7 487.1,241.5 	"/>
	<polygon class="st43" points="473.6,283.4 472.8,288.6 469.2,291.3 469.2,287.4 	"/>
	<polygon class="st43" points="481.6,255.8 475.8,249.8 472.2,256.4 	"/>
	<polygon class="st43" points="485.8,240.4 487.7,233.7 487.7,231.4 485.8,231.9 480.6,236.7 	"/>
	<polygon class="st2" points="476.8,235.4 475.4,244.2 469.8,234.8 	"/>
	<polygon class="st45" points="443.3,265.5 448.3,262.6 454.8,266.3 457.9,266.3 457.9,281.1 452.2,271.4 448.8,271.9 	"/>
	<polygon class="st45" points="487.8,265.5 482.4,262.7 476,265.7 473,265.5 472.8,280.2 478,271.1 481.1,271.8 	"/>
</g>
<polygon class="st0" points="43.9,49.8 36.3,40.5 42.1,40.5 34.3,30.9 39.5,30.9 29.1,18.1 29.1,24.5 29.1,30.9 29.1,31.7 
	29.1,40.5 29.1,49 29.1,49 29.1,49 29.1,40.5 29.1,31.7 29.1,30.9 29.1,24.5 29.1,18.1 18.7,30.9 23.9,30.9 16.2,40.5 22,40.5 
	14.4,49.8 25.9,49.8 25.9,65.7 28.9,65.7 29.4,65.7 32.4,65.7 32.4,49.8 "/>
<g>
	<polygon class="st18" points="25.9,46.9 25.9,65.7 29.4,65.7 29.4,49.1 	"/>
	<polygon class="st11" points="18.7,30.9 23.9,30.9 16.2,40.5 22,40.5 14.4,49.8 29.1,49.8 29.1,40.5 29.1,31.7 29.1,30.9 
		29.1,24.5 29.1,18.1 	"/>
	<polygon class="st12" points="18.7,30.9 25.4,29.1 23.9,30.9 	"/>
	<polygon class="st34" points="32.4,46.9 32.4,65.7 28.9,65.7 28.9,49.1 	"/>
	<polygon class="st12" points="16.2,40.5 24.4,38 22,40.5 	"/>
	<polygon class="st35" points="39.5,30.9 34.3,30.9 42.1,40.5 36.3,40.5 43.9,49.8 29.1,49.8 29.1,40.5 29.1,31.7 29.1,30.9 
		29.1,24.5 29.1,18.1 	"/>
	<polygon class="st0" points="39.5,30.9 32.8,29.1 34.3,30.9 	"/>
	<polygon class="st0" points="42.1,40.5 33.8,38 36.3,40.5 	"/>
</g>
</svg>
