<?xml version="1.0" encoding="utf-8"?>
<!-- Generator: Adobe Illustrator 19.2.1, SVG Export Plug-In . SVG Version: 6.00 Build 0)  -->
<svg version="1.1" id="Layer_1" xmlns="http://www.w3.org/2000/svg" xmlns:xlink="http://www.w3.org/1999/xlink" x="0px" y="0px"
	 viewBox="0 0 67.7 88" style="enable-background:new 0 0 67.7 88;" xml:space="preserve">
<style type="text/css">
	.st0{fill:#282828;}
	.st1{fill:#C6724B;}
	.st2{fill:#897937;}
	.st3{fill:url(#SVGID_1_);}
	.st4{fill:#1E1D1D;}
	.st5{fill:#141414;}
	.st6{fill:#F21C1C;}
	.st7{fill:#CEC4C4;}
	.st8{fill:#A09D9D;}
	.st9{fill:#C11B1B;}
	.st10{fill:#36492A;}
	.st11{fill:#2C3A22;}
	.st12{fill:#938135;}
	.st13{fill:#7F6D20;}
	.st14{fill:#AA953D;}
	.st15{fill:#514512;}
	.st16{fill:#BCAC68;}
	.st17{fill:#C6AF4B;}
	.st18{clip-path:url(#SVGID_3_);fill:url(#SVGID_4_);}
	.st19{fill:#ED2B2B;}
	.st20{fill:#CE2929;}
	.st21{fill:#647532;}
	.st22{fill:#CDEAB0;}
	.st23{fill:#7B933B;}
	.st24{fill:#A0C64B;}
	.st25{fill:#C9C3A9;}
	.st26{fill:#AD9945;}
	.st27{fill:#D6C47C;}
	.st28{fill:#FFFFFF;}
	.st29{fill:#D8D8CB;}
	.st30{fill:#A31717;}
	.st31{fill:#C15B5B;}
	.st32{fill:#4BC6AF;}
	.st33{fill:#493E12;}
	.st34{fill:#2F3F25;}
	.st35{fill:#28331F;}
</style>
<g>
	<polygon class="st0" points="20.4,40 20.4,55.2 23.2,55.2 23.2,41.8 	"/>
	<polygon class="st0" points="14.6,27.1 18.8,27.1 12.5,34.8 17.2,34.8 11.1,42.4 23,42.4 23,34.8 23,27.7 23,27.1 23,21.9 23,16.7 
			"/>
	<polygon class="st0" points="14.6,27.1 20,25.6 18.8,27.1 	"/>
	<polygon class="st0" points="25.7,40 25.7,55.2 22.8,55.2 22.8,41.8 	"/>
	<polygon class="st0" points="12.5,34.8 19.2,32.8 17.2,34.8 	"/>
	<polygon class="st0" points="31.5,27.1 27.3,27.1 33.6,34.8 28.8,34.8 35,42.4 23,42.4 23,34.8 23,27.7 23,27.1 23,21.9 23,16.7 	
		"/>
	<polygon class="st0" points="31.5,27.1 26,25.6 27.3,27.1 	"/>
	<polygon class="st0" points="33.6,34.8 26.9,32.8 28.8,34.8 	"/>
</g>
<g>
	<polygon class="st0" points="39.7,37.7 39.7,56.5 43.2,56.5 43.2,40 	"/>
	<polygon class="st0" points="32.5,21.8 37.7,21.8 30,31.3 35.8,31.3 28.2,40.6 42.9,40.6 42.9,31.3 42.9,22.5 42.9,21.8 42.9,15.4 
		42.9,9 	"/>
	<polygon class="st0" points="32.5,21.8 39.2,20 37.7,21.8 	"/>
	<polygon class="st0" points="46.2,37.7 46.2,56.5 42.7,56.5 42.7,40 	"/>
	<polygon class="st0" points="30,31.3 38.2,28.8 35.8,31.3 	"/>
	<polygon class="st0" points="53.3,21.8 48.1,21.8 55.9,31.3 50.1,31.3 57.7,40.6 42.9,40.6 42.9,31.3 42.9,22.5 42.9,21.8 
		42.9,15.4 42.9,9 	"/>
	<polygon class="st0" points="53.3,21.8 46.6,20 48.1,21.8 	"/>
	<polygon class="st0" points="55.9,31.3 47.6,28.8 50.1,31.3 	"/>
</g>
<g>
	<polygon class="st15" points="18.9,40.4 18.9,55.5 21.8,55.5 21.8,42.1 	"/>
	<polygon class="st10" points="13.2,27.5 17.4,27.5 11.1,35.2 15.8,35.2 9.7,42.7 21.6,42.7 21.6,35.2 21.6,28.1 21.6,27.5 
		21.6,22.3 21.6,17.2 	"/>
	<polygon class="st11" points="13.2,27.5 18.6,26 17.4,27.5 	"/>
	<polygon class="st33" points="24.2,40.4 24.2,55.5 21.4,55.5 21.4,42.1 	"/>
	<polygon class="st11" points="11.1,35.2 17.8,33.2 15.8,35.2 	"/>
	<polygon class="st34" points="29.9,27.5 25.8,27.5 32,35.2 27.3,35.2 33.4,42.7 21.6,42.7 21.6,35.2 21.6,28.1 21.6,27.5 
		21.6,22.3 21.6,17.2 	"/>
	<polygon class="st35" points="29.9,27.5 24.5,26 25.8,27.5 	"/>
	<polygon class="st35" points="32,35.2 25.3,33.2 27.3,35.2 	"/>
</g>
<g>
	<polygon class="st15" points="37.8,37.7 37.8,56.5 41.3,56.5 41.3,40 	"/>
	<polygon class="st10" points="30.7,21.8 35.9,21.8 28.1,31.3 33.9,31.3 26.3,40.6 41.1,40.6 41.1,31.3 41.1,22.5 41.1,21.8 
		41.1,15.4 41.1,9 	"/>
	<polygon class="st11" points="30.7,21.8 37.4,20 35.9,21.8 	"/>
	<polygon class="st33" points="44.3,37.7 44.3,56.5 40.8,56.5 40.8,40 	"/>
	<polygon class="st11" points="28.1,31.3 36.4,28.8 33.9,31.3 	"/>
	<polygon class="st34" points="51.5,21.8 46.3,21.8 54,31.3 48.2,31.3 55.8,40.6 41.1,40.6 41.1,31.3 41.1,22.5 41.1,21.8 
		41.1,15.4 41.1,9 	"/>
	<polygon class="st35" points="51.5,21.8 44.8,20 46.3,21.8 	"/>
	<polygon class="st35" points="54,31.3 45.8,28.8 48.2,31.3 	"/>
</g>
<g>
	<polygon class="st0" points="36,53.5 36,72.2 39.5,72.2 39.5,55.7 	"/>
	<polygon class="st0" points="28.8,37.5 34,37.5 26.3,47.1 32.1,47.1 24.5,56.4 39.2,56.4 39.2,47.1 39.2,38.3 39.2,37.5 39.2,31.1 
		39.2,24.7 	"/>
	<polygon class="st0" points="28.8,37.5 35.5,35.7 34,37.5 	"/>
	<polygon class="st0" points="42.5,53.5 42.5,72.2 39,72.2 39,55.7 	"/>
	<polygon class="st0" points="26.3,47.1 34.5,44.6 32.1,47.1 	"/>
	<polygon class="st0" points="49.7,37.5 44.4,37.5 52.2,47.1 46.4,47.1 54,56.4 39.2,56.4 39.2,47.1 39.2,38.3 39.2,37.5 39.2,31.1 
		39.2,24.7 	"/>
	<polygon class="st0" points="49.7,37.5 42.9,35.7 44.4,37.5 	"/>
	<polygon class="st0" points="52.2,47.1 43.9,44.6 46.4,47.1 	"/>
</g>
<g>
	<polygon class="st15" points="34.1,53.5 34.1,72.3 37.6,72.3 37.6,55.7 	"/>
	<polygon class="st10" points="27,37.5 32.2,37.5 24.4,47.1 30.2,47.1 22.6,56.4 37.4,56.4 37.4,47.1 37.4,38.3 37.4,37.5 
		37.4,31.1 37.4,24.7 	"/>
	<polygon class="st11" points="27,37.5 33.7,35.7 32.2,37.5 	"/>
	<polygon class="st33" points="40.6,53.5 40.6,72.3 37.1,72.3 37.1,55.7 	"/>
	<polygon class="st11" points="24.4,47.1 32.7,44.6 30.2,47.1 	"/>
	<polygon class="st34" points="47.8,37.5 42.6,37.5 50.4,47.1 44.5,47.1 52.1,56.4 37.4,56.4 37.4,47.1 37.4,38.3 37.4,37.5 
		37.4,31.1 37.4,24.7 	"/>
	<polygon class="st35" points="47.8,37.5 41.1,35.7 42.6,37.5 	"/>
	<polygon class="st35" points="50.4,47.1 42.1,44.6 44.5,47.1 	"/>
</g>
</svg>
