<?xml version="1.0" encoding="utf-8"?>
<!-- Generator: Adobe Illustrator 19.2.1, SVG Export Plug-In . SVG Version: 6.00 Build 0)  -->
<svg version="1.1" id="Layer_1" xmlns="http://www.w3.org/2000/svg" xmlns:xlink="http://www.w3.org/1999/xlink" x="0px" y="0px"
	 viewBox="0 0 94.9 95.9" style="enable-background:new 0 0 94.9 95.9;" xml:space="preserve">
<style type="text/css">
	.st0{fill:#282828;}
	.st1{fill:#C6724B;}
	.st2{fill:#897937;}
	.st3{fill:url(#SVGID_1_);}
	.st4{fill:#1E1D1D;}
	.st5{fill:#141414;}
	.st6{fill:#F21C1C;}
	.st7{fill:#CEC4C4;}
	.st8{fill:#A09D9D;}
	.st9{fill:#C11B1B;}
	.st10{fill:#36492A;}
	.st11{fill:#2C3A22;}
	.st12{fill:#938135;}
	.st13{fill:#7F6D20;}
	.st14{fill:#AA953D;}
	.st15{fill:#BCAC68;}
	.st16{fill:#C6AF4B;}
	.st17{fill:#514512;}
	.st18{clip-path:url(#SVGID_3_);fill:url(#SVGID_4_);}
	.st19{fill:#ED2B2B;}
	.st20{fill:#CE2929;}
	.st21{fill:#647532;}
	.st22{fill:#CDEAB0;}
	.st23{fill:#7B933B;}
	.st24{fill:#A0C64B;}
	.st25{fill:#C9C3A9;}
	.st26{fill:#AD9945;}
	.st27{fill:#D6C47C;}
	.st28{fill:#FFFFFF;}
	.st29{fill:#D8D8CB;}
	.st30{fill:#A31717;}
	.st31{fill:#C15B5B;}
	.st32{fill:#4BC6AF;}
	.st33{fill:#493E12;}
	.st34{fill:#2F3F25;}
	.st35{fill:#28331F;}
	.st36{fill:url(#SVGID_5_);}
	.st37{fill:#AF6146;}
	.st38{fill:#93493B;}
	.st39{fill:url(#SVGID_6_);}
	.st40{fill:#565555;}
	.st41{fill:#4C4C4C;}
	.st42{fill:url(#SVGID_7_);}
	.st43{fill:#565454;}
	.st44{opacity:0.92;fill:#DDC04A;}
	.st45{fill:#B7B2B2;}
</style>
<g>
	<g>
		<path class="st24" d="M17.2,78.3c-16.1-16.1-16.1-42.2,0-58.2s42.2-16.1,58.2,0L17.2,78.3z"/>
		<path class="st24" d="M17.2,78.3c16.1,16.1,42.2,16.1,58.2,0s16.1-42.2,0-58.2L17.2,78.3z"/>
		<g>
			<path class="st24" d="M46.3,90.3c-22.7,0-41.2-18.4-41.2-41.2S23.6,8,46.3,8V90.3z"/>
			<path class="st24" d="M46.3,90.3c22.7,0,41.2-18.4,41.2-41.2S69.1,8,46.3,8V90.3z"/>
		</g>
	</g>
	<linearGradient id="SVGID_1_" gradientUnits="userSpaceOnUse" x1="74.3092" y1="79.4033" x2="39.2764" y2="44.3705">
		<stop  offset="0" style="stop-color:#000000;stop-opacity:0"/>
		<stop  offset="0.3187" style="stop-color:#2C2618;stop-opacity:0.1848"/>
		<stop  offset="0.5172" style="stop-color:#423A25;stop-opacity:0.3"/>
		<stop  offset="0.5238" style="stop-color:#453E26;stop-opacity:0.3096"/>
		<stop  offset="0.5828" style="stop-color:#5D6030;stop-opacity:0.3951"/>
		<stop  offset="0.6459" style="stop-color:#707C39;stop-opacity:0.4865"/>
		<stop  offset="0.7136" style="stop-color:#7F923F;stop-opacity:0.5847"/>
		<stop  offset="0.788" style="stop-color:#8AA144;stop-opacity:0.6925"/>
		<stop  offset="0.8742" style="stop-color:#90AA46;stop-opacity:0.8176"/>
		<stop  offset="1" style="stop-color:#92AD47"/>
	</linearGradient>
	<path class="st3" d="M52.8,27.6L33.6,51.4l11,39.7c0,0,38.5,0,42.9-40L52.8,27.6"/>
</g>
<g>
	<polygon class="st16" points="40.9,34.1 41,33.8 49.4,4.2 54.7,34.1 	"/>
	<polygon class="st7" points="69,38.4 58.6,32.2 47.4,31.4 47.4,31.4 47.4,31.4 47.3,31.4 47.3,31.4 36.1,32.2 25.8,38.4 21.1,51.7 
		25.1,62.4 31.9,68.7 37.9,89.7 47.3,94.8 47.3,94.9 47.4,94.9 47.4,94.9 47.4,94.8 56.8,89.7 62.8,68.7 69.6,62.4 73.6,51.7 	"/>
	<polygon class="st7" points="34.3,33.3 27.9,27.2 24.1,26.1 24.1,30.6 25.8,38.4 	"/>
	<polygon class="st43" points="39.3,80.3 40.1,85.5 43.7,88.2 43.7,84.2 	"/>
	<polygon class="st43" points="31.3,52.7 37.1,46.7 40.7,53.3 	"/>
	<polygon class="st44" points="41.3,32 48.5,22.6 54.3,31.9 	"/>
	<polygon class="st43" points="27.1,37.3 25.2,30.6 25.2,28.2 27.1,28.7 32.3,33.6 	"/>
	<polygon class="st1" points="36.1,32.2 37.5,41.1 43.1,31.7 	"/>
	<polygon class="st1" points="43.1,31.7 47.9,43.9 51.6,31.7 47.4,31.4 	"/>
	<polygon class="st7" points="60.5,33.3 66.8,27.2 70.6,26.1 70.6,30.6 69,38.4 	"/>
	<polygon class="st43" points="55.5,80.3 54.6,85.5 51,88.2 51,84.2 	"/>
	<polygon class="st43" points="63.4,52.7 57.7,46.7 54,53.3 	"/>
	<polygon class="st43" points="67.6,37.3 69.5,30.6 69.5,28.2 67.6,28.7 62.4,33.6 	"/>
	<polygon class="st1" points="58.6,32.2 57.2,41.1 51.6,31.7 	"/>
	<polygon class="st45" points="25.1,62.4 30.1,59.5 36.6,63.2 39.7,63.2 39.7,78 34,68.3 30.6,68.7 	"/>
	<polygon class="st45" points="69.6,62.4 64.2,59.5 57.8,62.6 54.9,62.4 54.6,77.1 59.8,67.9 62.9,68.7 	"/>
</g>
</svg>
