<?xml version="1.0" encoding="utf-8"?>
<!-- Generator: Adobe Illustrator 19.2.1, SVG Export Plug-In . SVG Version: 6.00 Build 0)  -->
<svg version="1.1" id="Layer_1" xmlns="http://www.w3.org/2000/svg" xmlns:xlink="http://www.w3.org/1999/xlink" x="0px" y="0px"
	 viewBox="0 0 94.9 95.9" style="enable-background:new 0 0 94.9 95.9;" xml:space="preserve">
<style type="text/css">
	.st0{fill:#282828;}
	.st1{fill:#C6724B;}
	.st2{fill:#897937;}
	.st3{fill:url(#SVGID_1_);}
	.st4{fill:#1E1D1D;}
	.st5{fill:#141414;}
	.st6{fill:#F21C1C;}
	.st7{fill:#CEC4C4;}
	.st8{fill:#A09D9D;}
	.st9{fill:#C11B1B;}
	.st10{fill:#36492A;}
	.st11{fill:#2C3A22;}
	.st12{fill:#938135;}
	.st13{fill:#7F6D20;}
	.st14{fill:#AA953D;}
	.st15{fill:#BCAC68;}
	.st16{fill:#C6AF4B;}
	.st17{fill:#514512;}
	.st18{clip-path:url(#SVGID_3_);fill:url(#SVGID_4_);}
	.st19{fill:#ED2B2B;}
	.st20{fill:#CE2929;}
	.st21{fill:#647532;}
	.st22{fill:#CDEAB0;}
	.st23{fill:#7B933B;}
	.st24{fill:#A0C64B;}
	.st25{fill:#C9C3A9;}
	.st26{fill:#AD9945;}
	.st27{fill:#D6C47C;}
	.st28{fill:#FFFFFF;}
	.st29{fill:#D8D8CB;}
	.st30{fill:#A31717;}
	.st31{fill:#C15B5B;}
	.st32{fill:#4BC6AF;}
	.st33{fill:#493E12;}
	.st34{fill:#2F3F25;}
	.st35{fill:#28331F;}
	.st36{fill:url(#SVGID_5_);}
	.st37{fill:#AF6146;}
	.st38{fill:#93493B;}
	.st39{fill:url(#SVGID_6_);}
	.st40{fill:#565555;}
	.st41{fill:#4C4C4C;}
	.st42{fill:url(#SVGID_7_);}
	.st43{fill:#565454;}
	.st44{opacity:0.92;fill:#DDC04A;}
	.st45{fill:#B7B2B2;}
</style>
<g>
	<path class="st10" d="M17.9,76C1.8,60,1.8,33.9,17.9,17.8s42.2-16.1,58.2,0L17.9,76z"/>
	<path class="st11" d="M17.9,76C34,92.1,60,92.1,76.1,76s16.1-42.2,0-58.2L17.9,76z"/>
	<polygon class="st0" points="69.9,38.9 77.7,11.9 48.9,32.4 20,11.9 27.8,38.9 14.4,53.4 31.6,68.4 36.3,69.7 43.8,82.2 48.9,83.9 
		48.9,83.9 48.9,83.9 48.9,83.9 48.9,83.9 53.9,82.2 61.4,69.7 66.1,68.4 83.3,53.4 	"/>
	<g>
		<polygon class="st12" points="68.1,37.9 75.8,10.9 47,31.4 18.2,10.9 25.9,37.9 12.6,52.4 29.8,67.4 34.4,68.7 41.9,81.2 47,82.9 
			47,82.9 47,82.9 47,82.9 47,82.9 52.1,81.2 59.6,68.7 64.2,67.4 81.4,52.4 		"/>
		<polygon class="st2" points="68.4,41.6 54.7,35.7 47,39.1 39.3,35.7 25.6,41.6 16.7,51.4 23.7,49.5 32.5,53.3 43.7,53.3 
			44.5,69.2 47,77.2 47,77.2 47,77.2 47,77.2 47,77.2 49.5,69.2 50.3,53.3 61.5,53.3 70.3,49.5 77.3,51.4 		"/>
		<polygon class="st13" points="29.8,46.4 35,46.4 39.3,49.8 34.3,50.9 		"/>
		<polygon class="st14" points="12.6,52.4 41,56.3 41.9,81.2 34.4,68.7 29.8,67.4 		"/>
		<path class="st15" d="M29.1,45.6l6-1l7.5,6.3l1.1-1.8c0,0-5.5-7.6-8.6-7.6S29.1,45.6,29.1,45.6z"/>
		<polygon class="st14" points="27.2,37.3 35.7,30.9 19.6,13.4 		"/>
		<polygon class="st2" points="29.7,35.7 32.5,33.4 24.2,21.7 		"/>
		<polygon class="st16" points="12.6,52.4 29.8,61.1 34.5,62.3 41.9,81.2 34.4,68.7 29.8,67.4 		"/>
		<polygon class="st17" points="29.8,46.4 34.5,48.7 39.3,49.8 35,46.4 		"/>
		<polygon class="st14" points="29.1,45.6 34.5,43.1 42.6,50.9 35,44.6 		"/>
		<polygon class="st16" points="33.7,32.4 19.6,13.4 35.7,30.9 		"/>
		<polygon class="st13" points="64.2,46.4 59,46.4 54.7,49.8 59.7,50.9 		"/>
		<polygon class="st14" points="81.4,52.4 53,56.3 52.1,81.2 59.6,68.7 64.2,67.4 		"/>
		<polygon class="st17" points="52.1,75.5 47,79.2 41.9,75.5 41.9,81.2 47,82.9 47,82.9 47,82.9 47,82.9 47,82.9 52.1,81.2 		"/>
		<path class="st15" d="M64.9,45.6l-6-1l-7.5,6.3l-1.1-1.8c0,0,5.5-7.6,8.6-7.6C62.1,41.6,64.9,45.6,64.9,45.6z"/>
		<polygon class="st14" points="66.7,37.3 58.3,30.9 74.4,13.4 		"/>
		<polygon class="st2" points="64.2,35.7 61.5,33.4 69.8,21.7 		"/>
		<polygon class="st16" points="81.4,52.4 64.2,61.1 59.5,62.3 52.1,81.2 59.6,68.7 64.2,67.4 		"/>
		<polygon class="st17" points="64.2,46.4 59.5,48.7 54.7,49.8 59,46.4 		"/>
		<polygon class="st14" points="64.9,45.6 59.5,43.1 51.4,50.9 58.9,44.6 		"/>
		<polygon class="st16" points="60.3,32.4 74.4,13.4 58.3,30.9 		"/>
	</g>
</g>
</svg>
