<?xml version="1.0" encoding="utf-8"?>
<!-- Generator: Adobe Illustrator 18.0.0, SVG Export Plug-In . SVG Version: 6.00 Build 0)  -->
<!DOCTYPE svg PUBLIC "-//W3C//DTD SVG 1.1//EN" "http://www.w3.org/Graphics/SVG/1.1/DTD/svg11.dtd">
<svg version="1.1" id="Layer_1" xmlns="http://www.w3.org/2000/svg" xmlns:xlink="http://www.w3.org/1999/xlink" x="0px" y="0px"
	 viewBox="0 0 1500 1060" style="enable-background:new 0 0 1500 1060;" xml:space="preserve">
<style type="text/css">
	.st0{fill:#B6DCE5;}
	.st1{fill:#A5DCE5;}
	.st2{fill:#FFFFFF;stroke:#000000;stroke-miterlimit:10;}
	.st3{fill:#FFF2C8;}
	.st4{fill:#FEED52;}
	.st5{fill:#583D15;}
	.st6{fill:#63441A;}
	.st7{fill:none;stroke:#000000;stroke-width:0.2;stroke-miterlimit:10;}
	.st8{fill:url(#SVGID_1_);}
	.st9{fill:#ED1F24;}
	.st10{fill:#EF3A47;}
	.st11{fill:url(#SVGID_2_);}
	.st12{fill:#F3FAFE;}
</style>
<rect y="0" class="st0" width="1499" height="1061.3"/>
<polygon class="st1" points="0.5,-1.3 1500.5,1059.3 1500.5,0 "/>
<circle class="st2" cx="1561" cy="382.6" r="10.4"/>
<g>
	
		<ellipse transform="matrix(0.9638 0.2665 -0.2665 0.9638 211.3873 -17.7407)" class="st3" cx="171.1" cy="770.1" rx="4.1" ry="5.7"/>
	<ellipse transform="matrix(0.866 -0.5 0.5 0.866 -351.5023 232.861)" class="st3" cx="258.8" cy="772.3" rx="4.1" ry="5.7"/>
	<path class="st3" d="M230.9,833.4v-39.2H221v37.2c0,0,4.7,4.3,9.8,0"/>
	<path class="st3" d="M206,831.5v-37.2h-9.8v37.2C196.1,831.5,200.8,835.8,206,831.5"/>
	<polygon class="st4" points="178.7,794.5 198.4,710.4 220.3,710.4 252.9,794.5 	"/>
	<path class="st4" d="M200.8,707.1c0,0-19.2,19.3-34.6,63.2l11.2,2L200.8,707.1z"/>
	<path class="st4" d="M220,716.2c0,0,20.5,15.3,42.9,54.4l-9.1,3.6L220,716.2z"/>
	<path class="st5" d="M205,628.7c0,0-45.2,2.8-17.2,74.3c28,71.5,88.9,41.4,88.9,41.4S268.8,612.5,205,628.7z"/>
	<g>
		<g>
			<path class="st6" d="M207.7,642.5c20.2-2.5,30.3,18.1,35.1,34.2c4.2,14,7.6,29.2,19.5,38.9c0.5,0.4,1.2-0.3,0.7-0.7
				c-15.2-12.4-16.1-33-23.2-49.9c-5.4-12.9-16.8-25.4-32.1-23.5C207.1,641.6,207.1,642.6,207.7,642.5L207.7,642.5z"/>
		</g>
	</g>
	<g>
		<g>
			<path class="st6" d="M268.2,738.2c-17.8-3.8-22.8-21.4-26.2-37c-0.1-0.6-1.1-0.4-1,0.3c3.4,15.9,8.8,33.8,26.8,37.7
				C268.6,739.3,268.9,738.4,268.2,738.2L268.2,738.2z"/>
		</g>
	</g>
	<g>
		<g>
			<path class="st6" d="M202.7,652.6c-2.1,30.8,26.4,53.9,24.1,84.7c0,0.6,1,0.6,1,0c2.3-30.8-26.2-53.9-24.1-84.7
				C203.7,652,202.7,652,202.7,652.6L202.7,652.6z"/>
		</g>
	</g>
	<g>
		<g>
			<path class="st6" d="M220.5,661.9c1.6,18.3,6.9,36,15.8,52.1c0.3,0.6,1.2,0.1,0.9-0.5c-8.7-16-14-33.4-15.6-51.6
				C221.5,661.3,220.5,661.3,220.5,661.9L220.5,661.9z"/>
		</g>
	</g>
	<g>
		<g>
			<path class="st6" d="M191.5,646.3c-8.2,24.2,5.8,47.1,18.7,66.6c0.4,0.5,1.2,0,0.9-0.5c-12.7-19.3-26.7-41.9-18.6-65.8
				C192.7,646,191.7,645.7,191.5,646.3L191.5,646.3z"/>
		</g>
	</g>
	<g>
		<g>
			<path class="st6" d="M242.6,651c5.8,7.9,10.7,16.4,14.2,25.6c3,7.7,4.4,16,8.7,23.1c0.3,0.6,1.2,0,0.9-0.5
				c-4.8-8-6.3-17.6-9.9-26.1c-3.4-8-7.8-15.6-13-22.6C243.1,649.9,242.2,650.4,242.6,651L242.6,651z"/>
		</g>
	</g>
	<path d="M206,831.2c-4.1,5-9.8,0-9.8,0v5.6c0,0,4.3,4,9.8,0V831.2z"/>
	<path d="M230.9,831.2c-4.1,5-9.8,0-9.8,0v5.6c0,0,4.3,4,9.8,0V831.2z"/>
</g>
<g>
	<path class="st7" d="M1212,184.1c0,0-7.3,4-0.5,9.5c0.5,0.4,0.9,0.8,1.3,1.2c1.8,2,5.9,7.5-0.4,11.2c0,0-6,3.6-0.2,8.1"/>
	<radialGradient id="SVGID_1_" cx="1212.2246" cy="174.3279" r="8.6349" gradientUnits="userSpaceOnUse">
		<stop  offset="7.516645e-008" style="stop-color:#EF4136"/>
		<stop  offset="8.066029e-002" style="stop-color:#EE3B32"/>
		<stop  offset="0.2823" style="stop-color:#ED2E2B"/>
		<stop  offset="0.5354" style="stop-color:#EC2627"/>
		<stop  offset="1" style="stop-color:#EC2327"/>
	</radialGradient>
	<ellipse class="st8" cx="1212.2" cy="174.3" rx="7.5" ry="9.6"/>
	<path class="st9" d="M1211.3,183.9l-0.6,0.6c0,0,0.3-0.3,0.6-0.1c0.3,0.2,0.3,0.5,0.3,0.5s0.2-0.3,0.6-0.1c0,0,0.4-0.6,0.7-0.4
		l-0.3-0.6l-1.1-0.1L1211.3,183.9z"/>
	<path class="st10" d="M1217.4,180c2.5-2.7,0.3-10.4,0.3-10.4l-1.6,0.5c0,0,2.4,7.3,1.6,8.7L1217.4,180z"/>
	<polygon class="st10" points="1215.2,167.8 1216.6,167.6 1217,168.9 1216.1,169.2 	"/>
</g>
<g>
	<path class="st7" d="M1609.2,395.5c0,0-5.8,3.2-0.4,7.5c0.4,0.3,0.7,0.6,1,0.9c1.4,1.6,4.6,5.9-0.3,8.8c0,0-4.7,2.8-0.1,6.4"/>
	<radialGradient id="SVGID_2_" cx="1609.3859" cy="387.9115" r="6.7783" gradientUnits="userSpaceOnUse">
		<stop  offset="7.516645e-008" style="stop-color:#EF4136"/>
		<stop  offset="8.066029e-002" style="stop-color:#EE3B32"/>
		<stop  offset="0.2823" style="stop-color:#ED2E2B"/>
		<stop  offset="0.5354" style="stop-color:#EC2627"/>
		<stop  offset="1" style="stop-color:#EC2327"/>
	</radialGradient>
	<ellipse class="st11" cx="1609.4" cy="387.9" rx="5.9" ry="7.5"/>
	<path class="st9" d="M1608.7,395.4l-0.5,0.5c0,0,0.2-0.2,0.5-0.1c0.2,0.1,0.2,0.4,0.2,0.4s0.1-0.3,0.5-0.1c0,0,0.3-0.4,0.5-0.3
		l-0.2-0.5l-0.9-0.1L1608.7,395.4z"/>
	<path class="st10" d="M1613.4,392.3c2-2.1,0.3-8.2,0.3-8.2l-1.3,0.4c0,0,1.9,5.7,1.3,6.8L1613.4,392.3z"/>
	<polygon class="st10" points="1611.7,382.8 1612.9,382.6 1613.2,383.7 1612.4,383.9 	"/>
</g>
<g>
	<ellipse class="st12" cx="1300.3" cy="80" rx="43" ry="37.2"/>
	<ellipse class="st12" cx="1374.6" cy="113.2" rx="47.2" ry="33.2"/>
	<ellipse class="st12" cx="1261.9" cy="115.5" rx="45.5" ry="40.1"/>
	<ellipse class="st12" cx="1319.9" cy="136.3" rx="40.1" ry="28.4"/>
</g>
<g>
	<ellipse class="st12" cx="1078.2" cy="84.8" rx="42.5" ry="20.5"/>
	<ellipse class="st12" cx="1125.5" cy="70.1" rx="39.2" ry="25.5"/>
	<ellipse class="st12" cx="1182.2" cy="82.2" rx="41.1" ry="23.1"/>
	<ellipse class="st12" cx="1116.3" cy="100.1" rx="38.2" ry="23.1"/>
	<ellipse class="st12" cx="1172.2" cy="100.1" rx="38.2" ry="23.1"/>
</g>
<ellipse class="st0" cx="-404" cy="320.6" rx="151" ry="75.6"/>
</svg>
