<?xml version="1.0" encoding="utf-8"?>
<!-- Generator: Adobe Illustrator 19.2.1, SVG Export Plug-In . SVG Version: 6.00 Build 0)  -->
<svg version="1.1" id="Layer_1" xmlns="http://www.w3.org/2000/svg" xmlns:xlink="http://www.w3.org/1999/xlink" x="0px" y="0px"
	 viewBox="0 0 2048 1536" style="enable-background:new 0 0 2048 1536;" xml:space="preserve">
<style type="text/css">
	.st0{fill:#212121;}
	.st1{fill:none;stroke:#2EADE3;stroke-miterlimit:10;}
	.st2{opacity:0.8;fill:url(#SVGID_1_);enable-background:new    ;}
	.st3{opacity:8.000000e-02;}
	.st4{fill:#141414;}
	.st5{enable-background:new    ;}
	.st6{fill:#2EADE3;}
	.st7{fill:none;}
</style>
<g id="Layer_4">
	<rect x="-2022" y="-171.5" class="st0" width="4939.6" height="1956.3"/>
</g>
<g id="Layer_2">
	<polygon class="st1" points="-1518.6,106.5 -1574.7,74.1 -1574.7,9.3 -1518.6,-23.1 -1462.4,9.3 -1462.4,74.1 	"/>
	<polygon class="st1" points="-1575,8.6 -1631.1,-23.8 -1631.1,-88.6 -1575,-121 -1518.8,-88.6 -1518.8,-23.8 	"/>
	<polygon class="st1" points="-1462.4,204.7 -1518.6,172.2 -1518.6,107.4 -1462.4,75 -1406.3,107.4 -1406.3,172.2 	"/>
	<polygon class="st1" points="-1346.1,207.5 -1402.2,175.1 -1402.2,110.3 -1346.1,77.9 -1290,110.3 -1290,175.1 	"/>
	<polygon class="st1" points="-1574.7,204.7 -1630.8,172.2 -1630.8,107.4 -1574.7,75 -1518.6,107.4 -1518.6,172.2 	"/>
	<polygon class="st1" points="-1518.6,304.3 -1574.7,271.9 -1574.7,207 -1518.6,174.6 -1462.4,207 -1462.4,271.9 	"/>
	<polygon class="st1" points="-1630.8,304.3 -1687,271.9 -1687,207 -1630.8,174.6 -1574.7,207 -1574.7,271.9 	"/>
	<polygon class="st1" points="-1406.3,304.3 -1462.4,271.9 -1462.4,207 -1406.3,174.6 -1350.1,207 -1350.1,271.9 	"/>
	<polygon class="st1" points="-1574.7,402.2 -1630.8,369.8 -1630.8,304.9 -1574.7,272.5 -1518.6,304.9 -1518.6,369.8 	"/>
	<polygon class="st1" points="-1687,402.2 -1743.1,369.8 -1743.1,304.9 -1687,272.5 -1630.8,304.9 -1630.8,369.8 	"/>
	<polygon class="st1" points="-1462.4,402.2 -1518.6,369.8 -1518.6,304.9 -1462.4,272.5 -1406.3,304.9 -1406.3,369.8 	"/>
	<polygon class="st1" points="-1518.6,502 -1574.7,469.6 -1574.7,404.8 -1518.6,372.4 -1462.4,404.8 -1462.4,469.6 	"/>
	<polygon class="st1" points="-1630.8,502 -1687,469.6 -1687,404.8 -1630.8,372.4 -1574.7,404.8 -1574.7,469.6 	"/>
	<polygon class="st1" points="-1406.3,502 -1462.4,469.6 -1462.4,404.8 -1406.3,372.4 -1350.1,404.8 -1350.1,469.6 	"/>
	<polygon class="st1" points="-1574.7,599.9 -1630.8,567.5 -1630.8,502.7 -1574.7,470.3 -1518.6,502.7 -1518.6,567.5 	"/>
	<polygon class="st1" points="-1687,599.9 -1743.1,567.5 -1743.1,502.7 -1687,470.3 -1630.8,502.7 -1630.8,567.5 	"/>
	<polygon class="st1" points="-1462.4,599.9 -1518.6,567.5 -1518.6,502.7 -1462.4,470.3 -1406.3,502.7 -1406.3,567.5 	"/>
	<polygon class="st1" points="-1518.6,699.8 -1574.7,667.3 -1574.7,602.5 -1518.6,570.1 -1462.4,602.5 -1462.4,667.3 	"/>
	<polygon class="st1" points="-1630.8,699.8 -1687,667.3 -1687,602.5 -1630.8,570.1 -1574.7,602.5 -1574.7,667.3 	"/>
	<polygon class="st1" points="-1406.3,699.8 -1462.4,667.3 -1462.4,602.5 -1406.3,570.1 -1350.1,602.5 -1350.1,667.3 	"/>
	<polygon class="st1" points="-1574.7,797.7 -1630.8,765.2 -1630.8,700.4 -1574.7,668 -1518.6,700.4 -1518.6,765.2 	"/>
	<polygon class="st1" points="-1687,797.7 -1743.1,765.2 -1743.1,700.4 -1687,668 -1630.8,700.4 -1630.8,765.2 	"/>
	<polygon class="st1" points="-1462.4,797.7 -1518.6,765.2 -1518.6,700.4 -1462.4,668 -1406.3,700.4 -1406.3,765.2 	"/>
	<polygon class="st1" points="-1518.6,897.5 -1574.7,865.1 -1574.7,800.3 -1518.6,767.8 -1462.4,800.3 -1462.4,865.1 	"/>
	<polygon class="st1" points="-1630.8,897.5 -1687,865.1 -1687,800.3 -1630.8,767.8 -1574.7,800.3 -1574.7,865.1 	"/>
	<polygon class="st1" points="-1406.3,897.5 -1462.4,865.1 -1462.4,800.3 -1406.3,767.8 -1350.1,800.3 -1350.1,865.1 	"/>
	<polygon class="st1" points="-1462.4,997.1 -1518.6,964.7 -1518.6,899.9 -1462.4,867.4 -1406.3,899.9 -1406.3,964.7 	"/>
	<polygon class="st1" points="-1574.7,997.1 -1630.8,964.7 -1630.8,899.9 -1574.7,867.4 -1518.6,899.9 -1518.6,964.7 	"/>
	<polygon class="st1" points="-1350.1,997.1 -1406.3,964.7 -1406.3,899.9 -1350.1,867.4 -1294,899.9 -1294,964.7 	"/>
	<polygon class="st1" points="-1518.6,1096.7 -1574.7,1064.3 -1574.7,999.5 -1518.6,967 -1462.4,999.5 -1462.4,1064.3 	"/>
	<polygon class="st1" points="-1630.8,1096.7 -1687,1064.3 -1687,999.5 -1630.8,967 -1574.7,999.5 -1574.7,1064.3 	"/>
	<polygon class="st1" points="-1406.3,1096.7 -1462.4,1064.3 -1462.4,999.5 -1406.3,967 -1350.1,999.5 -1350.1,1064.3 	"/>
	<polygon class="st1" points="-1462.4,1197.2 -1518.6,1164.7 -1518.6,1099.9 -1462.4,1067.5 -1406.3,1099.9 -1406.3,1164.7 	"/>
	<polygon class="st1" points="-1574.7,1197.2 -1630.8,1164.7 -1630.8,1099.9 -1574.7,1067.5 -1518.6,1099.9 -1518.6,1164.7 	"/>
	<polygon class="st1" points="-1350.1,1197.2 -1406.3,1164.7 -1406.3,1099.9 -1350.1,1067.5 -1294,1099.9 -1294,1164.7 	"/>
	<polygon class="st1" points="-1518.6,1296.5 -1574.7,1264.1 -1574.7,1199.3 -1518.6,1166.8 -1462.4,1199.3 -1462.4,1264.1 	"/>
	<polygon class="st1" points="-1630.8,1296.5 -1687,1264.1 -1687,1199.3 -1630.8,1166.8 -1574.7,1199.3 -1574.7,1264.1 	"/>
	<polygon class="st1" points="-1406.3,1296.5 -1462.4,1264.1 -1462.4,1199.3 -1406.3,1166.8 -1350.1,1199.3 -1350.1,1264.1 	"/>
	<polygon class="st1" points="-1462.4,1395.2 -1518.6,1362.8 -1518.6,1298 -1462.4,1265.6 -1406.3,1298 -1406.3,1362.8 	"/>
	<polygon class="st1" points="-1574.7,1395.2 -1630.8,1362.8 -1630.8,1298 -1574.7,1265.6 -1518.6,1298 -1518.6,1362.8 	"/>
	<polygon class="st1" points="-1350.1,1395.2 -1406.3,1362.8 -1406.3,1298 -1350.1,1265.6 -1294,1298 -1294,1362.8 	"/>
	<polygon class="st1" points="-1518.6,1492.3 -1574.7,1459.9 -1574.7,1395.1 -1518.6,1362.6 -1462.4,1395.1 -1462.4,1459.9 	"/>
	<polygon class="st1" points="-1630.8,1492.3 -1687,1459.9 -1687,1395.1 -1630.8,1362.6 -1574.7,1395.1 -1574.7,1459.9 	"/>
	<polygon class="st1" points="-1406.3,1492.3 -1462.4,1459.9 -1462.4,1395.1 -1406.3,1362.6 -1350.1,1395.1 -1350.1,1459.9 	"/>
	<polygon class="st1" points="-1462.4,1590.7 -1518.6,1558.3 -1518.6,1493.5 -1462.4,1461.1 -1406.3,1493.5 -1406.3,1558.3 	"/>
	<polygon class="st1" points="-1574.7,1590.7 -1630.8,1558.3 -1630.8,1493.5 -1574.7,1461.1 -1518.6,1493.5 -1518.6,1558.3 	"/>
	<polygon class="st1" points="-1350.1,1590.7 -1406.3,1558.3 -1406.3,1493.5 -1350.1,1461.1 -1294,1493.5 -1294,1558.3 	"/>
	<polygon class="st1" points="-1518.6,1687.8 -1574.7,1655.4 -1574.7,1590.5 -1518.6,1558.1 -1462.4,1590.5 -1462.4,1655.4 	"/>
	<polygon class="st1" points="-1630.8,1687.8 -1687,1655.4 -1687,1590.5 -1630.8,1558.1 -1574.7,1590.5 -1574.7,1655.4 	"/>
	<polygon class="st1" points="-1406.3,1687.8 -1462.4,1655.4 -1462.4,1590.5 -1406.3,1558.1 -1350.1,1590.5 -1350.1,1655.4 	"/>
	<polygon class="st1" points="-1462.4,9.7 -1518.6,-22.7 -1518.6,-87.5 -1462.4,-119.9 -1406.3,-87.5 -1406.3,-22.7 	"/>
	<polygon class="st1" points="-1346.1,9.7 -1402.2,-22.7 -1402.2,-87.5 -1346.1,-119.9 -1290,-87.5 -1290,-22.7 	"/>
	<polygon class="st1" points="-1406.3,106.5 -1462.4,74.1 -1462.4,9.3 -1406.3,-23.1 -1350.1,9.3 -1350.1,74.1 	"/>
	<polygon class="st1" points="-1290,109.4 -1346.1,77 -1346.1,12.1 -1290,-20.3 -1233.8,12.1 -1233.8,77 	"/>
	<polygon class="st1" points="-1177.7,109.4 -1233.8,77 -1233.8,12.1 -1177.7,-20.3 -1121.5,12.1 -1121.5,77 	"/>
	<polygon class="st1" points="-1234.1,11.5 -1290.2,-20.9 -1290.2,-85.8 -1234.1,-118.2 -1178,-85.8 -1178,-20.9 	"/>
	<polygon class="st1" points="-1121.5,207.5 -1177.7,175.1 -1177.7,110.3 -1121.5,77.9 -1065.4,110.3 -1065.4,175.1 	"/>
	<polygon class="st1" points="-1233.8,207.5 -1290,175.1 -1290,110.3 -1233.8,77.9 -1177.7,110.3 -1177.7,175.1 	"/>
	<polygon class="st1" points="-1177.7,307.1 -1233.8,274.7 -1233.8,209.9 -1177.7,177.5 -1121.5,209.9 -1121.5,274.7 	"/>
	<polygon class="st1" points="-1290,307.1 -1346.1,274.7 -1346.1,209.9 -1290,177.5 -1233.8,209.9 -1233.8,274.7 	"/>
	<polygon class="st1" points="-1065.4,307.1 -1121.5,274.7 -1121.5,209.9 -1065.4,177.5 -1009.2,209.9 -1009.2,274.7 	"/>
	<polygon class="st1" points="-1233.8,405 -1290,372.6 -1290,307.8 -1233.8,275.4 -1177.7,307.8 -1177.7,372.6 	"/>
	<polygon class="st1" points="-1346.1,405 -1402.2,372.6 -1402.2,307.8 -1346.1,275.4 -1290,307.8 -1290,372.6 	"/>
	<polygon class="st1" points="-1121.5,405 -1177.7,372.6 -1177.7,307.8 -1121.5,275.4 -1065.4,307.8 -1065.4,372.6 	"/>
	<polygon class="st1" points="-1177.7,504.9 -1233.8,472.5 -1233.8,407.6 -1177.7,375.2 -1121.5,407.6 -1121.5,472.5 	"/>
	<polygon class="st1" points="-1290,504.9 -1346.1,472.5 -1346.1,407.6 -1290,375.2 -1233.8,407.6 -1233.8,472.5 	"/>
	<polygon class="st1" points="-1065.4,504.9 -1121.5,472.5 -1121.5,407.6 -1065.4,375.2 -1009.2,407.6 -1009.2,472.5 	"/>
	<polygon class="st1" points="-1233.8,602.8 -1290,570.4 -1290,505.5 -1233.8,473.1 -1177.7,505.5 -1177.7,570.4 	"/>
	<polygon class="st1" points="-1346.1,602.8 -1402.2,570.4 -1402.2,505.5 -1346.1,473.1 -1290,505.5 -1290,570.4 	"/>
	<polygon class="st1" points="-1121.5,602.8 -1177.7,570.4 -1177.7,505.5 -1121.5,473.1 -1065.4,505.5 -1065.4,570.4 	"/>
	<polygon class="st1" points="-1177.7,702.6 -1233.8,670.2 -1233.8,605.4 -1177.7,573 -1121.5,605.4 -1121.5,670.2 	"/>
	<polygon class="st1" points="-1290,702.6 -1346.1,670.2 -1346.1,605.4 -1290,573 -1233.8,605.4 -1233.8,670.2 	"/>
	<polygon class="st1" points="-1065.4,702.6 -1121.5,670.2 -1121.5,605.4 -1065.4,573 -1009.2,605.4 -1009.2,670.2 	"/>
	<polygon class="st1" points="-1233.8,800.5 -1290,768.1 -1290,703.3 -1233.8,670.9 -1177.7,703.3 -1177.7,768.1 	"/>
	<polygon class="st1" points="-1346.1,800.5 -1402.2,768.1 -1402.2,703.3 -1346.1,670.9 -1290,703.3 -1290,768.1 	"/>
	<polygon class="st1" points="-1121.5,800.5 -1177.7,768.1 -1177.7,703.3 -1121.5,670.9 -1065.4,703.3 -1065.4,768.1 	"/>
	<polygon class="st1" points="-1177.7,900.4 -1233.8,867.9 -1233.8,803.1 -1177.7,770.7 -1121.5,803.1 -1121.5,867.9 	"/>
	<polygon class="st1" points="-1290,900.4 -1346.1,867.9 -1346.1,803.1 -1290,770.7 -1233.8,803.1 -1233.8,867.9 	"/>
	<polygon class="st1" points="-1065.4,900.4 -1121.5,867.9 -1121.5,803.1 -1065.4,770.7 -1009.2,803.1 -1009.2,867.9 	"/>
	<polygon class="st1" points="-1121.5,1000 -1177.7,967.5 -1177.7,902.7 -1121.5,870.3 -1065.4,902.7 -1065.4,967.5 	"/>
	<polygon class="st1" points="-1233.8,1000 -1290,967.5 -1290,902.7 -1233.8,870.3 -1177.7,902.7 -1177.7,967.5 	"/>
	<polygon class="st1" points="-1009.2,1000 -1065.4,967.5 -1065.4,902.7 -1009.2,870.3 -953.1,902.7 -953.1,967.5 	"/>
	<polygon class="st1" points="-1177.7,1099.6 -1233.8,1067.2 -1233.8,1002.3 -1177.7,969.9 -1121.5,1002.3 -1121.5,1067.2 	"/>
	<polygon class="st1" points="-1290,1099.6 -1346.1,1067.2 -1346.1,1002.3 -1290,969.9 -1233.8,1002.3 -1233.8,1067.2 	"/>
	<polygon class="st1" points="-1065.4,1099.6 -1121.5,1067.2 -1121.5,1002.3 -1065.4,969.9 -1009.2,1002.3 -1009.2,1067.2 	"/>
	<polygon class="st1" points="-1121.5,1200 -1177.7,1167.6 -1177.7,1102.8 -1121.5,1070.4 -1065.4,1102.8 -1065.4,1167.6 	"/>
	<polygon class="st1" points="-1233.8,1200 -1290,1167.6 -1290,1102.8 -1233.8,1070.4 -1177.7,1102.8 -1177.7,1167.6 	"/>
	<polygon class="st1" points="-1009.2,1200 -1065.4,1167.6 -1065.4,1102.8 -1009.2,1070.4 -953.1,1102.8 -953.1,1167.6 	"/>
	<polygon class="st1" points="-1177.7,1299.4 -1233.8,1266.9 -1233.8,1202.1 -1177.7,1169.7 -1121.5,1202.1 -1121.5,1266.9 	"/>
	<polygon class="st1" points="-1290,1299.4 -1346.1,1266.9 -1346.1,1202.1 -1290,1169.7 -1233.8,1202.1 -1233.8,1266.9 	"/>
	<polygon class="st1" points="-1065.4,1299.4 -1121.5,1266.9 -1121.5,1202.1 -1065.4,1169.7 -1009.2,1202.1 -1009.2,1266.9 	"/>
	<polygon class="st1" points="-1121.5,1398.1 -1177.7,1365.7 -1177.7,1300.9 -1121.5,1268.5 -1065.4,1300.9 -1065.4,1365.7 	"/>
	<polygon class="st1" points="-1233.8,1398.1 -1290,1365.7 -1290,1300.9 -1233.8,1268.5 -1177.7,1300.9 -1177.7,1365.7 	"/>
	<polygon class="st1" points="-1009.2,1398.1 -1065.4,1365.7 -1065.4,1300.9 -1009.2,1268.5 -953.1,1300.9 -953.1,1365.7 	"/>
	<polygon class="st1" points="-1177.7,1495.2 -1233.8,1462.7 -1233.8,1397.9 -1177.7,1365.5 -1121.5,1397.9 -1121.5,1462.7 	"/>
	<polygon class="st1" points="-1290,1495.2 -1346.1,1462.7 -1346.1,1397.9 -1290,1365.5 -1233.8,1397.9 -1233.8,1462.7 	"/>
	<polygon class="st1" points="-1065.4,1495.2 -1121.5,1462.7 -1121.5,1397.9 -1065.4,1365.5 -1009.2,1397.9 -1009.2,1462.7 	"/>
	<polygon class="st1" points="-1121.5,1593.6 -1177.7,1561.2 -1177.7,1496.3 -1121.5,1463.9 -1065.4,1496.3 -1065.4,1561.2 	"/>
	<polygon class="st1" points="-1233.8,1593.6 -1290,1561.2 -1290,1496.3 -1233.8,1463.9 -1177.7,1496.3 -1177.7,1561.2 	"/>
	<polygon class="st1" points="-1009.2,1593.6 -1065.4,1561.2 -1065.4,1496.3 -1009.2,1463.9 -953.1,1496.3 -953.1,1561.2 	"/>
	<polygon class="st1" points="-1177.7,1690.6 -1233.8,1658.2 -1233.8,1593.4 -1177.7,1561 -1121.5,1593.4 -1121.5,1658.2 	"/>
	<polygon class="st1" points="-1290,1690.6 -1346.1,1658.2 -1346.1,1593.4 -1290,1561 -1233.8,1593.4 -1233.8,1658.2 	"/>
	<polygon class="st1" points="-1065.4,1690.6 -1121.5,1658.2 -1121.5,1593.4 -1065.4,1561 -1009.2,1593.4 -1009.2,1658.2 	"/>
	<polygon class="st1" points="-1121.5,12.6 -1177.7,-19.8 -1177.7,-84.7 -1121.5,-117.1 -1065.4,-84.7 -1065.4,-19.8 	"/>
	<polygon class="st1" points="-1065.4,109.4 -1121.5,77 -1121.5,12.1 -1065.4,-20.3 -1009.2,12.1 -1009.2,77 	"/>
	<polygon class="st1" points="-1009.2,207.5 -1065.4,175.1 -1065.4,110.3 -1009.2,77.9 -953.1,110.3 -953.1,175.1 	"/>
	<polygon class="st1" points="-1009.2,9.7 -1065.4,-22.7 -1065.4,-87.5 -1009.2,-119.9 -953.1,-87.5 -953.1,-22.7 	"/>
	<polygon class="st1" points="-953.1,109.4 -1009.2,77 -1009.2,12.1 -953.1,-20.3 -896.9,12.1 -896.9,77 	"/>
	<polygon class="st1" points="-840.8,109.4 -896.9,77 -896.9,12.1 -840.8,-20.3 -784.7,12.1 -784.7,77 	"/>
	<polygon class="st1" points="-897.2,11.5 -953.4,-20.9 -953.4,-85.8 -897.2,-118.2 -841.1,-85.8 -841.1,-20.9 	"/>
	<polygon class="st1" points="-784.7,207.5 -840.8,175.1 -840.8,110.3 -784.7,77.9 -728.5,110.3 -728.5,175.1 	"/>
	<polygon class="st1" points="-896.9,207.5 -953.1,175.1 -953.1,110.3 -896.9,77.9 -840.8,110.3 -840.8,175.1 	"/>
	<polygon class="st1" points="-840.8,307.1 -896.9,274.7 -896.9,209.9 -840.8,177.5 -784.7,209.9 -784.7,274.7 	"/>
	<polygon class="st1" points="-953.1,307.1 -1009.2,274.7 -1009.2,209.9 -953.1,177.5 -896.9,209.9 -896.9,274.7 	"/>
	<polygon class="st1" points="-728.5,307.1 -784.7,274.7 -784.7,209.9 -728.5,177.5 -672.4,209.9 -672.4,274.7 	"/>
	<polygon class="st1" points="-896.9,405 -953.1,372.6 -953.1,307.8 -896.9,275.4 -840.8,307.8 -840.8,372.6 	"/>
	<polygon class="st1" points="-1009.2,405 -1065.4,372.6 -1065.4,307.8 -1009.2,275.4 -953.1,307.8 -953.1,372.6 	"/>
	<polygon class="st1" points="-784.7,405 -840.8,372.6 -840.8,307.8 -784.7,275.4 -728.5,307.8 -728.5,372.6 	"/>
	<polygon class="st1" points="-840.8,504.9 -896.9,472.5 -896.9,407.6 -840.8,375.2 -784.7,407.6 -784.7,472.5 	"/>
	<polygon class="st1" points="-953.1,504.9 -1009.2,472.5 -1009.2,407.6 -953.1,375.2 -896.9,407.6 -896.9,472.5 	"/>
	<polygon class="st1" points="-728.5,504.9 -784.7,472.5 -784.7,407.6 -728.5,375.2 -672.4,407.6 -672.4,472.5 	"/>
	<polygon class="st1" points="-896.9,602.8 -953.1,570.4 -953.1,505.5 -896.9,473.1 -840.8,505.5 -840.8,570.4 	"/>
	<polygon class="st1" points="-1009.2,602.8 -1065.4,570.4 -1065.4,505.5 -1009.2,473.1 -953.1,505.5 -953.1,570.4 	"/>
	<polygon class="st1" points="-784.7,602.8 -840.8,570.4 -840.8,505.5 -784.7,473.1 -728.5,505.5 -728.5,570.4 	"/>
	<polygon class="st1" points="-840.8,702.6 -896.9,670.2 -896.9,605.4 -840.8,573 -784.7,605.4 -784.7,670.2 	"/>
	<polygon class="st1" points="-953.1,702.6 -1009.2,670.2 -1009.2,605.4 -953.1,573 -896.9,605.4 -896.9,670.2 	"/>
	<polygon class="st1" points="-728.5,702.6 -784.7,670.2 -784.7,605.4 -728.5,573 -672.4,605.4 -672.4,670.2 	"/>
	<polygon class="st1" points="-896.9,800.5 -953.1,768.1 -953.1,703.3 -896.9,670.9 -840.8,703.3 -840.8,768.1 	"/>
	<polygon class="st1" points="-1009.2,800.5 -1065.4,768.1 -1065.4,703.3 -1009.2,670.9 -953.1,703.3 -953.1,768.1 	"/>
	<polygon class="st1" points="-784.7,800.5 -840.8,768.1 -840.8,703.3 -784.7,670.9 -728.5,703.3 -728.5,768.1 	"/>
	<polygon class="st1" points="-840.8,900.4 -896.9,867.9 -896.9,803.1 -840.8,770.7 -784.7,803.1 -784.7,867.9 	"/>
	<polygon class="st1" points="-953.1,900.4 -1009.2,867.9 -1009.2,803.1 -953.1,770.7 -896.9,803.1 -896.9,867.9 	"/>
	<polygon class="st1" points="-728.5,900.4 -784.7,867.9 -784.7,803.1 -728.5,770.7 -672.4,803.1 -672.4,867.9 	"/>
	<polygon class="st1" points="-784.7,1000 -840.8,967.5 -840.8,902.7 -784.7,870.3 -728.5,902.7 -728.5,967.5 	"/>
	<polygon class="st1" points="-896.9,1000 -953.1,967.5 -953.1,902.7 -896.9,870.3 -840.8,902.7 -840.8,967.5 	"/>
	<polygon class="st1" points="-672.4,1000 -728.5,967.5 -728.5,902.7 -672.4,870.3 -616.2,902.7 -616.2,967.5 	"/>
	<polygon class="st1" points="-840.8,1099.6 -896.9,1067.2 -896.9,1002.3 -840.8,969.9 -784.7,1002.3 -784.7,1067.2 	"/>
	<polygon class="st1" points="-953.1,1099.6 -1009.2,1067.2 -1009.2,1002.3 -953.1,969.9 -896.9,1002.3 -896.9,1067.2 	"/>
	<polygon class="st1" points="-728.5,1099.6 -784.7,1067.2 -784.7,1002.3 -728.5,969.9 -672.4,1002.3 -672.4,1067.2 	"/>
	<polygon class="st1" points="-784.7,1200 -840.8,1167.6 -840.8,1102.8 -784.7,1070.4 -728.5,1102.8 -728.5,1167.6 	"/>
	<polygon class="st1" points="-896.9,1200 -953.1,1167.6 -953.1,1102.8 -896.9,1070.4 -840.8,1102.8 -840.8,1167.6 	"/>
	<polygon class="st1" points="-672.4,1200 -728.5,1167.6 -728.5,1102.8 -672.4,1070.4 -616.2,1102.8 -616.2,1167.6 	"/>
	<polygon class="st1" points="-840.8,1299.4 -896.9,1266.9 -896.9,1202.1 -840.8,1169.7 -784.7,1202.1 -784.7,1266.9 	"/>
	<polygon class="st1" points="-953.1,1299.4 -1009.2,1266.9 -1009.2,1202.1 -953.1,1169.7 -896.9,1202.1 -896.9,1266.9 	"/>
	<polygon class="st1" points="-728.5,1299.4 -784.7,1266.9 -784.7,1202.1 -728.5,1169.7 -672.4,1202.1 -672.4,1266.9 	"/>
	<polygon class="st1" points="-784.7,1398.1 -840.8,1365.7 -840.8,1300.9 -784.7,1268.5 -728.5,1300.9 -728.5,1365.7 	"/>
	<polygon class="st1" points="-896.9,1398.1 -953.1,1365.7 -953.1,1300.9 -896.9,1268.5 -840.8,1300.9 -840.8,1365.7 	"/>
	<polygon class="st1" points="-672.4,1398.1 -728.5,1365.7 -728.5,1300.9 -672.4,1268.5 -616.2,1300.9 -616.2,1365.7 	"/>
	<polygon class="st1" points="-840.8,1495.2 -896.9,1462.7 -896.9,1397.9 -840.8,1365.5 -784.7,1397.9 -784.7,1462.7 	"/>
	<polygon class="st1" points="-953.1,1495.2 -1009.2,1462.7 -1009.2,1397.9 -953.1,1365.5 -896.9,1397.9 -896.9,1462.7 	"/>
	<polygon class="st1" points="-728.5,1495.2 -784.7,1462.7 -784.7,1397.9 -728.5,1365.5 -672.4,1397.9 -672.4,1462.7 	"/>
	<polygon class="st1" points="-784.7,1593.6 -840.8,1561.2 -840.8,1496.3 -784.7,1463.9 -728.5,1496.3 -728.5,1561.2 	"/>
	<polygon class="st1" points="-896.9,1593.6 -953.1,1561.2 -953.1,1496.3 -896.9,1463.9 -840.8,1496.3 -840.8,1561.2 	"/>
	<polygon class="st1" points="-672.4,1593.6 -728.5,1561.2 -728.5,1496.3 -672.4,1463.9 -616.2,1496.3 -616.2,1561.2 	"/>
	<polygon class="st1" points="-840.8,1690.6 -896.9,1658.2 -896.9,1593.4 -840.8,1561 -784.7,1593.4 -784.7,1658.2 	"/>
	<polygon class="st1" points="-953.1,1690.6 -1009.2,1658.2 -1009.2,1593.4 -953.1,1561 -896.9,1593.4 -896.9,1658.2 	"/>
	<polygon class="st1" points="-728.5,1690.6 -784.7,1658.2 -784.7,1593.4 -728.5,1561 -672.4,1593.4 -672.4,1658.2 	"/>
	<polygon class="st1" points="-784.7,12.6 -840.8,-19.8 -840.8,-84.7 -784.7,-117.1 -728.5,-84.7 -728.5,-19.8 	"/>
	<polygon class="st1" points="-728.5,109.4 -784.7,77 -784.7,12.1 -728.5,-20.3 -672.4,12.1 -672.4,77 	"/>
	<polygon class="st1" points="-668.4,207.5 -724.5,175.1 -724.5,110.3 -668.4,77.9 -612.2,110.3 -612.2,175.1 	"/>
	<polygon class="st1" points="-668.4,9.7 -724.5,-22.7 -724.5,-87.5 -668.4,-119.9 -612.2,-87.5 -612.2,-22.7 	"/>
	<polygon class="st1" points="-612.2,109.4 -668.4,77 -668.4,12.1 -612.2,-20.3 -556.1,12.1 -556.1,77 	"/>
	<polygon class="st1" points="-499.9,109.4 -556.1,77 -556.1,12.1 -499.9,-20.3 -443.8,12.1 -443.8,77 	"/>
	<polygon class="st1" points="-556.3,11.5 -612.5,-20.9 -612.5,-85.8 -556.3,-118.2 -500.2,-85.8 -500.2,-20.9 	"/>
	<polygon class="st1" points="-443.8,207.5 -499.9,175.1 -499.9,110.3 -443.8,77.9 -387.6,110.3 -387.6,175.1 	"/>
	<polygon class="st1" points="-556.1,207.5 -612.2,175.1 -612.2,110.3 -556.1,77.9 -499.9,110.3 -499.9,175.1 	"/>
	<polygon class="st1" points="-499.9,307.1 -556.1,274.7 -556.1,209.9 -499.9,177.5 -443.8,209.9 -443.8,274.7 	"/>
	<polygon class="st1" points="-612.2,307.1 -668.4,274.7 -668.4,209.9 -612.2,177.5 -556.1,209.9 -556.1,274.7 	"/>
	<polygon class="st1" points="-387.6,307.1 -443.8,274.7 -443.8,209.9 -387.6,177.5 -331.5,209.9 -331.5,274.7 	"/>
	<polygon class="st1" points="-556.1,405 -612.2,372.6 -612.2,307.8 -556.1,275.4 -499.9,307.8 -499.9,372.6 	"/>
	<polygon class="st1" points="-668.4,405 -724.5,372.6 -724.5,307.8 -668.4,275.4 -612.2,307.8 -612.2,372.6 	"/>
	<polygon class="st1" points="-443.8,405 -499.9,372.6 -499.9,307.8 -443.8,275.4 -387.6,307.8 -387.6,372.6 	"/>
	<polygon class="st1" points="-499.9,504.9 -556.1,472.5 -556.1,407.6 -499.9,375.2 -443.8,407.6 -443.8,472.5 	"/>
	<polygon class="st1" points="-612.2,504.9 -668.4,472.5 -668.4,407.6 -612.2,375.2 -556.1,407.6 -556.1,472.5 	"/>
	<polygon class="st1" points="-387.6,504.9 -443.8,472.5 -443.8,407.6 -387.6,375.2 -331.5,407.6 -331.5,472.5 	"/>
	<polygon class="st1" points="-556.1,602.8 -612.2,570.4 -612.2,505.5 -556.1,473.1 -499.9,505.5 -499.9,570.4 	"/>
	<polygon class="st1" points="-668.4,602.8 -724.5,570.4 -724.5,505.5 -668.4,473.1 -612.2,505.5 -612.2,570.4 	"/>
	<polygon class="st1" points="-443.8,602.8 -499.9,570.4 -499.9,505.5 -443.8,473.1 -387.6,505.5 -387.6,570.4 	"/>
	<polygon class="st1" points="-499.9,702.6 -556.1,670.2 -556.1,605.4 -499.9,573 -443.8,605.4 -443.8,670.2 	"/>
	<polygon class="st1" points="-612.2,702.6 -668.4,670.2 -668.4,605.4 -612.2,573 -556.1,605.4 -556.1,670.2 	"/>
	<polygon class="st1" points="-387.6,702.6 -443.8,670.2 -443.8,605.4 -387.6,573 -331.5,605.4 -331.5,670.2 	"/>
	<polygon class="st1" points="-556.1,800.5 -612.2,768.1 -612.2,703.3 -556.1,670.9 -499.9,703.3 -499.9,768.1 	"/>
	<polygon class="st1" points="-668.4,800.5 -724.5,768.1 -724.5,703.3 -668.4,670.9 -612.2,703.3 -612.2,768.1 	"/>
	<polygon class="st1" points="-443.8,800.5 -499.9,768.1 -499.9,703.3 -443.8,670.9 -387.6,703.3 -387.6,768.1 	"/>
	<polygon class="st1" points="-499.9,900.4 -556.1,867.9 -556.1,803.1 -499.9,770.7 -443.8,803.1 -443.8,867.9 	"/>
	<polygon class="st1" points="-612.2,900.4 -668.4,867.9 -668.4,803.1 -612.2,770.7 -556.1,803.1 -556.1,867.9 	"/>
	<polygon class="st1" points="-387.6,900.4 -443.8,867.9 -443.8,803.1 -387.6,770.7 -331.5,803.1 -331.5,867.9 	"/>
	<polygon class="st1" points="-443.8,1000 -499.9,967.5 -499.9,902.7 -443.8,870.3 -387.6,902.7 -387.6,967.5 	"/>
	<polygon class="st1" points="-556.1,1000 -612.2,967.5 -612.2,902.7 -556.1,870.3 -499.9,902.7 -499.9,967.5 	"/>
	<polygon class="st1" points="-331.5,1000 -387.6,967.5 -387.6,902.7 -331.5,870.3 -275.3,902.7 -275.3,967.5 	"/>
	<polygon class="st1" points="-499.9,1099.6 -556.1,1067.2 -556.1,1002.3 -499.9,969.9 -443.8,1002.3 -443.8,1067.2 	"/>
	<polygon class="st1" points="-612.2,1099.6 -668.4,1067.2 -668.4,1002.3 -612.2,969.9 -556.1,1002.3 -556.1,1067.2 	"/>
	<polygon class="st1" points="-387.6,1099.6 -443.8,1067.2 -443.8,1002.3 -387.6,969.9 -331.5,1002.3 -331.5,1067.2 	"/>
	<polygon class="st1" points="-443.8,1200 -499.9,1167.6 -499.9,1102.8 -443.8,1070.4 -387.6,1102.8 -387.6,1167.6 	"/>
	<polygon class="st1" points="-556.1,1200 -612.2,1167.6 -612.2,1102.8 -556.1,1070.4 -499.9,1102.8 -499.9,1167.6 	"/>
	<polygon class="st1" points="-331.5,1200 -387.6,1167.6 -387.6,1102.8 -331.5,1070.4 -275.3,1102.8 -275.3,1167.6 	"/>
	<polygon class="st1" points="-499.9,1299.4 -556.1,1266.9 -556.1,1202.1 -499.9,1169.7 -443.8,1202.1 -443.8,1266.9 	"/>
	<polygon class="st1" points="-612.2,1299.4 -668.4,1266.9 -668.4,1202.1 -612.2,1169.7 -556.1,1202.1 -556.1,1266.9 	"/>
	<polygon class="st1" points="-387.6,1299.4 -443.8,1266.9 -443.8,1202.1 -387.6,1169.7 -331.5,1202.1 -331.5,1266.9 	"/>
	<polygon class="st1" points="-443.8,1398.1 -499.9,1365.7 -499.9,1300.9 -443.8,1268.5 -387.6,1300.9 -387.6,1365.7 	"/>
	<polygon class="st1" points="-556.1,1398.1 -612.2,1365.7 -612.2,1300.9 -556.1,1268.5 -499.9,1300.9 -499.9,1365.7 	"/>
	<polygon class="st1" points="-331.5,1398.1 -387.6,1365.7 -387.6,1300.9 -331.5,1268.5 -275.3,1300.9 -275.3,1365.7 	"/>
	<polygon class="st1" points="-499.9,1495.2 -556.1,1462.7 -556.1,1397.9 -499.9,1365.5 -443.8,1397.9 -443.8,1462.7 	"/>
	<polygon class="st1" points="-612.2,1495.2 -668.4,1462.7 -668.4,1397.9 -612.2,1365.5 -556.1,1397.9 -556.1,1462.7 	"/>
	<polygon class="st1" points="-387.6,1495.2 -443.8,1462.7 -443.8,1397.9 -387.6,1365.5 -331.5,1397.9 -331.5,1462.7 	"/>
	<polygon class="st1" points="-443.8,1593.6 -499.9,1561.2 -499.9,1496.3 -443.8,1463.9 -387.6,1496.3 -387.6,1561.2 	"/>
	<polygon class="st1" points="-556.1,1593.6 -612.2,1561.2 -612.2,1496.3 -556.1,1463.9 -499.9,1496.3 -499.9,1561.2 	"/>
	<polygon class="st1" points="-331.5,1593.6 -387.6,1561.2 -387.6,1496.3 -331.5,1463.9 -275.3,1496.3 -275.3,1561.2 	"/>
	<polygon class="st1" points="-499.9,1690.6 -556.1,1658.2 -556.1,1593.4 -499.9,1561 -443.8,1593.4 -443.8,1658.2 	"/>
	<polygon class="st1" points="-612.2,1690.6 -668.4,1658.2 -668.4,1593.4 -612.2,1561 -556.1,1593.4 -556.1,1658.2 	"/>
	<polygon class="st1" points="-387.6,1690.6 -443.8,1658.2 -443.8,1593.4 -387.6,1561 -331.5,1593.4 -331.5,1658.2 	"/>
	<polygon class="st1" points="-443.8,12.6 -499.9,-19.8 -499.9,-84.7 -443.8,-117.1 -387.6,-84.7 -387.6,-19.8 	"/>
	<polygon class="st1" points="-387.6,109.4 -443.8,77 -443.8,12.1 -387.6,-20.3 -331.5,12.1 -331.5,77 	"/>
	<polygon class="st1" points="-331.5,208.4 -387.6,176 -387.6,111.2 -331.5,78.8 -275.3,111.2 -275.3,176 	"/>
	<polygon class="st1" points="-331.5,10.6 -387.6,-21.8 -387.6,-86.6 -331.5,-119.1 -275.3,-86.6 -275.3,-21.8 	"/>
	<polygon class="st1" points="-275.3,110.3 -331.5,77.9 -331.5,13 -275.3,-19.4 -219.2,13 -219.2,77.9 	"/>
	<polygon class="st1" points="-163.1,110.3 -219.2,77.9 -219.2,13 -163.1,-19.4 -106.9,13 -106.9,77.9 	"/>
	<polygon class="st1" points="-219.5,12.4 -275.6,-20 -275.6,-84.9 -219.5,-117.3 -163.3,-84.9 -163.3,-20 	"/>
	<polygon class="st1" points="-106.9,208.4 -163.1,176 -163.1,111.2 -106.9,78.8 -50.8,111.2 -50.8,176 	"/>
	<polygon class="st1" points="-219.2,208.4 -275.3,176 -275.3,111.2 -219.2,78.8 -163.1,111.2 -163.1,176 	"/>
	<polygon class="st1" points="-163.1,308 -219.2,275.6 -219.2,210.8 -163.1,178.4 -106.9,210.8 -106.9,275.6 	"/>
	<polygon class="st1" points="-275.3,308 -331.5,275.6 -331.5,210.8 -275.3,178.4 -219.2,210.8 -219.2,275.6 	"/>
	<polygon class="st1" points="-50.8,308 -106.9,275.6 -106.9,210.8 -50.8,178.4 5.4,210.8 5.4,275.6 	"/>
	<polygon class="st1" points="-219.2,405.9 -275.3,373.5 -275.3,308.7 -219.2,276.3 -163.1,308.7 -163.1,373.5 	"/>
	<polygon class="st1" points="-331.5,405.9 -387.6,373.5 -387.6,308.7 -331.5,276.3 -275.3,308.7 -275.3,373.5 	"/>
	<polygon class="st1" points="-106.9,405.9 -163.1,373.5 -163.1,308.7 -106.9,276.3 -50.8,308.7 -50.8,373.5 	"/>
	<polygon class="st1" points="-163.1,505.8 -219.2,473.3 -219.2,408.5 -163.1,376.1 -106.9,408.5 -106.9,473.3 	"/>
	<polygon class="st1" points="-275.3,505.8 -331.5,473.3 -331.5,408.5 -275.3,376.1 -219.2,408.5 -219.2,473.3 	"/>
	<polygon class="st1" points="-50.8,505.8 -106.9,473.3 -106.9,408.5 -50.8,376.1 5.4,408.5 5.4,473.3 	"/>
	<polygon class="st1" points="-219.2,603.7 -275.3,571.2 -275.3,506.4 -219.2,474 -163.1,506.4 -163.1,571.2 	"/>
	<polygon class="st1" points="-331.5,603.7 -387.6,571.2 -387.6,506.4 -331.5,474 -275.3,506.4 -275.3,571.2 	"/>
	<polygon class="st1" points="-106.9,603.7 -163.1,571.2 -163.1,506.4 -106.9,474 -50.8,506.4 -50.8,571.2 	"/>
	<polygon class="st1" points="-163.1,703.5 -219.2,671.1 -219.2,606.3 -163.1,573.8 -106.9,606.3 -106.9,671.1 	"/>
	<polygon class="st1" points="-275.3,703.5 -331.5,671.1 -331.5,606.3 -275.3,573.8 -219.2,606.3 -219.2,671.1 	"/>
	<polygon class="st1" points="-50.8,703.5 -106.9,671.1 -106.9,606.3 -50.8,573.8 5.4,606.3 5.4,671.1 	"/>
	<polygon class="st1" points="-219.2,801.4 -275.3,769 -275.3,704.2 -219.2,671.7 -163.1,704.2 -163.1,769 	"/>
	<polygon class="st1" points="-331.5,801.4 -387.6,769 -387.6,704.2 -331.5,671.7 -275.3,704.2 -275.3,769 	"/>
	<polygon class="st1" points="-106.9,801.4 -163.1,769 -163.1,704.2 -106.9,671.7 -50.8,704.2 -50.8,769 	"/>
	<polygon class="st1" points="-163.1,901.2 -219.2,868.8 -219.2,804 -163.1,771.6 -106.9,804 -106.9,868.8 	"/>
	<polygon class="st1" points="-275.3,901.2 -331.5,868.8 -331.5,804 -275.3,771.6 -219.2,804 -219.2,868.8 	"/>
	<polygon class="st1" points="-50.8,901.2 -106.9,868.8 -106.9,804 -50.8,771.6 5.4,804 5.4,868.8 	"/>
	<polygon class="st1" points="-106.9,1000.8 -163.1,968.4 -163.1,903.6 -106.9,871.2 -50.8,903.6 -50.8,968.4 	"/>
	<polygon class="st1" points="-219.2,1000.8 -275.3,968.4 -275.3,903.6 -219.2,871.2 -163.1,903.6 -163.1,968.4 	"/>
	<polygon class="st1" points="5.4,1000.8 -50.8,968.4 -50.8,903.6 5.4,871.2 61.5,903.6 61.5,968.4 	"/>
	<polygon class="st1" points="-163.1,1100.5 -219.2,1068 -219.2,1003.2 -163.1,970.8 -106.9,1003.2 -106.9,1068 	"/>
	<polygon class="st1" points="-275.3,1100.5 -331.5,1068 -331.5,1003.2 -275.3,970.8 -219.2,1003.2 -219.2,1068 	"/>
	<polygon class="st1" points="-50.8,1100.5 -106.9,1068 -106.9,1003.2 -50.8,970.8 5.4,1003.2 5.4,1068 	"/>
	<polygon class="st1" points="-106.9,1200.9 -163.1,1168.5 -163.1,1103.7 -106.9,1071.3 -50.8,1103.7 -50.8,1168.5 	"/>
	<polygon class="st1" points="-219.2,1200.9 -275.3,1168.5 -275.3,1103.7 -219.2,1071.3 -163.1,1103.7 -163.1,1168.5 	"/>
	<polygon class="st1" points="5.4,1200.9 -50.8,1168.5 -50.8,1103.7 5.4,1071.3 61.5,1103.7 61.5,1168.5 	"/>
	<polygon class="st1" points="-163.1,1300.2 -219.2,1267.8 -219.2,1203 -163.1,1170.6 -106.9,1203 -106.9,1267.8 	"/>
	<polygon class="st1" points="-275.3,1300.2 -331.5,1267.8 -331.5,1203 -275.3,1170.6 -219.2,1203 -219.2,1267.8 	"/>
	<polygon class="st1" points="-50.8,1300.2 -106.9,1267.8 -106.9,1203 -50.8,1170.6 5.4,1203 5.4,1267.8 	"/>
	<polygon class="st1" points="-106.9,1399 -163.1,1366.6 -163.1,1301.8 -106.9,1269.3 -50.8,1301.8 -50.8,1366.6 	"/>
	<polygon class="st1" points="-219.2,1399 -275.3,1366.6 -275.3,1301.8 -219.2,1269.3 -163.1,1301.8 -163.1,1366.6 	"/>
	<polygon class="st1" points="5.4,1399 -50.8,1366.6 -50.8,1301.8 5.4,1269.3 61.5,1301.8 61.5,1366.6 	"/>
	<polygon class="st1" points="-163.1,1496 -219.2,1463.6 -219.2,1398.8 -163.1,1366.4 -106.9,1398.8 -106.9,1463.6 	"/>
	<polygon class="st1" points="-275.3,1496 -331.5,1463.6 -331.5,1398.8 -275.3,1366.4 -219.2,1398.8 -219.2,1463.6 	"/>
	<polygon class="st1" points="-50.8,1496 -106.9,1463.6 -106.9,1398.8 -50.8,1366.4 5.4,1398.8 5.4,1463.6 	"/>
	<polygon class="st1" points="-106.9,1594.5 -163.1,1562.1 -163.1,1497.2 -106.9,1464.8 -50.8,1497.2 -50.8,1562.1 	"/>
	<polygon class="st1" points="-219.2,1594.5 -275.3,1562.1 -275.3,1497.2 -219.2,1464.8 -163.1,1497.2 -163.1,1562.1 	"/>
	<polygon class="st1" points="5.4,1594.5 -50.8,1562.1 -50.8,1497.2 5.4,1464.8 61.5,1497.2 61.5,1562.1 	"/>
	<polygon class="st1" points="-163.1,1691.5 -219.2,1659.1 -219.2,1594.3 -163.1,1561.9 -106.9,1594.3 -106.9,1659.1 	"/>
	<polygon class="st1" points="-275.3,1691.5 -331.5,1659.1 -331.5,1594.3 -275.3,1561.9 -219.2,1594.3 -219.2,1659.1 	"/>
	<polygon class="st1" points="-50.8,1691.5 -106.9,1659.1 -106.9,1594.3 -50.8,1561.9 5.4,1594.3 5.4,1659.1 	"/>
	<polygon class="st1" points="-106.9,13.5 -163.1,-19 -163.1,-83.8 -106.9,-116.2 -50.8,-83.8 -50.8,-19 	"/>
	<polygon class="st1" points="-50.8,110.3 -106.9,77.9 -106.9,13 -50.8,-19.4 5.4,13 5.4,77.9 	"/>
	<polygon class="st1" points="5.4,208.4 -50.8,176 -50.8,111.2 5.4,78.8 61.5,111.2 61.5,176 	"/>
	<polygon class="st1" points="5.4,10.6 -50.8,-21.8 -50.8,-86.6 5.4,-119.1 61.5,-86.6 61.5,-21.8 	"/>
	<polygon class="st1" points="61.5,110.3 5.4,77.9 5.4,13 61.5,-19.4 117.7,13 117.7,77.9 	"/>
	<polygon class="st1" points="173.8,110.3 117.7,77.9 117.7,13 173.8,-19.4 229.9,13 229.9,77.9 	"/>
	<polygon class="st1" points="117.4,12.4 61.2,-20 61.2,-84.9 117.4,-117.3 173.5,-84.9 173.5,-20 	"/>
	<polygon class="st1" points="229.9,208.4 173.8,176 173.8,111.2 229.9,78.8 286.1,111.2 286.1,176 	"/>
	<polygon class="st1" points="117.7,208.4 61.5,176 61.5,111.2 117.7,78.8 173.8,111.2 173.8,176 	"/>
	<polygon class="st1" points="173.8,308 117.7,275.6 117.7,210.8 173.8,178.4 229.9,210.8 229.9,275.6 	"/>
	<polygon class="st1" points="61.5,308 5.4,275.6 5.4,210.8 61.5,178.4 117.7,210.8 117.7,275.6 	"/>
	<polygon class="st1" points="286.1,308 229.9,275.6 229.9,210.8 286.1,178.4 342.2,210.8 342.2,275.6 	"/>
	<polygon class="st1" points="117.7,405.9 61.5,373.5 61.5,308.7 117.7,276.3 173.8,308.7 173.8,373.5 	"/>
	<polygon class="st1" points="5.4,405.9 -50.8,373.5 -50.8,308.7 5.4,276.3 61.5,308.7 61.5,373.5 	"/>
	<polygon class="st1" points="229.9,405.9 173.8,373.5 173.8,308.7 229.9,276.3 286.1,308.7 286.1,373.5 	"/>
	<polygon class="st1" points="173.8,505.8 117.7,473.3 117.7,408.5 173.8,376.1 229.9,408.5 229.9,473.3 	"/>
	<polygon class="st1" points="61.5,505.8 5.4,473.3 5.4,408.5 61.5,376.1 117.7,408.5 117.7,473.3 	"/>
	<polygon class="st1" points="286.1,505.8 229.9,473.3 229.9,408.5 286.1,376.1 342.2,408.5 342.2,473.3 	"/>
	<polygon class="st1" points="117.7,603.7 61.5,571.2 61.5,506.4 117.7,474 173.8,506.4 173.8,571.2 	"/>
	<polygon class="st1" points="5.4,603.7 -50.8,571.2 -50.8,506.4 5.4,474 61.5,506.4 61.5,571.2 	"/>
	<polygon class="st1" points="229.9,603.7 173.8,571.2 173.8,506.4 229.9,474 286.1,506.4 286.1,571.2 	"/>
	<polygon class="st1" points="173.8,703.5 117.7,671.1 117.7,606.3 173.8,573.8 229.9,606.3 229.9,671.1 	"/>
	<polygon class="st1" points="61.5,703.5 5.4,671.1 5.4,606.3 61.5,573.8 117.7,606.3 117.7,671.1 	"/>
	<polygon class="st1" points="286.1,703.5 229.9,671.1 229.9,606.3 286.1,573.8 342.2,606.3 342.2,671.1 	"/>
	<polygon class="st1" points="117.7,801.4 61.5,769 61.5,704.2 117.7,671.7 173.8,704.2 173.8,769 	"/>
	<polygon class="st1" points="5.4,801.4 -50.8,769 -50.8,704.2 5.4,671.7 61.5,704.2 61.5,769 	"/>
	<polygon class="st1" points="229.9,801.4 173.8,769 173.8,704.2 229.9,671.7 286.1,704.2 286.1,769 	"/>
	<polygon class="st1" points="173.8,901.2 117.7,868.8 117.7,804 173.8,771.6 229.9,804 229.9,868.8 	"/>
	<polygon class="st1" points="61.5,901.2 5.4,868.8 5.4,804 61.5,771.6 117.7,804 117.7,868.8 	"/>
	<polygon class="st1" points="286.1,901.2 229.9,868.8 229.9,804 286.1,771.6 342.2,804 342.2,868.8 	"/>
	<polygon class="st1" points="229.9,1000.8 173.8,968.4 173.8,903.6 229.9,871.2 286.1,903.6 286.1,968.4 	"/>
	<polygon class="st1" points="117.7,1000.8 61.5,968.4 61.5,903.6 117.7,871.2 173.8,903.6 173.8,968.4 	"/>
	<polygon class="st1" points="342.2,1000.8 286.1,968.4 286.1,903.6 342.2,871.2 398.4,903.6 398.4,968.4 	"/>
	<polygon class="st1" points="173.8,1100.5 117.7,1068 117.7,1003.2 173.8,970.8 229.9,1003.2 229.9,1068 	"/>
	<polygon class="st1" points="61.5,1100.5 5.4,1068 5.4,1003.2 61.5,970.8 117.7,1003.2 117.7,1068 	"/>
	<polygon class="st1" points="286.1,1100.5 229.9,1068 229.9,1003.2 286.1,970.8 342.2,1003.2 342.2,1068 	"/>
	<polygon class="st1" points="229.9,1200.9 173.8,1168.5 173.8,1103.7 229.9,1071.3 286.1,1103.7 286.1,1168.5 	"/>
	<polygon class="st1" points="117.7,1200.9 61.5,1168.5 61.5,1103.7 117.7,1071.3 173.8,1103.7 173.8,1168.5 	"/>
	<polygon class="st1" points="342.2,1200.9 286.1,1168.5 286.1,1103.7 342.2,1071.3 398.4,1103.7 398.4,1168.5 	"/>
	<polygon class="st1" points="173.8,1300.2 117.7,1267.8 117.7,1203 173.8,1170.6 229.9,1203 229.9,1267.8 	"/>
	<polygon class="st1" points="61.5,1300.2 5.4,1267.8 5.4,1203 61.5,1170.6 117.7,1203 117.7,1267.8 	"/>
	<polygon class="st1" points="286.1,1300.2 229.9,1267.8 229.9,1203 286.1,1170.6 342.2,1203 342.2,1267.8 	"/>
	<polygon class="st1" points="229.9,1399 173.8,1366.6 173.8,1301.8 229.9,1269.3 286.1,1301.8 286.1,1366.6 	"/>
	<polygon class="st1" points="117.7,1399 61.5,1366.6 61.5,1301.8 117.7,1269.3 173.8,1301.8 173.8,1366.6 	"/>
	<polygon class="st1" points="342.2,1399 286.1,1366.6 286.1,1301.8 342.2,1269.3 398.4,1301.8 398.4,1366.6 	"/>
	<polygon class="st1" points="173.8,1496 117.7,1463.6 117.7,1398.8 173.8,1366.4 229.9,1398.8 229.9,1463.6 	"/>
	<polygon class="st1" points="61.5,1496 5.4,1463.6 5.4,1398.8 61.5,1366.4 117.7,1398.8 117.7,1463.6 	"/>
	<polygon class="st1" points="286.1,1496 229.9,1463.6 229.9,1398.8 286.1,1366.4 342.2,1398.8 342.2,1463.6 	"/>
	<polygon class="st1" points="229.9,1594.5 173.8,1562.1 173.8,1497.2 229.9,1464.8 286.1,1497.2 286.1,1562.1 	"/>
	<polygon class="st1" points="117.7,1594.5 61.5,1562.1 61.5,1497.2 117.7,1464.8 173.8,1497.2 173.8,1562.1 	"/>
	<polygon class="st1" points="342.2,1594.5 286.1,1562.1 286.1,1497.2 342.2,1464.8 398.4,1497.2 398.4,1562.1 	"/>
	<polygon class="st1" points="173.8,1691.5 117.7,1659.1 117.7,1594.3 173.8,1561.9 229.9,1594.3 229.9,1659.1 	"/>
	<polygon class="st1" points="61.5,1691.5 5.4,1659.1 5.4,1594.3 61.5,1561.9 117.7,1594.3 117.7,1659.1 	"/>
	<polygon class="st1" points="286.1,1691.5 229.9,1659.1 229.9,1594.3 286.1,1561.9 342.2,1594.3 342.2,1659.1 	"/>
	<polygon class="st1" points="229.9,13.5 173.8,-19 173.8,-83.8 229.9,-116.2 286.1,-83.8 286.1,-19 	"/>
	<polygon class="st1" points="286.1,110.3 229.9,77.9 229.9,13 286.1,-19.4 342.2,13 342.2,77.9 	"/>
	<polygon class="st1" points="342.2,208.4 286.1,176 286.1,111.2 342.2,78.8 398.4,111.2 398.4,176 	"/>
	<polygon class="st1" points="342.2,10.6 286.1,-21.8 286.1,-86.6 342.2,-119.1 398.4,-86.6 398.4,-21.8 	"/>
	<polygon class="st1" points="398.4,110.3 342.2,77.9 342.2,13 398.4,-19.4 454.5,13 454.5,77.9 	"/>
	<polygon class="st1" points="510.7,110.3 454.5,77.9 454.5,13 510.7,-19.4 566.8,13 566.8,77.9 	"/>
	<polygon class="st1" points="454.2,12.4 398.1,-20 398.1,-84.9 454.2,-117.3 510.4,-84.9 510.4,-20 	"/>
	<polygon class="st1" points="566.8,208.4 510.7,176 510.7,111.2 566.8,78.8 622.9,111.2 622.9,176 	"/>
	<polygon class="st1" points="454.5,208.4 398.4,176 398.4,111.2 454.5,78.8 510.7,111.2 510.7,176 	"/>
	<polygon class="st1" points="510.7,308 454.5,275.6 454.5,210.8 510.7,178.4 566.8,210.8 566.8,275.6 	"/>
	<polygon class="st1" points="398.4,308 342.2,275.6 342.2,210.8 398.4,178.4 454.5,210.8 454.5,275.6 	"/>
	<polygon class="st1" points="622.9,308 566.8,275.6 566.8,210.8 622.9,178.4 679.1,210.8 679.1,275.6 	"/>
	<polygon class="st1" points="454.5,405.9 398.4,373.5 398.4,308.7 454.5,276.3 510.7,308.7 510.7,373.5 	"/>
	<polygon class="st1" points="342.2,405.9 286.1,373.5 286.1,308.7 342.2,276.3 398.4,308.7 398.4,373.5 	"/>
	<polygon class="st1" points="566.8,405.9 510.7,373.5 510.7,308.7 566.8,276.3 622.9,308.7 622.9,373.5 	"/>
	<polygon class="st1" points="510.7,505.8 454.5,473.3 454.5,408.5 510.7,376.1 566.8,408.5 566.8,473.3 	"/>
	<polygon class="st1" points="398.4,505.8 342.2,473.3 342.2,408.5 398.4,376.1 454.5,408.5 454.5,473.3 	"/>
	<polygon class="st1" points="622.9,505.8 566.8,473.3 566.8,408.5 622.9,376.1 679.1,408.5 679.1,473.3 	"/>
	<polygon class="st1" points="454.5,603.7 398.4,571.2 398.4,506.4 454.5,474 510.7,506.4 510.7,571.2 	"/>
	<polygon class="st1" points="342.2,603.7 286.1,571.2 286.1,506.4 342.2,474 398.4,506.4 398.4,571.2 	"/>
	<polygon class="st1" points="566.8,603.7 510.7,571.2 510.7,506.4 566.8,474 622.9,506.4 622.9,571.2 	"/>
	<polygon class="st1" points="510.7,703.5 454.5,671.1 454.5,606.3 510.7,573.8 566.8,606.3 566.8,671.1 	"/>
	<polygon class="st1" points="398.4,703.5 342.2,671.1 342.2,606.3 398.4,573.8 454.5,606.3 454.5,671.1 	"/>
	<polygon class="st1" points="622.9,703.5 566.8,671.1 566.8,606.3 622.9,573.8 679.1,606.3 679.1,671.1 	"/>
	<polygon class="st1" points="454.5,801.4 398.4,769 398.4,704.2 454.5,671.7 510.7,704.2 510.7,769 	"/>
	<polygon class="st1" points="342.2,801.4 286.1,769 286.1,704.2 342.2,671.7 398.4,704.2 398.4,769 	"/>
	<polygon class="st1" points="566.8,801.4 510.7,769 510.7,704.2 566.8,671.7 622.9,704.2 622.9,769 	"/>
	<polygon class="st1" points="510.7,901.2 454.5,868.8 454.5,804 510.7,771.6 566.8,804 566.8,868.8 	"/>
	<polygon class="st1" points="398.4,901.2 342.2,868.8 342.2,804 398.4,771.6 454.5,804 454.5,868.8 	"/>
	<polygon class="st1" points="622.9,901.2 566.8,868.8 566.8,804 622.9,771.6 679.1,804 679.1,868.8 	"/>
	<polygon class="st1" points="566.8,1000.8 510.7,968.4 510.7,903.6 566.8,871.2 622.9,903.6 622.9,968.4 	"/>
	<polygon class="st1" points="454.5,1000.8 398.4,968.4 398.4,903.6 454.5,871.2 510.7,903.6 510.7,968.4 	"/>
	<polygon class="st1" points="679.1,1000.8 622.9,968.4 622.9,903.6 679.1,871.2 735.2,903.6 735.2,968.4 	"/>
	<polygon class="st1" points="510.7,1100.5 454.5,1068 454.5,1003.2 510.7,970.8 566.8,1003.2 566.8,1068 	"/>
	<polygon class="st1" points="398.4,1100.5 342.2,1068 342.2,1003.2 398.4,970.8 454.5,1003.2 454.5,1068 	"/>
	<polygon class="st1" points="622.9,1100.5 566.8,1068 566.8,1003.2 622.9,970.8 679.1,1003.2 679.1,1068 	"/>
	<polygon class="st1" points="566.8,1200.9 510.7,1168.5 510.7,1103.7 566.8,1071.3 622.9,1103.7 622.9,1168.5 	"/>
	<polygon class="st1" points="454.5,1200.9 398.4,1168.5 398.4,1103.7 454.5,1071.3 510.7,1103.7 510.7,1168.5 	"/>
	<polygon class="st1" points="679.1,1200.9 622.9,1168.5 622.9,1103.7 679.1,1071.3 735.2,1103.7 735.2,1168.5 	"/>
	<polygon class="st1" points="510.7,1300.2 454.5,1267.8 454.5,1203 510.7,1170.6 566.8,1203 566.8,1267.8 	"/>
	<polygon class="st1" points="398.4,1300.2 342.2,1267.8 342.2,1203 398.4,1170.6 454.5,1203 454.5,1267.8 	"/>
	<polygon class="st1" points="622.9,1300.2 566.8,1267.8 566.8,1203 622.9,1170.6 679.1,1203 679.1,1267.8 	"/>
	<polygon class="st1" points="566.8,1399 510.7,1366.6 510.7,1301.8 566.8,1269.3 622.9,1301.8 622.9,1366.6 	"/>
	<polygon class="st1" points="454.5,1399 398.4,1366.6 398.4,1301.8 454.5,1269.3 510.7,1301.8 510.7,1366.6 	"/>
	<polygon class="st1" points="679.1,1399 622.9,1366.6 622.9,1301.8 679.1,1269.3 735.2,1301.8 735.2,1366.6 	"/>
	<polygon class="st1" points="510.7,1496 454.5,1463.6 454.5,1398.8 510.7,1366.4 566.8,1398.8 566.8,1463.6 	"/>
	<polygon class="st1" points="398.4,1496 342.2,1463.6 342.2,1398.8 398.4,1366.4 454.5,1398.8 454.5,1463.6 	"/>
	<polygon class="st1" points="622.9,1496 566.8,1463.6 566.8,1398.8 622.9,1366.4 679.1,1398.8 679.1,1463.6 	"/>
	<polygon class="st1" points="566.8,1594.5 510.7,1562.1 510.7,1497.2 566.8,1464.8 622.9,1497.2 622.9,1562.1 	"/>
	<polygon class="st1" points="454.5,1594.5 398.4,1562.1 398.4,1497.2 454.5,1464.8 510.7,1497.2 510.7,1562.1 	"/>
	<polygon class="st1" points="679.1,1594.5 622.9,1562.1 622.9,1497.2 679.1,1464.8 735.2,1497.2 735.2,1562.1 	"/>
	<polygon class="st1" points="510.7,1691.5 454.5,1659.1 454.5,1594.3 510.7,1561.9 566.8,1594.3 566.8,1659.1 	"/>
	<polygon class="st1" points="398.4,1691.5 342.2,1659.1 342.2,1594.3 398.4,1561.9 454.5,1594.3 454.5,1659.1 	"/>
	<polygon class="st1" points="622.9,1691.5 566.8,1659.1 566.8,1594.3 622.9,1561.9 679.1,1594.3 679.1,1659.1 	"/>
	<polygon class="st1" points="566.8,13.5 510.7,-19 510.7,-83.8 566.8,-116.2 622.9,-83.8 622.9,-19 	"/>
	<polygon class="st1" points="622.9,110.3 566.8,77.9 566.8,13 622.9,-19.4 679.1,13 679.1,77.9 	"/>
	<polygon class="st1" points="679.1,208.4 622.9,176 622.9,111.2 679.1,78.8 735.2,111.2 735.2,176 	"/>
	<polygon class="st1" points="679.1,10.6 622.9,-21.8 622.9,-86.6 679.1,-119.1 735.2,-86.6 735.2,-21.8 	"/>
	<polygon class="st1" points="735.2,110.3 679.1,77.9 679.1,13 735.2,-19.4 791.4,13 791.4,77.9 	"/>
	<polygon class="st1" points="847.5,110.3 791.4,77.9 791.4,13 847.5,-19.4 903.7,13 903.7,77.9 	"/>
	<polygon class="st1" points="791.1,12.4 735,-20 735,-84.9 791.1,-117.3 847.2,-84.9 847.2,-20 	"/>
	<polygon class="st1" points="903.7,208.4 847.5,176 847.5,111.2 903.7,78.8 959.8,111.2 959.8,176 	"/>
	<polygon class="st1" points="791.4,208.4 735.2,176 735.2,111.2 791.4,78.8 847.5,111.2 847.5,176 	"/>
	<polygon class="st1" points="847.5,308 791.4,275.6 791.4,210.8 847.5,178.4 903.7,210.8 903.7,275.6 	"/>
	<polygon class="st1" points="735.2,308 679.1,275.6 679.1,210.8 735.2,178.4 791.4,210.8 791.4,275.6 	"/>
	<polygon class="st1" points="959.8,308 903.7,275.6 903.7,210.8 959.8,178.4 1016,210.8 1016,275.6 	"/>
	<polygon class="st1" points="791.4,405.9 735.2,373.5 735.2,308.7 791.4,276.3 847.5,308.7 847.5,373.5 	"/>
	<polygon class="st1" points="679.1,405.9 622.9,373.5 622.9,308.7 679.1,276.3 735.2,308.7 735.2,373.5 	"/>
	<polygon class="st1" points="903.7,405.9 847.5,373.5 847.5,308.7 903.7,276.3 959.8,308.7 959.8,373.5 	"/>
	<polygon class="st1" points="847.5,505.8 791.4,473.3 791.4,408.5 847.5,376.1 903.7,408.5 903.7,473.3 	"/>
	<polygon class="st1" points="735.2,505.8 679.1,473.3 679.1,408.5 735.2,376.1 791.4,408.5 791.4,473.3 	"/>
	<polygon class="st1" points="959.8,505.8 903.7,473.3 903.7,408.5 959.8,376.1 1016,408.5 1016,473.3 	"/>
	<polygon class="st1" points="791.4,603.7 735.2,571.2 735.2,506.4 791.4,474 847.5,506.4 847.5,571.2 	"/>
	<polygon class="st1" points="679.1,603.7 622.9,571.2 622.9,506.4 679.1,474 735.2,506.4 735.2,571.2 	"/>
	<polygon class="st1" points="903.7,603.7 847.5,571.2 847.5,506.4 903.7,474 959.8,506.4 959.8,571.2 	"/>
	<polygon class="st1" points="847.5,703.5 791.4,671.1 791.4,606.3 847.5,573.8 903.7,606.3 903.7,671.1 	"/>
	<polygon class="st1" points="735.2,703.5 679.1,671.1 679.1,606.3 735.2,573.8 791.4,606.3 791.4,671.1 	"/>
	<polygon class="st1" points="959.8,703.5 903.7,671.1 903.7,606.3 959.8,573.8 1016,606.3 1016,671.1 	"/>
	<polygon class="st1" points="791.4,801.4 735.2,769 735.2,704.2 791.4,671.7 847.5,704.2 847.5,769 	"/>
	<polygon class="st1" points="679.1,801.4 622.9,769 622.9,704.2 679.1,671.7 735.2,704.2 735.2,769 	"/>
	<polygon class="st1" points="903.7,801.4 847.5,769 847.5,704.2 903.7,671.7 959.8,704.2 959.8,769 	"/>
	<polygon class="st1" points="847.5,901.2 791.4,868.8 791.4,804 847.5,771.6 903.7,804 903.7,868.8 	"/>
	<polygon class="st1" points="735.2,901.2 679.1,868.8 679.1,804 735.2,771.6 791.4,804 791.4,868.8 	"/>
	<polygon class="st1" points="959.8,901.2 903.7,868.8 903.7,804 959.8,771.6 1016,804 1016,868.8 	"/>
	<polygon class="st1" points="903.7,1000.8 847.5,968.4 847.5,903.6 903.7,871.2 959.8,903.6 959.8,968.4 	"/>
	<polygon class="st1" points="791.4,1000.8 735.2,968.4 735.2,903.6 791.4,871.2 847.5,903.6 847.5,968.4 	"/>
	<polygon class="st1" points="1016,1000.8 959.8,968.4 959.8,903.6 1016,871.2 1072.1,903.6 1072.1,968.4 	"/>
	<polygon class="st1" points="847.5,1100.5 791.4,1068 791.4,1003.2 847.5,970.8 903.7,1003.2 903.7,1068 	"/>
	<polygon class="st1" points="735.2,1100.5 679.1,1068 679.1,1003.2 735.2,970.8 791.4,1003.2 791.4,1068 	"/>
	<polygon class="st1" points="959.8,1100.5 903.7,1068 903.7,1003.2 959.8,970.8 1016,1003.2 1016,1068 	"/>
	<polygon class="st1" points="903.7,1200.9 847.5,1168.5 847.5,1103.7 903.7,1071.3 959.8,1103.7 959.8,1168.5 	"/>
	<polygon class="st1" points="791.4,1200.9 735.2,1168.5 735.2,1103.7 791.4,1071.3 847.5,1103.7 847.5,1168.5 	"/>
	<polygon class="st1" points="1016,1200.9 959.8,1168.5 959.8,1103.7 1016,1071.3 1072.1,1103.7 1072.1,1168.5 	"/>
	<polygon class="st1" points="847.5,1300.2 791.4,1267.8 791.4,1203 847.5,1170.6 903.7,1203 903.7,1267.8 	"/>
	<polygon class="st1" points="735.2,1300.2 679.1,1267.8 679.1,1203 735.2,1170.6 791.4,1203 791.4,1267.8 	"/>
	<polygon class="st1" points="959.8,1300.2 903.7,1267.8 903.7,1203 959.8,1170.6 1016,1203 1016,1267.8 	"/>
	<polygon class="st1" points="903.7,1399 847.5,1366.6 847.5,1301.8 903.7,1269.3 959.8,1301.8 959.8,1366.6 	"/>
	<polygon class="st1" points="791.4,1399 735.2,1366.6 735.2,1301.8 791.4,1269.3 847.5,1301.8 847.5,1366.6 	"/>
	<polygon class="st1" points="1016,1399 959.8,1366.6 959.8,1301.8 1016,1269.3 1072.1,1301.8 1072.1,1366.6 	"/>
	<polygon class="st1" points="847.5,1496 791.4,1463.6 791.4,1398.8 847.5,1366.4 903.7,1398.8 903.7,1463.6 	"/>
	<polygon class="st1" points="735.2,1496 679.1,1463.6 679.1,1398.8 735.2,1366.4 791.4,1398.8 791.4,1463.6 	"/>
	<polygon class="st1" points="959.8,1496 903.7,1463.6 903.7,1398.8 959.8,1366.4 1016,1398.8 1016,1463.6 	"/>
	<polygon class="st1" points="903.7,1594.5 847.5,1562.1 847.5,1497.2 903.7,1464.8 959.8,1497.2 959.8,1562.1 	"/>
	<polygon class="st1" points="791.4,1594.5 735.2,1562.1 735.2,1497.2 791.4,1464.8 847.5,1497.2 847.5,1562.1 	"/>
	<polygon class="st1" points="1016,1594.5 959.8,1562.1 959.8,1497.2 1016,1464.8 1072.1,1497.2 1072.1,1562.1 	"/>
	<polygon class="st1" points="847.5,1691.5 791.4,1659.1 791.4,1594.3 847.5,1561.9 903.7,1594.3 903.7,1659.1 	"/>
	<polygon class="st1" points="735.2,1691.5 679.1,1659.1 679.1,1594.3 735.2,1561.9 791.4,1594.3 791.4,1659.1 	"/>
	<polygon class="st1" points="959.8,1691.5 903.7,1659.1 903.7,1594.3 959.8,1561.9 1016,1594.3 1016,1659.1 	"/>
	<polygon class="st1" points="903.7,13.5 847.5,-19 847.5,-83.8 903.7,-116.2 959.8,-83.8 959.8,-19 	"/>
	<polygon class="st1" points="959.8,110.3 903.7,77.9 903.7,13 959.8,-19.4 1016,13 1016,77.9 	"/>
	<polygon class="st1" points="1016,208.4 959.8,176 959.8,111.2 1016,78.8 1072.1,111.2 1072.1,176 	"/>
	<polygon class="st1" points="1016,10.6 959.8,-21.8 959.8,-86.6 1016,-119.1 1072.1,-86.6 1072.1,-21.8 	"/>
	<polygon class="st1" points="1072.1,110.3 1016,77.9 1016,13 1072.1,-19.4 1128.2,13 1128.2,77.9 	"/>
	<polygon class="st1" points="1184.4,110.3 1128.2,77.9 1128.2,13 1184.4,-19.4 1240.5,13 1240.5,77.9 	"/>
	<polygon class="st1" points="1128,12.4 1071.8,-20 1071.8,-84.9 1128,-117.3 1184.1,-84.9 1184.1,-20 	"/>
	<polygon class="st1" points="1240.5,208.4 1184.4,176 1184.4,111.2 1240.5,78.8 1296.7,111.2 1296.7,176 	"/>
	<polygon class="st1" points="1128.2,208.4 1072.1,176 1072.1,111.2 1128.2,78.8 1184.4,111.2 1184.4,176 	"/>
	<polygon class="st1" points="1184.4,308 1128.2,275.6 1128.2,210.8 1184.4,178.4 1240.5,210.8 1240.5,275.6 	"/>
	<polygon class="st1" points="1072.1,308 1016,275.6 1016,210.8 1072.1,178.4 1128.2,210.8 1128.2,275.6 	"/>
	<polygon class="st1" points="1296.7,308 1240.5,275.6 1240.5,210.8 1296.7,178.4 1352.8,210.8 1352.8,275.6 	"/>
	<polygon class="st1" points="1128.2,405.9 1072.1,373.5 1072.1,308.7 1128.2,276.3 1184.4,308.7 1184.4,373.5 	"/>
	<polygon class="st1" points="1016,405.9 959.8,373.5 959.8,308.7 1016,276.3 1072.1,308.7 1072.1,373.5 	"/>
	<polygon class="st1" points="1240.5,405.9 1184.4,373.5 1184.4,308.7 1240.5,276.3 1296.7,308.7 1296.7,373.5 	"/>
	<polygon class="st1" points="1184.4,505.8 1128.2,473.3 1128.2,408.5 1184.4,376.1 1240.5,408.5 1240.5,473.3 	"/>
	<polygon class="st1" points="1072.1,505.8 1016,473.3 1016,408.5 1072.1,376.1 1128.2,408.5 1128.2,473.3 	"/>
	<polygon class="st1" points="1296.7,505.8 1240.5,473.3 1240.5,408.5 1296.7,376.1 1352.8,408.5 1352.8,473.3 	"/>
	<polygon class="st1" points="1128.2,603.7 1072.1,571.2 1072.1,506.4 1128.2,474 1184.4,506.4 1184.4,571.2 	"/>
	<polygon class="st1" points="1016,603.7 959.8,571.2 959.8,506.4 1016,474 1072.1,506.4 1072.1,571.2 	"/>
	<polygon class="st1" points="1240.5,603.7 1184.4,571.2 1184.4,506.4 1240.5,474 1296.7,506.4 1296.7,571.2 	"/>
	<polygon class="st1" points="1184.4,703.5 1128.2,671.1 1128.2,606.3 1184.4,573.8 1240.5,606.3 1240.5,671.1 	"/>
	<polygon class="st1" points="1072.1,703.5 1016,671.1 1016,606.3 1072.1,573.8 1128.2,606.3 1128.2,671.1 	"/>
	<polygon class="st1" points="1296.7,703.5 1240.5,671.1 1240.5,606.3 1296.7,573.8 1352.8,606.3 1352.8,671.1 	"/>
	<polygon class="st1" points="1128.2,801.4 1072.1,769 1072.1,704.2 1128.2,671.7 1184.4,704.2 1184.4,769 	"/>
	<polygon class="st1" points="1016,801.4 959.8,769 959.8,704.2 1016,671.7 1072.1,704.2 1072.1,769 	"/>
	<polygon class="st1" points="1240.5,801.4 1184.4,769 1184.4,704.2 1240.5,671.7 1296.7,704.2 1296.7,769 	"/>
	<polygon class="st1" points="1184.4,901.2 1128.2,868.8 1128.2,804 1184.4,771.6 1240.5,804 1240.5,868.8 	"/>
	<polygon class="st1" points="1072.1,901.2 1016,868.8 1016,804 1072.1,771.6 1128.2,804 1128.2,868.8 	"/>
	<polygon class="st1" points="1296.7,901.2 1240.5,868.8 1240.5,804 1296.7,771.6 1352.8,804 1352.8,868.8 	"/>
	<polygon class="st1" points="1240.5,1000.8 1184.4,968.4 1184.4,903.6 1240.5,871.2 1296.7,903.6 1296.7,968.4 	"/>
	<polygon class="st1" points="1128.2,1000.8 1072.1,968.4 1072.1,903.6 1128.2,871.2 1184.4,903.6 1184.4,968.4 	"/>
	<polygon class="st1" points="1352.8,1000.8 1296.7,968.4 1296.7,903.6 1352.8,871.2 1409,903.6 1409,968.4 	"/>
	<polygon class="st1" points="1184.4,1100.5 1128.2,1068 1128.2,1003.2 1184.4,970.8 1240.5,1003.2 1240.5,1068 	"/>
	<polygon class="st1" points="1072.1,1100.5 1016,1068 1016,1003.2 1072.1,970.8 1128.2,1003.2 1128.2,1068 	"/>
	<polygon class="st1" points="1296.7,1100.5 1240.5,1068 1240.5,1003.2 1296.7,970.8 1352.8,1003.2 1352.8,1068 	"/>
	<polygon class="st1" points="1240.5,1200.9 1184.4,1168.5 1184.4,1103.7 1240.5,1071.3 1296.7,1103.7 1296.7,1168.5 	"/>
	<polygon class="st1" points="1128.2,1200.9 1072.1,1168.5 1072.1,1103.7 1128.2,1071.3 1184.4,1103.7 1184.4,1168.5 	"/>
	<polygon class="st1" points="1352.8,1200.9 1296.7,1168.5 1296.7,1103.7 1352.8,1071.3 1409,1103.7 1409,1168.5 	"/>
	<polygon class="st1" points="1184.4,1300.2 1128.2,1267.8 1128.2,1203 1184.4,1170.6 1240.5,1203 1240.5,1267.8 	"/>
	<polygon class="st1" points="1072.1,1300.2 1016,1267.8 1016,1203 1072.1,1170.6 1128.2,1203 1128.2,1267.8 	"/>
	<polygon class="st1" points="1296.7,1300.2 1240.5,1267.8 1240.5,1203 1296.7,1170.6 1352.8,1203 1352.8,1267.8 	"/>
	<polygon class="st1" points="1240.5,1399 1184.4,1366.6 1184.4,1301.8 1240.5,1269.3 1296.7,1301.8 1296.7,1366.6 	"/>
	<polygon class="st1" points="1128.2,1399 1072.1,1366.6 1072.1,1301.8 1128.2,1269.3 1184.4,1301.8 1184.4,1366.6 	"/>
	<polygon class="st1" points="1352.8,1399 1296.7,1366.6 1296.7,1301.8 1352.8,1269.3 1409,1301.8 1409,1366.6 	"/>
	<polygon class="st1" points="1184.4,1496 1128.2,1463.6 1128.2,1398.8 1184.4,1366.4 1240.5,1398.8 1240.5,1463.6 	"/>
	<polygon class="st1" points="1072.1,1496 1016,1463.6 1016,1398.8 1072.1,1366.4 1128.2,1398.8 1128.2,1463.6 	"/>
	<polygon class="st1" points="1296.7,1496 1240.5,1463.6 1240.5,1398.8 1296.7,1366.4 1352.8,1398.8 1352.8,1463.6 	"/>
	<polygon class="st1" points="1240.5,1594.5 1184.4,1562.1 1184.4,1497.2 1240.5,1464.8 1296.7,1497.2 1296.7,1562.1 	"/>
	<polygon class="st1" points="1128.2,1594.5 1072.1,1562.1 1072.1,1497.2 1128.2,1464.8 1184.4,1497.2 1184.4,1562.1 	"/>
	<polygon class="st1" points="1352.8,1594.5 1296.7,1562.1 1296.7,1497.2 1352.8,1464.8 1409,1497.2 1409,1562.1 	"/>
	<polygon class="st1" points="1184.4,1691.5 1128.2,1659.1 1128.2,1594.3 1184.4,1561.9 1240.5,1594.3 1240.5,1659.1 	"/>
	<polygon class="st1" points="1072.1,1691.5 1016,1659.1 1016,1594.3 1072.1,1561.9 1128.2,1594.3 1128.2,1659.1 	"/>
	<polygon class="st1" points="1296.7,1691.5 1240.5,1659.1 1240.5,1594.3 1296.7,1561.9 1352.8,1594.3 1352.8,1659.1 	"/>
	<polygon class="st1" points="1240.5,13.5 1184.4,-19 1184.4,-83.8 1240.5,-116.2 1296.7,-83.8 1296.7,-19 	"/>
	<polygon class="st1" points="1296.7,110.3 1240.5,77.9 1240.5,13 1296.7,-19.4 1352.8,13 1352.8,77.9 	"/>
	<polygon class="st1" points="1353.1,208.4 1296.9,176 1296.9,111.2 1353.1,78.8 1409.2,111.2 1409.2,176 	"/>
	<polygon class="st1" points="1353.1,10.6 1296.9,-21.8 1296.9,-86.6 1353.1,-119.1 1409.2,-86.6 1409.2,-21.8 	"/>
	<polygon class="st1" points="1409.2,110.3 1353.1,77.9 1353.1,13 1409.2,-19.4 1465.4,13 1465.4,77.9 	"/>
	<polygon class="st1" points="1521.5,110.3 1465.4,77.9 1465.4,13 1521.5,-19.4 1577.6,13 1577.6,77.9 	"/>
	<polygon class="st1" points="1465.1,12.4 1408.9,-20 1408.9,-84.9 1465.1,-117.3 1521.2,-84.9 1521.2,-20 	"/>
	<polygon class="st1" points="1577.6,208.4 1521.5,176 1521.5,111.2 1577.6,78.8 1633.8,111.2 1633.8,176 	"/>
	<polygon class="st1" points="1465.4,208.4 1409.2,176 1409.2,111.2 1465.4,78.8 1521.5,111.2 1521.5,176 	"/>
	<polygon class="st1" points="1521.5,308 1465.4,275.6 1465.4,210.8 1521.5,178.4 1577.6,210.8 1577.6,275.6 	"/>
	<polygon class="st1" points="1409.2,308 1353.1,275.6 1353.1,210.8 1409.2,178.4 1465.4,210.8 1465.4,275.6 	"/>
	<polygon class="st1" points="1633.8,308 1577.6,275.6 1577.6,210.8 1633.8,178.4 1689.9,210.8 1689.9,275.6 	"/>
	<polygon class="st1" points="1465.4,405.9 1409.2,373.5 1409.2,308.7 1465.4,276.3 1521.5,308.7 1521.5,373.5 	"/>
	<polygon class="st1" points="1353.1,405.9 1296.9,373.5 1296.9,308.7 1353.1,276.3 1409.2,308.7 1409.2,373.5 	"/>
	<polygon class="st1" points="1577.6,405.9 1521.5,373.5 1521.5,308.7 1577.6,276.3 1633.8,308.7 1633.8,373.5 	"/>
	<polygon class="st1" points="1521.5,505.8 1465.4,473.3 1465.4,408.5 1521.5,376.1 1577.6,408.5 1577.6,473.3 	"/>
	<polygon class="st1" points="1409.2,505.8 1353.1,473.3 1353.1,408.5 1409.2,376.1 1465.4,408.5 1465.4,473.3 	"/>
	<polygon class="st1" points="1633.8,505.8 1577.6,473.3 1577.6,408.5 1633.8,376.1 1689.9,408.5 1689.9,473.3 	"/>
	<polygon class="st1" points="1465.4,603.7 1409.2,571.2 1409.2,506.4 1465.4,474 1521.5,506.4 1521.5,571.2 	"/>
	<polygon class="st1" points="1353.1,603.7 1296.9,571.2 1296.9,506.4 1353.1,474 1409.2,506.4 1409.2,571.2 	"/>
	<polygon class="st1" points="1577.6,603.7 1521.5,571.2 1521.5,506.4 1577.6,474 1633.8,506.4 1633.8,571.2 	"/>
	<polygon class="st1" points="1521.5,703.5 1465.4,671.1 1465.4,606.3 1521.5,573.8 1577.6,606.3 1577.6,671.1 	"/>
	<polygon class="st1" points="1409.2,703.5 1353.1,671.1 1353.1,606.3 1409.2,573.8 1465.4,606.3 1465.4,671.1 	"/>
	<polygon class="st1" points="1633.8,703.5 1577.6,671.1 1577.6,606.3 1633.8,573.8 1689.9,606.3 1689.9,671.1 	"/>
	<polygon class="st1" points="1465.4,801.4 1409.2,769 1409.2,704.2 1465.4,671.7 1521.5,704.2 1521.5,769 	"/>
	<polygon class="st1" points="1353.1,801.4 1296.9,769 1296.9,704.2 1353.1,671.7 1409.2,704.2 1409.2,769 	"/>
	<polygon class="st1" points="1577.6,801.4 1521.5,769 1521.5,704.2 1577.6,671.7 1633.8,704.2 1633.8,769 	"/>
	<polygon class="st1" points="1521.5,901.2 1465.4,868.8 1465.4,804 1521.5,771.6 1577.6,804 1577.6,868.8 	"/>
	<polygon class="st1" points="1409.2,901.2 1353.1,868.8 1353.1,804 1409.2,771.6 1465.4,804 1465.4,868.8 	"/>
	<polygon class="st1" points="1633.8,901.2 1577.6,868.8 1577.6,804 1633.8,771.6 1689.9,804 1689.9,868.8 	"/>
	<polygon class="st1" points="1577.6,1000.8 1521.5,968.4 1521.5,903.6 1577.6,871.2 1633.8,903.6 1633.8,968.4 	"/>
	<polygon class="st1" points="1465.4,1000.8 1409.2,968.4 1409.2,903.6 1465.4,871.2 1521.5,903.6 1521.5,968.4 	"/>
	<polygon class="st1" points="1689.9,1000.8 1633.8,968.4 1633.8,903.6 1689.9,871.2 1746.1,903.6 1746.1,968.4 	"/>
	<polygon class="st1" points="1521.5,1100.5 1465.4,1068 1465.4,1003.2 1521.5,970.8 1577.6,1003.2 1577.6,1068 	"/>
	<polygon class="st1" points="1409.2,1100.5 1353.1,1068 1353.1,1003.2 1409.2,970.8 1465.4,1003.2 1465.4,1068 	"/>
	<polygon class="st1" points="1633.8,1100.5 1577.6,1068 1577.6,1003.2 1633.8,970.8 1689.9,1003.2 1689.9,1068 	"/>
	<polygon class="st1" points="1577.6,1200.9 1521.5,1168.5 1521.5,1103.7 1577.6,1071.3 1633.8,1103.7 1633.8,1168.5 	"/>
	<polygon class="st1" points="1465.4,1200.9 1409.2,1168.5 1409.2,1103.7 1465.4,1071.3 1521.5,1103.7 1521.5,1168.5 	"/>
	<polygon class="st1" points="1689.9,1200.9 1633.8,1168.5 1633.8,1103.7 1689.9,1071.3 1746.1,1103.7 1746.1,1168.5 	"/>
	<polygon class="st1" points="1521.5,1300.2 1465.4,1267.8 1465.4,1203 1521.5,1170.6 1577.6,1203 1577.6,1267.8 	"/>
	<polygon class="st1" points="1409.2,1300.2 1353.1,1267.8 1353.1,1203 1409.2,1170.6 1465.4,1203 1465.4,1267.8 	"/>
	<polygon class="st1" points="1633.8,1300.2 1577.6,1267.8 1577.6,1203 1633.8,1170.6 1689.9,1203 1689.9,1267.8 	"/>
	<polygon class="st1" points="1577.6,1399 1521.5,1366.6 1521.5,1301.8 1577.6,1269.3 1633.8,1301.8 1633.8,1366.6 	"/>
	<polygon class="st1" points="1465.4,1399 1409.2,1366.6 1409.2,1301.8 1465.4,1269.3 1521.5,1301.8 1521.5,1366.6 	"/>
	<polygon class="st1" points="1689.9,1399 1633.8,1366.6 1633.8,1301.8 1689.9,1269.3 1746.1,1301.8 1746.1,1366.6 	"/>
	<polygon class="st1" points="1521.5,1496 1465.4,1463.6 1465.4,1398.8 1521.5,1366.4 1577.6,1398.8 1577.6,1463.6 	"/>
	<polygon class="st1" points="1409.2,1496 1353.1,1463.6 1353.1,1398.8 1409.2,1366.4 1465.4,1398.8 1465.4,1463.6 	"/>
	<polygon class="st1" points="1633.8,1496 1577.6,1463.6 1577.6,1398.8 1633.8,1366.4 1689.9,1398.8 1689.9,1463.6 	"/>
	<polygon class="st1" points="1577.6,1594.5 1521.5,1562.1 1521.5,1497.2 1577.6,1464.8 1633.8,1497.2 1633.8,1562.1 	"/>
	<polygon class="st1" points="1465.4,1594.5 1409.2,1562.1 1409.2,1497.2 1465.4,1464.8 1521.5,1497.2 1521.5,1562.1 	"/>
	<polygon class="st1" points="1689.9,1594.5 1633.8,1562.1 1633.8,1497.2 1689.9,1464.8 1746.1,1497.2 1746.1,1562.1 	"/>
	<polygon class="st1" points="1521.5,1691.5 1465.4,1659.1 1465.4,1594.3 1521.5,1561.9 1577.6,1594.3 1577.6,1659.1 	"/>
	<polygon class="st1" points="1409.2,1691.5 1353.1,1659.1 1353.1,1594.3 1409.2,1561.9 1465.4,1594.3 1465.4,1659.1 	"/>
	<polygon class="st1" points="1633.8,1691.5 1577.6,1659.1 1577.6,1594.3 1633.8,1561.9 1689.9,1594.3 1689.9,1659.1 	"/>
	<polygon class="st1" points="1577.6,13.5 1521.5,-19 1521.5,-83.8 1577.6,-116.2 1633.8,-83.8 1633.8,-19 	"/>
	<polygon class="st1" points="1633.8,110.3 1577.6,77.9 1577.6,13 1633.8,-19.4 1689.9,13 1689.9,77.9 	"/>
	<polygon class="st1" points="1689.9,208.4 1633.8,176 1633.8,111.2 1689.9,78.8 1746.1,111.2 1746.1,176 	"/>
	<polygon class="st1" points="1689.9,10.6 1633.8,-21.8 1633.8,-86.6 1689.9,-119.1 1746.1,-86.6 1746.1,-21.8 	"/>
	<polygon class="st1" points="1746.1,110.3 1689.9,77.9 1689.9,13 1746.1,-19.4 1802.2,13 1802.2,77.9 	"/>
	<polygon class="st1" points="1858.4,110.3 1802.2,77.9 1802.2,13 1858.4,-19.4 1914.5,13 1914.5,77.9 	"/>
	<polygon class="st1" points="1801.9,12.4 1745.8,-20 1745.8,-84.9 1801.9,-117.3 1858.1,-84.9 1858.1,-20 	"/>
	<polygon class="st1" points="1914.5,208.4 1858.4,176 1858.4,111.2 1914.5,78.8 1970.7,111.2 1970.7,176 	"/>
	<polygon class="st1" points="1802.2,208.4 1746.1,176 1746.1,111.2 1802.2,78.8 1858.4,111.2 1858.4,176 	"/>
	<polygon class="st1" points="1858.4,308 1802.2,275.6 1802.2,210.8 1858.4,178.4 1914.5,210.8 1914.5,275.6 	"/>
	<polygon class="st1" points="1746.1,308 1689.9,275.6 1689.9,210.8 1746.1,178.4 1802.2,210.8 1802.2,275.6 	"/>
	<polygon class="st1" points="1970.7,308 1914.5,275.6 1914.5,210.8 1970.7,178.4 2026.8,210.8 2026.8,275.6 	"/>
	<polygon class="st1" points="1802.2,405.9 1746.1,373.5 1746.1,308.7 1802.2,276.3 1858.4,308.7 1858.4,373.5 	"/>
	<polygon class="st1" points="1689.9,405.9 1633.8,373.5 1633.8,308.7 1689.9,276.3 1746.1,308.7 1746.1,373.5 	"/>
	<polygon class="st1" points="1914.5,405.9 1858.4,373.5 1858.4,308.7 1914.5,276.3 1970.7,308.7 1970.7,373.5 	"/>
	<polygon class="st1" points="1858.4,505.8 1802.2,473.3 1802.2,408.5 1858.4,376.1 1914.5,408.5 1914.5,473.3 	"/>
	<polygon class="st1" points="1746.1,505.8 1689.9,473.3 1689.9,408.5 1746.1,376.1 1802.2,408.5 1802.2,473.3 	"/>
	<polygon class="st1" points="1970.7,505.8 1914.5,473.3 1914.5,408.5 1970.7,376.1 2026.8,408.5 2026.8,473.3 	"/>
	<polygon class="st1" points="1802.2,603.7 1746.1,571.2 1746.1,506.4 1802.2,474 1858.4,506.4 1858.4,571.2 	"/>
	<polygon class="st1" points="1689.9,603.7 1633.8,571.2 1633.8,506.4 1689.9,474 1746.1,506.4 1746.1,571.2 	"/>
	<polygon class="st1" points="1914.5,603.7 1858.4,571.2 1858.4,506.4 1914.5,474 1970.7,506.4 1970.7,571.2 	"/>
	<polygon class="st1" points="1858.4,703.5 1802.2,671.1 1802.2,606.3 1858.4,573.8 1914.5,606.3 1914.5,671.1 	"/>
	<polygon class="st1" points="1746.1,703.5 1689.9,671.1 1689.9,606.3 1746.1,573.8 1802.2,606.3 1802.2,671.1 	"/>
	<polygon class="st1" points="1970.7,703.5 1914.5,671.1 1914.5,606.3 1970.7,573.8 2026.8,606.3 2026.8,671.1 	"/>
	<polygon class="st1" points="1802.2,801.4 1746.1,769 1746.1,704.2 1802.2,671.7 1858.4,704.2 1858.4,769 	"/>
	<polygon class="st1" points="1689.9,801.4 1633.8,769 1633.8,704.2 1689.9,671.7 1746.1,704.2 1746.1,769 	"/>
	<polygon class="st1" points="1914.5,801.4 1858.4,769 1858.4,704.2 1914.5,671.7 1970.7,704.2 1970.7,769 	"/>
	<polygon class="st1" points="1858.4,901.2 1802.2,868.8 1802.2,804 1858.4,771.6 1914.5,804 1914.5,868.8 	"/>
	<polygon class="st1" points="1746.1,901.2 1689.9,868.8 1689.9,804 1746.1,771.6 1802.2,804 1802.2,868.8 	"/>
	<polygon class="st1" points="1970.7,901.2 1914.5,868.8 1914.5,804 1970.7,771.6 2026.8,804 2026.8,868.8 	"/>
	<polygon class="st1" points="1914.5,1000.8 1858.4,968.4 1858.4,903.6 1914.5,871.2 1970.7,903.6 1970.7,968.4 	"/>
	<polygon class="st1" points="1802.2,1000.8 1746.1,968.4 1746.1,903.6 1802.2,871.2 1858.4,903.6 1858.4,968.4 	"/>
	<polygon class="st1" points="2026.8,1000.8 1970.7,968.4 1970.7,903.6 2026.8,871.2 2082.9,903.6 2082.9,968.4 	"/>
	<polygon class="st1" points="1858.4,1100.5 1802.2,1068 1802.2,1003.2 1858.4,970.8 1914.5,1003.2 1914.5,1068 	"/>
	<polygon class="st1" points="1746.1,1100.5 1689.9,1068 1689.9,1003.2 1746.1,970.8 1802.2,1003.2 1802.2,1068 	"/>
	<polygon class="st1" points="1970.7,1100.5 1914.5,1068 1914.5,1003.2 1970.7,970.8 2026.8,1003.2 2026.8,1068 	"/>
	<polygon class="st1" points="1914.5,1200.9 1858.4,1168.5 1858.4,1103.7 1914.5,1071.3 1970.7,1103.7 1970.7,1168.5 	"/>
	<polygon class="st1" points="1802.2,1200.9 1746.1,1168.5 1746.1,1103.7 1802.2,1071.3 1858.4,1103.7 1858.4,1168.5 	"/>
	<polygon class="st1" points="2026.8,1200.9 1970.7,1168.5 1970.7,1103.7 2026.8,1071.3 2082.9,1103.7 2082.9,1168.5 	"/>
	<polygon class="st1" points="1858.4,1300.2 1802.2,1267.8 1802.2,1203 1858.4,1170.6 1914.5,1203 1914.5,1267.8 	"/>
	<polygon class="st1" points="1746.1,1300.2 1689.9,1267.8 1689.9,1203 1746.1,1170.6 1802.2,1203 1802.2,1267.8 	"/>
	<polygon class="st1" points="1970.7,1300.2 1914.5,1267.8 1914.5,1203 1970.7,1170.6 2026.8,1203 2026.8,1267.8 	"/>
	<polygon class="st1" points="1914.5,1399 1858.4,1366.6 1858.4,1301.8 1914.5,1269.3 1970.7,1301.8 1970.7,1366.6 	"/>
	<polygon class="st1" points="1802.2,1399 1746.1,1366.6 1746.1,1301.8 1802.2,1269.3 1858.4,1301.8 1858.4,1366.6 	"/>
	<polygon class="st1" points="2026.8,1399 1970.7,1366.6 1970.7,1301.8 2026.8,1269.3 2082.9,1301.8 2082.9,1366.6 	"/>
	<polygon class="st1" points="1858.4,1496 1802.2,1463.6 1802.2,1398.8 1858.4,1366.4 1914.5,1398.8 1914.5,1463.6 	"/>
	<polygon class="st1" points="1746.1,1496 1689.9,1463.6 1689.9,1398.8 1746.1,1366.4 1802.2,1398.8 1802.2,1463.6 	"/>
	<polygon class="st1" points="1970.7,1496 1914.5,1463.6 1914.5,1398.8 1970.7,1366.4 2026.8,1398.8 2026.8,1463.6 	"/>
	<polygon class="st1" points="1914.5,1594.5 1858.4,1562.1 1858.4,1497.2 1914.5,1464.8 1970.7,1497.2 1970.7,1562.1 	"/>
	<polygon class="st1" points="1802.2,1594.5 1746.1,1562.1 1746.1,1497.2 1802.2,1464.8 1858.4,1497.2 1858.4,1562.1 	"/>
	<polygon class="st1" points="2026.8,1594.5 1970.7,1562.1 1970.7,1497.2 2026.8,1464.8 2082.9,1497.2 2082.9,1562.1 	"/>
	<polygon class="st1" points="1858.4,1691.5 1802.2,1659.1 1802.2,1594.3 1858.4,1561.9 1914.5,1594.3 1914.5,1659.1 	"/>
	<polygon class="st1" points="1746.1,1691.5 1689.9,1659.1 1689.9,1594.3 1746.1,1561.9 1802.2,1594.3 1802.2,1659.1 	"/>
	<polygon class="st1" points="1970.7,1691.5 1914.5,1659.1 1914.5,1594.3 1970.7,1561.9 2026.8,1594.3 2026.8,1659.1 	"/>
	<polygon class="st1" points="1914.5,13.5 1858.4,-19 1858.4,-83.8 1914.5,-116.2 1970.7,-83.8 1970.7,-19 	"/>
	<polygon class="st1" points="1970.7,110.3 1914.5,77.9 1914.5,13 1970.7,-19.4 2026.8,13 2026.8,77.9 	"/>
	<polygon class="st1" points="2026.8,208.4 1970.7,176 1970.7,111.2 2026.8,78.8 2082.9,111.2 2082.9,176 	"/>
	<polygon class="st1" points="2026.8,10.6 1970.7,-21.8 1970.7,-86.6 2026.8,-119.1 2082.9,-86.6 2082.9,-21.8 	"/>
	<polygon class="st1" points="2082.9,110.3 2026.8,77.9 2026.8,13 2082.9,-19.4 2139.1,13 2139.1,77.9 	"/>
	<polygon class="st1" points="2195.2,110.3 2139.1,77.9 2139.1,13 2195.2,-19.4 2251.4,13 2251.4,77.9 	"/>
	<polygon class="st1" points="2138.8,12.4 2082.7,-20 2082.7,-84.9 2138.8,-117.3 2194.9,-84.9 2194.9,-20 	"/>
	<polygon class="st1" points="2251.4,208.4 2195.2,176 2195.2,111.2 2251.4,78.8 2307.5,111.2 2307.5,176 	"/>
	<polygon class="st1" points="2139.1,208.4 2082.9,176 2082.9,111.2 2139.1,78.8 2195.2,111.2 2195.2,176 	"/>
	<polygon class="st1" points="2195.2,308 2139.1,275.6 2139.1,210.8 2195.2,178.4 2251.4,210.8 2251.4,275.6 	"/>
	<polygon class="st1" points="2082.9,308 2026.8,275.6 2026.8,210.8 2082.9,178.4 2139.1,210.8 2139.1,275.6 	"/>
	<polygon class="st1" points="2307.5,308 2251.4,275.6 2251.4,210.8 2307.5,178.4 2363.7,210.8 2363.7,275.6 	"/>
	<polygon class="st1" points="2139.1,405.9 2082.9,373.5 2082.9,308.7 2139.1,276.3 2195.2,308.7 2195.2,373.5 	"/>
	<polygon class="st1" points="2026.8,405.9 1970.7,373.5 1970.7,308.7 2026.8,276.3 2082.9,308.7 2082.9,373.5 	"/>
	<polygon class="st1" points="2251.4,405.9 2195.2,373.5 2195.2,308.7 2251.4,276.3 2307.5,308.7 2307.5,373.5 	"/>
	<polygon class="st1" points="2195.2,505.8 2139.1,473.3 2139.1,408.5 2195.2,376.1 2251.4,408.5 2251.4,473.3 	"/>
	<polygon class="st1" points="2082.9,505.8 2026.8,473.3 2026.8,408.5 2082.9,376.1 2139.1,408.5 2139.1,473.3 	"/>
	<polygon class="st1" points="2307.5,505.8 2251.4,473.3 2251.4,408.5 2307.5,376.1 2363.7,408.5 2363.7,473.3 	"/>
	<polygon class="st1" points="2139.1,603.7 2082.9,571.2 2082.9,506.4 2139.1,474 2195.2,506.4 2195.2,571.2 	"/>
	<polygon class="st1" points="2026.8,603.7 1970.7,571.2 1970.7,506.4 2026.8,474 2082.9,506.4 2082.9,571.2 	"/>
	<polygon class="st1" points="2251.4,603.7 2195.2,571.2 2195.2,506.4 2251.4,474 2307.5,506.4 2307.5,571.2 	"/>
	<polygon class="st1" points="2195.2,703.5 2139.1,671.1 2139.1,606.3 2195.2,573.8 2251.4,606.3 2251.4,671.1 	"/>
	<polygon class="st1" points="2082.9,703.5 2026.8,671.1 2026.8,606.3 2082.9,573.8 2139.1,606.3 2139.1,671.1 	"/>
	<polygon class="st1" points="2307.5,703.5 2251.4,671.1 2251.4,606.3 2307.5,573.8 2363.7,606.3 2363.7,671.1 	"/>
	<polygon class="st1" points="2139.1,801.4 2082.9,769 2082.9,704.2 2139.1,671.7 2195.2,704.2 2195.2,769 	"/>
	<polygon class="st1" points="2026.8,801.4 1970.7,769 1970.7,704.2 2026.8,671.7 2082.9,704.2 2082.9,769 	"/>
	<polygon class="st1" points="2251.4,801.4 2195.2,769 2195.2,704.2 2251.4,671.7 2307.5,704.2 2307.5,769 	"/>
	<polygon class="st1" points="2195.2,901.2 2139.1,868.8 2139.1,804 2195.2,771.6 2251.4,804 2251.4,868.8 	"/>
	<polygon class="st1" points="2082.9,901.2 2026.8,868.8 2026.8,804 2082.9,771.6 2139.1,804 2139.1,868.8 	"/>
	<polygon class="st1" points="2307.5,901.2 2251.4,868.8 2251.4,804 2307.5,771.6 2363.7,804 2363.7,868.8 	"/>
	<polygon class="st1" points="2251.4,1000.8 2195.2,968.4 2195.2,903.6 2251.4,871.2 2307.5,903.6 2307.5,968.4 	"/>
	<polygon class="st1" points="2139.1,1000.8 2082.9,968.4 2082.9,903.6 2139.1,871.2 2195.2,903.6 2195.2,968.4 	"/>
	<polygon class="st1" points="2363.7,1000.8 2307.5,968.4 2307.5,903.6 2363.7,871.2 2419.8,903.6 2419.8,968.4 	"/>
	<polygon class="st1" points="2195.2,1100.5 2139.1,1068 2139.1,1003.2 2195.2,970.8 2251.4,1003.2 2251.4,1068 	"/>
	<polygon class="st1" points="2082.9,1100.5 2026.8,1068 2026.8,1003.2 2082.9,970.8 2139.1,1003.2 2139.1,1068 	"/>
	<polygon class="st1" points="2307.5,1100.5 2251.4,1068 2251.4,1003.2 2307.5,970.8 2363.7,1003.2 2363.7,1068 	"/>
	<polygon class="st1" points="2251.4,1200.9 2195.2,1168.5 2195.2,1103.7 2251.4,1071.3 2307.5,1103.7 2307.5,1168.5 	"/>
	<polygon class="st1" points="2139.1,1200.9 2082.9,1168.5 2082.9,1103.7 2139.1,1071.3 2195.2,1103.7 2195.2,1168.5 	"/>
	<polygon class="st1" points="2363.7,1200.9 2307.5,1168.5 2307.5,1103.7 2363.7,1071.3 2419.8,1103.7 2419.8,1168.5 	"/>
	<polygon class="st1" points="2195.2,1300.2 2139.1,1267.8 2139.1,1203 2195.2,1170.6 2251.4,1203 2251.4,1267.8 	"/>
	<polygon class="st1" points="2082.9,1300.2 2026.8,1267.8 2026.8,1203 2082.9,1170.6 2139.1,1203 2139.1,1267.8 	"/>
	<polygon class="st1" points="2307.5,1300.2 2251.4,1267.8 2251.4,1203 2307.5,1170.6 2363.7,1203 2363.7,1267.8 	"/>
	<polygon class="st1" points="2251.4,1399 2195.2,1366.6 2195.2,1301.8 2251.4,1269.3 2307.5,1301.8 2307.5,1366.6 	"/>
	<polygon class="st1" points="2139.1,1399 2082.9,1366.6 2082.9,1301.8 2139.1,1269.3 2195.2,1301.8 2195.2,1366.6 	"/>
	<polygon class="st1" points="2363.7,1399 2307.5,1366.6 2307.5,1301.8 2363.7,1269.3 2419.8,1301.8 2419.8,1366.6 	"/>
	<polygon class="st1" points="2195.2,1496 2139.1,1463.6 2139.1,1398.8 2195.2,1366.4 2251.4,1398.8 2251.4,1463.6 	"/>
	<polygon class="st1" points="2082.9,1496 2026.8,1463.6 2026.8,1398.8 2082.9,1366.4 2139.1,1398.8 2139.1,1463.6 	"/>
	<polygon class="st1" points="2307.5,1496 2251.4,1463.6 2251.4,1398.8 2307.5,1366.4 2363.7,1398.8 2363.7,1463.6 	"/>
	<polygon class="st1" points="2251.4,1594.5 2195.2,1562.1 2195.2,1497.2 2251.4,1464.8 2307.5,1497.2 2307.5,1562.1 	"/>
	<polygon class="st1" points="2139.1,1594.5 2082.9,1562.1 2082.9,1497.2 2139.1,1464.8 2195.2,1497.2 2195.2,1562.1 	"/>
	<polygon class="st1" points="2363.7,1594.5 2307.5,1562.1 2307.5,1497.2 2363.7,1464.8 2419.8,1497.2 2419.8,1562.1 	"/>
	<polygon class="st1" points="2195.2,1691.5 2139.1,1659.1 2139.1,1594.3 2195.2,1561.9 2251.4,1594.3 2251.4,1659.1 	"/>
	<polygon class="st1" points="2082.9,1691.5 2026.8,1659.1 2026.8,1594.3 2082.9,1561.9 2139.1,1594.3 2139.1,1659.1 	"/>
	<polygon class="st1" points="2307.5,1691.5 2251.4,1659.1 2251.4,1594.3 2307.5,1561.9 2363.7,1594.3 2363.7,1659.1 	"/>
	<polygon class="st1" points="2251.4,13.5 2195.2,-19 2195.2,-83.8 2251.4,-116.2 2307.5,-83.8 2307.5,-19 	"/>
	<polygon class="st1" points="2307.5,110.3 2251.4,77.9 2251.4,13 2307.5,-19.4 2363.7,13 2363.7,77.9 	"/>
	<polygon class="st1" points="2363.7,208.4 2307.5,176 2307.5,111.2 2363.7,78.8 2419.8,111.2 2419.8,176 	"/>
	<polygon class="st1" points="2363.7,10.6 2307.5,-21.8 2307.5,-86.6 2363.7,-119.1 2419.8,-86.6 2419.8,-21.8 	"/>
	<polygon class="st1" points="2419.8,110.3 2363.7,77.9 2363.7,13 2419.8,-19.4 2475.9,13 2475.9,77.9 	"/>
	<polygon class="st1" points="2532.1,110.3 2475.9,77.9 2475.9,13 2532.1,-19.4 2588.2,13 2588.2,77.9 	"/>
	<polygon class="st1" points="2475.7,12.4 2419.5,-20 2419.5,-84.9 2475.7,-117.3 2531.8,-84.9 2531.8,-20 	"/>
	<polygon class="st1" points="2588.2,208.4 2532.1,176 2532.1,111.2 2588.2,78.8 2644.4,111.2 2644.4,176 	"/>
	<polygon class="st1" points="2475.9,208.4 2419.8,176 2419.8,111.2 2475.9,78.8 2532.1,111.2 2532.1,176 	"/>
	<polygon class="st1" points="2532.1,308 2475.9,275.6 2475.9,210.8 2532.1,178.4 2588.2,210.8 2588.2,275.6 	"/>
	<polygon class="st1" points="2419.8,308 2363.7,275.6 2363.7,210.8 2419.8,178.4 2475.9,210.8 2475.9,275.6 	"/>
	<polygon class="st1" points="2644.4,308 2588.2,275.6 2588.2,210.8 2644.4,178.4 2700.5,210.8 2700.5,275.6 	"/>
	<polygon class="st1" points="2475.9,405.9 2419.8,373.5 2419.8,308.7 2475.9,276.3 2532.1,308.7 2532.1,373.5 	"/>
	<polygon class="st1" points="2363.7,405.9 2307.5,373.5 2307.5,308.7 2363.7,276.3 2419.8,308.7 2419.8,373.5 	"/>
	<polygon class="st1" points="2588.2,405.9 2532.1,373.5 2532.1,308.7 2588.2,276.3 2644.4,308.7 2644.4,373.5 	"/>
	<polygon class="st1" points="2532.1,505.8 2475.9,473.3 2475.9,408.5 2532.1,376.1 2588.2,408.5 2588.2,473.3 	"/>
	<polygon class="st1" points="2419.8,505.8 2363.7,473.3 2363.7,408.5 2419.8,376.1 2475.9,408.5 2475.9,473.3 	"/>
	<polygon class="st1" points="2644.4,505.8 2588.2,473.3 2588.2,408.5 2644.4,376.1 2700.5,408.5 2700.5,473.3 	"/>
	<polygon class="st1" points="2475.9,603.7 2419.8,571.2 2419.8,506.4 2475.9,474 2532.1,506.4 2532.1,571.2 	"/>
	<polygon class="st1" points="2363.7,603.7 2307.5,571.2 2307.5,506.4 2363.7,474 2419.8,506.4 2419.8,571.2 	"/>
	<polygon class="st1" points="2588.2,603.7 2532.1,571.2 2532.1,506.4 2588.2,474 2644.4,506.4 2644.4,571.2 	"/>
	<polygon class="st1" points="2532.1,703.5 2475.9,671.1 2475.9,606.3 2532.1,573.8 2588.2,606.3 2588.2,671.1 	"/>
	<polygon class="st1" points="2419.8,703.5 2363.7,671.1 2363.7,606.3 2419.8,573.8 2475.9,606.3 2475.9,671.1 	"/>
	<polygon class="st1" points="2644.4,703.5 2588.2,671.1 2588.2,606.3 2644.4,573.8 2700.5,606.3 2700.5,671.1 	"/>
	<polygon class="st1" points="2475.9,801.4 2419.8,769 2419.8,704.2 2475.9,671.7 2532.1,704.2 2532.1,769 	"/>
	<polygon class="st1" points="2363.7,801.4 2307.5,769 2307.5,704.2 2363.7,671.7 2419.8,704.2 2419.8,769 	"/>
	<polygon class="st1" points="2588.2,801.4 2532.1,769 2532.1,704.2 2588.2,671.7 2644.4,704.2 2644.4,769 	"/>
	<polygon class="st1" points="2532.1,901.2 2475.9,868.8 2475.9,804 2532.1,771.6 2588.2,804 2588.2,868.8 	"/>
	<polygon class="st1" points="2419.8,901.2 2363.7,868.8 2363.7,804 2419.8,771.6 2475.9,804 2475.9,868.8 	"/>
	<polygon class="st1" points="2644.4,901.2 2588.2,868.8 2588.2,804 2644.4,771.6 2700.5,804 2700.5,868.8 	"/>
	<polygon class="st1" points="2588.2,1000.8 2532.1,968.4 2532.1,903.6 2588.2,871.2 2644.4,903.6 2644.4,968.4 	"/>
	<polygon class="st1" points="2475.9,1000.8 2419.8,968.4 2419.8,903.6 2475.9,871.2 2532.1,903.6 2532.1,968.4 	"/>
	<polygon class="st1" points="2700.5,1000.8 2644.4,968.4 2644.4,903.6 2700.5,871.2 2756.7,903.6 2756.7,968.4 	"/>
	<polygon class="st1" points="2532.1,1100.5 2475.9,1068 2475.9,1003.2 2532.1,970.8 2588.2,1003.2 2588.2,1068 	"/>
	<polygon class="st1" points="2419.8,1100.5 2363.7,1068 2363.7,1003.2 2419.8,970.8 2475.9,1003.2 2475.9,1068 	"/>
	<polygon class="st1" points="2644.4,1100.5 2588.2,1068 2588.2,1003.2 2644.4,970.8 2700.5,1003.2 2700.5,1068 	"/>
	<polygon class="st1" points="2588.2,1200.9 2532.1,1168.5 2532.1,1103.7 2588.2,1071.3 2644.4,1103.7 2644.4,1168.5 	"/>
	<polygon class="st1" points="2475.9,1200.9 2419.8,1168.5 2419.8,1103.7 2475.9,1071.3 2532.1,1103.7 2532.1,1168.5 	"/>
	<polygon class="st1" points="2700.5,1200.9 2644.4,1168.5 2644.4,1103.7 2700.5,1071.3 2756.7,1103.7 2756.7,1168.5 	"/>
	<polygon class="st1" points="2532.1,1300.2 2475.9,1267.8 2475.9,1203 2532.1,1170.6 2588.2,1203 2588.2,1267.8 	"/>
	<polygon class="st1" points="2419.8,1300.2 2363.7,1267.8 2363.7,1203 2419.8,1170.6 2475.9,1203 2475.9,1267.8 	"/>
	<polygon class="st1" points="2644.4,1300.2 2588.2,1267.8 2588.2,1203 2644.4,1170.6 2700.5,1203 2700.5,1267.8 	"/>
	<polygon class="st1" points="2588.2,1399 2532.1,1366.6 2532.1,1301.8 2588.2,1269.3 2644.4,1301.8 2644.4,1366.6 	"/>
	<polygon class="st1" points="2475.9,1399 2419.8,1366.6 2419.8,1301.8 2475.9,1269.3 2532.1,1301.8 2532.1,1366.6 	"/>
	<polygon class="st1" points="2700.5,1399 2644.4,1366.6 2644.4,1301.8 2700.5,1269.3 2756.7,1301.8 2756.7,1366.6 	"/>
	<polygon class="st1" points="2532.1,1496 2475.9,1463.6 2475.9,1398.8 2532.1,1366.4 2588.2,1398.8 2588.2,1463.6 	"/>
	<polygon class="st1" points="2419.8,1496 2363.7,1463.6 2363.7,1398.8 2419.8,1366.4 2475.9,1398.8 2475.9,1463.6 	"/>
	<polygon class="st1" points="2644.4,1496 2588.2,1463.6 2588.2,1398.8 2644.4,1366.4 2700.5,1398.8 2700.5,1463.6 	"/>
	<polygon class="st1" points="2588.2,1594.5 2532.1,1562.1 2532.1,1497.2 2588.2,1464.8 2644.4,1497.2 2644.4,1562.1 	"/>
	<polygon class="st1" points="2475.9,1594.5 2419.8,1562.1 2419.8,1497.2 2475.9,1464.8 2532.1,1497.2 2532.1,1562.1 	"/>
	<polygon class="st1" points="2700.5,1594.5 2644.4,1562.1 2644.4,1497.2 2700.5,1464.8 2756.7,1497.2 2756.7,1562.1 	"/>
	<polygon class="st1" points="2532.1,1691.5 2475.9,1659.1 2475.9,1594.3 2532.1,1561.9 2588.2,1594.3 2588.2,1659.1 	"/>
	<polygon class="st1" points="2419.8,1691.5 2363.7,1659.1 2363.7,1594.3 2419.8,1561.9 2475.9,1594.3 2475.9,1659.1 	"/>
	<polygon class="st1" points="2644.4,1691.5 2588.2,1659.1 2588.2,1594.3 2644.4,1561.9 2700.5,1594.3 2700.5,1659.1 	"/>
	<polygon class="st1" points="2588.2,13.5 2532.1,-19 2532.1,-83.8 2588.2,-116.2 2644.4,-83.8 2644.4,-19 	"/>
	<polygon class="st1" points="2644.4,110.3 2588.2,77.9 2588.2,13 2644.4,-19.4 2700.5,13 2700.5,77.9 	"/>
	<polygon class="st1" points="2700.5,208.4 2644.4,176 2644.4,111.2 2700.5,78.8 2756.7,111.2 2756.7,176 	"/>
	<polygon class="st1" points="2700.5,10.6 2644.4,-21.8 2644.4,-86.6 2700.5,-119.1 2756.7,-86.6 2756.7,-21.8 	"/>
	<polygon class="st1" points="2756.7,110.3 2700.5,77.9 2700.5,13 2756.7,-19.4 2812.8,13 2812.8,77.9 	"/>
	<polygon class="st1" points="2869,110.3 2812.8,77.9 2812.8,13 2869,-19.4 2925.1,13 2925.1,77.9 	"/>
	<polygon class="st1" points="2812.5,12.4 2756.4,-20 2756.4,-84.9 2812.5,-117.3 2868.7,-84.9 2868.7,-20 	"/>
	<polygon class="st1" points="2925.1,208.4 2869,176 2869,111.2 2925.1,78.8 2981.2,111.2 2981.2,176 	"/>
	<polygon class="st1" points="2812.8,208.4 2756.7,176 2756.7,111.2 2812.8,78.8 2869,111.2 2869,176 	"/>
	<polygon class="st1" points="2869,308 2812.8,275.6 2812.8,210.8 2869,178.4 2925.1,210.8 2925.1,275.6 	"/>
	<polygon class="st1" points="2756.7,308 2700.5,275.6 2700.5,210.8 2756.7,178.4 2812.8,210.8 2812.8,275.6 	"/>
	<polygon class="st1" points="2981.2,308 2925.1,275.6 2925.1,210.8 2981.2,178.4 3037.4,210.8 3037.4,275.6 	"/>
	<polygon class="st1" points="2812.8,405.9 2756.7,373.5 2756.7,308.7 2812.8,276.3 2869,308.7 2869,373.5 	"/>
	<polygon class="st1" points="2700.5,405.9 2644.4,373.5 2644.4,308.7 2700.5,276.3 2756.7,308.7 2756.7,373.5 	"/>
	<polygon class="st1" points="2925.1,405.9 2869,373.5 2869,308.7 2925.1,276.3 2981.2,308.7 2981.2,373.5 	"/>
	<polygon class="st1" points="2869,505.8 2812.8,473.3 2812.8,408.5 2869,376.1 2925.1,408.5 2925.1,473.3 	"/>
	<polygon class="st1" points="2756.7,505.8 2700.5,473.3 2700.5,408.5 2756.7,376.1 2812.8,408.5 2812.8,473.3 	"/>
	<polygon class="st1" points="2981.2,505.8 2925.1,473.3 2925.1,408.5 2981.2,376.1 3037.4,408.5 3037.4,473.3 	"/>
	<polygon class="st1" points="2812.8,603.7 2756.7,571.2 2756.7,506.4 2812.8,474 2869,506.4 2869,571.2 	"/>
	<polygon class="st1" points="2700.5,603.7 2644.4,571.2 2644.4,506.4 2700.5,474 2756.7,506.4 2756.7,571.2 	"/>
	<polygon class="st1" points="2925.1,603.7 2869,571.2 2869,506.4 2925.1,474 2981.2,506.4 2981.2,571.2 	"/>
	<polygon class="st1" points="2869,703.5 2812.8,671.1 2812.8,606.3 2869,573.8 2925.1,606.3 2925.1,671.1 	"/>
	<polygon class="st1" points="2756.7,703.5 2700.5,671.1 2700.5,606.3 2756.7,573.8 2812.8,606.3 2812.8,671.1 	"/>
	<polygon class="st1" points="2981.2,703.5 2925.1,671.1 2925.1,606.3 2981.2,573.8 3037.4,606.3 3037.4,671.1 	"/>
	<polygon class="st1" points="2812.8,801.4 2756.7,769 2756.7,704.2 2812.8,671.7 2869,704.2 2869,769 	"/>
	<polygon class="st1" points="2700.5,801.4 2644.4,769 2644.4,704.2 2700.5,671.7 2756.7,704.2 2756.7,769 	"/>
	<polygon class="st1" points="2925.1,801.4 2869,769 2869,704.2 2925.1,671.7 2981.2,704.2 2981.2,769 	"/>
	<polygon class="st1" points="2869,901.2 2812.8,868.8 2812.8,804 2869,771.6 2925.1,804 2925.1,868.8 	"/>
	<polygon class="st1" points="2756.7,901.2 2700.5,868.8 2700.5,804 2756.7,771.6 2812.8,804 2812.8,868.8 	"/>
	<polygon class="st1" points="2981.2,901.2 2925.1,868.8 2925.1,804 2981.2,771.6 3037.4,804 3037.4,868.8 	"/>
	<polygon class="st1" points="2925.1,1000.8 2869,968.4 2869,903.6 2925.1,871.2 2981.2,903.6 2981.2,968.4 	"/>
	<polygon class="st1" points="2812.8,1000.8 2756.7,968.4 2756.7,903.6 2812.8,871.2 2869,903.6 2869,968.4 	"/>
	<polygon class="st1" points="3037.4,1000.8 2981.2,968.4 2981.2,903.6 3037.4,871.2 3093.5,903.6 3093.5,968.4 	"/>
	<polygon class="st1" points="2869,1100.5 2812.8,1068 2812.8,1003.2 2869,970.8 2925.1,1003.2 2925.1,1068 	"/>
	<polygon class="st1" points="2756.7,1100.5 2700.5,1068 2700.5,1003.2 2756.7,970.8 2812.8,1003.2 2812.8,1068 	"/>
	<polygon class="st1" points="2981.2,1100.5 2925.1,1068 2925.1,1003.2 2981.2,970.8 3037.4,1003.2 3037.4,1068 	"/>
	<polygon class="st1" points="2925.1,1200.9 2869,1168.5 2869,1103.7 2925.1,1071.3 2981.2,1103.7 2981.2,1168.5 	"/>
	<polygon class="st1" points="2812.8,1200.9 2756.7,1168.5 2756.7,1103.7 2812.8,1071.3 2869,1103.7 2869,1168.5 	"/>
	<polygon class="st1" points="3037.4,1200.9 2981.2,1168.5 2981.2,1103.7 3037.4,1071.3 3093.5,1103.7 3093.5,1168.5 	"/>
	<polygon class="st1" points="2869,1300.2 2812.8,1267.8 2812.8,1203 2869,1170.6 2925.1,1203 2925.1,1267.8 	"/>
	<polygon class="st1" points="2756.7,1300.2 2700.5,1267.8 2700.5,1203 2756.7,1170.6 2812.8,1203 2812.8,1267.8 	"/>
	<polygon class="st1" points="2981.2,1300.2 2925.1,1267.8 2925.1,1203 2981.2,1170.6 3037.4,1203 3037.4,1267.8 	"/>
	<polygon class="st1" points="2925.1,1399 2869,1366.6 2869,1301.8 2925.1,1269.3 2981.2,1301.8 2981.2,1366.6 	"/>
	<polygon class="st1" points="2812.8,1399 2756.7,1366.6 2756.7,1301.8 2812.8,1269.3 2869,1301.8 2869,1366.6 	"/>
	<polygon class="st1" points="3037.4,1399 2981.2,1366.6 2981.2,1301.8 3037.4,1269.3 3093.5,1301.8 3093.5,1366.6 	"/>
	<polygon class="st1" points="2869,1496 2812.8,1463.6 2812.8,1398.8 2869,1366.4 2925.1,1398.8 2925.1,1463.6 	"/>
	<polygon class="st1" points="2756.7,1496 2700.5,1463.6 2700.5,1398.8 2756.7,1366.4 2812.8,1398.8 2812.8,1463.6 	"/>
	<polygon class="st1" points="2981.2,1496 2925.1,1463.6 2925.1,1398.8 2981.2,1366.4 3037.4,1398.8 3037.4,1463.6 	"/>
	<polygon class="st1" points="2925.1,1594.5 2869,1562.1 2869,1497.2 2925.1,1464.8 2981.2,1497.2 2981.2,1562.1 	"/>
	<polygon class="st1" points="2812.8,1594.5 2756.7,1562.1 2756.7,1497.2 2812.8,1464.8 2869,1497.2 2869,1562.1 	"/>
	<polygon class="st1" points="3037.4,1594.5 2981.2,1562.1 2981.2,1497.2 3037.4,1464.8 3093.5,1497.2 3093.5,1562.1 	"/>
	<polygon class="st1" points="2869,1691.5 2812.8,1659.1 2812.8,1594.3 2869,1561.9 2925.1,1594.3 2925.1,1659.1 	"/>
	<polygon class="st1" points="2756.7,1691.5 2700.5,1659.1 2700.5,1594.3 2756.7,1561.9 2812.8,1594.3 2812.8,1659.1 	"/>
	<polygon class="st1" points="2981.2,1691.5 2925.1,1659.1 2925.1,1594.3 2981.2,1561.9 3037.4,1594.3 3037.4,1659.1 	"/>
	<polygon class="st1" points="2925.1,13.5 2869,-19 2869,-83.8 2925.1,-116.2 2981.2,-83.8 2981.2,-19 	"/>
	<polygon class="st1" points="2981.2,110.3 2925.1,77.9 2925.1,13 2981.2,-19.4 3037.4,13 3037.4,77.9 	"/>
</g>
<g id="Layer_5">
	
		<linearGradient id="SVGID_1_" gradientUnits="userSpaceOnUse" x1="-1524.6" y1="764.4" x2="2973.2998" y2="764.4" gradientTransform="matrix(1 0 0 -1 0 1536)">
		<stop  offset="0" style="stop-color:#FFFFFF"/>
		<stop  offset="9.774799e-03" style="stop-color:#F5F5F5"/>
		<stop  offset="6.283048e-02" style="stop-color:#C2C2C2"/>
		<stop  offset="0.1196" style="stop-color:#949494"/>
		<stop  offset="0.179" style="stop-color:#6C6C6C"/>
		<stop  offset="0.2414" style="stop-color:#4B4B4B"/>
		<stop  offset="0.3078" style="stop-color:#2F2F2F"/>
		<stop  offset="0.3797" style="stop-color:#1A1A1A"/>
		<stop  offset="0.4597" style="stop-color:#0B0B0B"/>
		<stop  offset="0.5543" style="stop-color:#030303"/>
		<stop  offset="0.7004" style="stop-color:#000000"/>
		<stop  offset="0.755" style="stop-color:#030303"/>
		<stop  offset="0.7948" style="stop-color:#0C0C0C"/>
		<stop  offset="0.8298" style="stop-color:#1C1C1C"/>
		<stop  offset="0.8622" style="stop-color:#333333"/>
		<stop  offset="0.8927" style="stop-color:#505050"/>
		<stop  offset="0.9218" style="stop-color:#737373"/>
		<stop  offset="0.9498" style="stop-color:#9E9E9E"/>
		<stop  offset="0.9762" style="stop-color:#CDCDCD"/>
		<stop  offset="1" style="stop-color:#FFFFFF"/>
	</linearGradient>
	<rect x="-1524.6" y="-143.7" class="st2" width="4497.9" height="1830.6"/>
</g>
<image style="overflow:visible;opacity:8.000000e-02;enable-background:new    ;" width="4436" height="1767" xlink:href="231F2EC436EF9234.png"  transform="matrix(1 0 0 1 -415.75 2307.5071)">
</image>
<g class="st3">
	<g>
		<path class="st4" d="M3727.2,4858.5H2361.3l-134,558.9l803.9,349.2l-278.9,169l-579.8-270l-49.4,206l-161.3-266.1l141-658.6
			l145.9-88.4H-684.8v1633h2273c-14.8-7-29.5-14.9-43.9-24.3c-42.7-27.7-80.9-69.3-114.6-125.1c0.8-0.3,1.7-0.6,2.5-0.9
			c48.5-69.6,97-139.1,145.4-208.7l27.5,45.3c14.9,24.6,30.4,46.1,46.8,64.6c16.3,18.5,33.6,32.3,51.9,41.1
			c18.4,8.9,38.3,12.6,59.9,11.1c21.7-1.5,45.8-10.3,72.2-26.3c29.3-17.7,48.7-36.7,58.6-56.7c9.7-20.2,13.2-40.6,10.2-61.4
			c-2.9-20.8-9.5-41.4-19.8-61.6c-10.3-20.1-20.9-39.3-31.7-57.1L1439.5,5349c98.7-7.9,197.3-15.8,296-23.7
			c115.3,193.8,230.6,387.6,345.9,581.5c20,33.1,38.7,71.3,56.2,115c17.4,43.7,24.8,89.8,22,138.6c-2.7,48.8-19.4,98.1-49.7,148.2
			c-30.4,50-83.2,97.8-158.7,143.5c-26,15.8-52.9,28.6-80.4,39.6h1856.4L3727.2,4858.5L3727.2,4858.5z"/>
	</g>
	<g>
		<path class="st4" d="M1677.6,6518c46.4,6.2,92.9,3.1,139.8-9.1c18.1-4.8,35.9-10.4,53.4-17.4h-282.6
			C1617.2,6505.5,1647,6514,1677.6,6518z"/>
	</g>
	<g>
		<polygon class="st4" points="2380.4,4778.8 2248.8,4858.5 2361.3,4858.5 		"/>
	</g>
</g>
<g id="Layer_3">
	<g>
		
			<text transform="matrix(1 -1.181033e-03 1.181033e-03 1 397.3118 2909.5916)" class="st6" style="font-family:'CoolveticaRg-Regular'; font-size:252.4576px; letter-spacing:5;">koskicreations</text>
	</g>
	<path class="st6" d="M-113.4,2710.9c-0.6,3.4-1.8,6.5-3.8,9.4s-4.9,5.3-8.6,7.3c-3.8,2-8.8,2.9-15.2,2.9c-3.6,0-7.1-0.5-10.4-1.5
		c-3.4-1-6.4-2.6-9-4.7c-2.6-2.1-4.8-4.8-6.3-8.1c-1.6-3.3-2.4-7.3-2.4-12c0.1,0,0.1,0,0.2,0c5.6-2.5,11.2-5,16.8-7.5v3.8
		c0,2.1,0.2,4,0.5,5.8s0.9,3.3,1.7,4.5s1.9,2.2,3.3,2.9c1.4,0.7,3.2,1.1,5.5,1.1c2.5,0,4.4-0.4,5.8-1.3c1.4-0.9,2.3-2,2.9-3.4
		c0.6-1.4,1-2.9,1.1-4.6c0.1-1.6,0.2-3.2,0.2-4.7v-57.7c6.4,3.2,12.8,6.4,19.2,9.6c-0.1,16.3-0.3,32.6-0.4,49
		C-112.5,2704.5-112.8,2707.5-113.4,2710.9z"/>
	<path class="st6" d="M-108.7,2678.5l33.4-35.5h23.5l-33.4,33.8l36.7,51.8h-23.6l-25.8-38.5l-10.8,10.9V2678.5z"/>
	<g>
		<rect x="438.8" y="2235.7" class="st7" width="2316.7" height="240.1"/>
		<text transform="matrix(1 0 0 1 438.7964 2307.5071)" class="st6" style="font-family:'Roboto-Black'; font-size:94.2611px;">User Experience Design</text>
		
			<text transform="matrix(1 0 0 1 1434.5964 2307.5071)" class="st6" style="font-family:'Roboto-Black'; font-size:94.2611px; letter-spacing:-13;"> </text>
		<text transform="matrix(1 0 0 1 1443.7964 2307.5071)" class="st6" style="font-family:'Roboto-Black'; font-size:94.2611px;">     </text>
		<text transform="matrix(1 0 0 1 1563.3964 2307.5071)" class="st6" style="font-family:'Roboto-Medium'; font-size:94.2611px;">Web Design</text>
		
			<text transform="matrix(1 0 0 1 2064.2964 2307.5071)" class="st6" style="font-family:'Roboto-Medium'; font-size:94.2611px; letter-spacing:55;"> </text>
		<text transform="matrix(1 0 0 1 2144.5964 2307.5071)" class="st6" style="font-family:'Roboto-Light'; font-size:94.2611px;">Photography</text>
	</g>
</g>
</svg>
