<?xml version="1.0" encoding="utf-8"?>
<!-- Generator: Adobe Illustrator 19.1.0, SVG Export Plug-In . SVG Version: 6.00 Build 0)  -->
<svg version="1.1" xmlns="http://www.w3.org/2000/svg" xmlns:xlink="http://www.w3.org/1999/xlink" x="0px" y="0px"
	 viewBox="0 0 300 300" style="enable-background:new 0 0 300 300;" xml:space="preserve">
<style type="text/css">
	.st0{opacity:0.2;}
	.st1{fill:#FFFFFF;}
</style>
<g>
	<path class="st0" d="M61.6,279.3c0,0,9.7,3.5,20.5,3.5l48.6,1.7c0,0,19.4-4.2,27.8,0l30.6-0.7c0,0,22.2,1-1.7-5.9l-2.1-0.7
		c0,0,14.9-5.6,17.4-9c0,0-17.7-63.9-19.8-80.9l-5.9-34.4c0,0,2.1,0.7,4.5-0.7c0,0,86.4,65.6,85.1,66.3c0,0,11.5,3.5,3.5-6.2
		l-82.6-65.6c0,0,0.7-8.3-1.4-9l-9.4-9.4c0,0-3.1-8.8-4.5-12.7c0,0-2.5-42.8-5.2-46.8c0,0,0.6-6.7-10.4-12.1l-6.1-4.8
		c0,0-1-1,1.5-2.3c0,0,6.1-2.3,5.6-9l-4.4-23.2c0,0-3.1-4.6-8.2-5.2l-0.4-1.3h-3.8v1.5c0,0-7.5,1-9.6,5.9l-0.6,5.9
		c0,0-5.4,10.9-5.9,14.4c0,0-0.4,2.9,0.6,4.6c0,0-7.5-4.6-15.5,0.4c0,0-3.5,2.1-5.4,4l-2.5-0.4L98.8,46c0,0-5.2,1.9-5.2,4.6
		c0,0-2.1,4.6,0,6.3l0.8,1.9l-3.6-1.5c0,0-2.1-0.6-3.3,0.6L85.6,60l-0.2,4.2c0,0,1.5,2.1,3.1,2.5c0,0-5,2.9-4,6.9
		c0,0,1.2,3.1,3.5,4.2L86.8,78v3.6c0,0,1.7,3.1,2.7,3.5c0,0-11.7,111.4-14.2,109.9c0,0-13.2,65-17.6,76.5c0,0,0.8,1.7,19.6,5.2
		C77.2,276.7,62.8,280.2,61.6,279.3z"/>
	<path d="M61.6,279.3c0,0,9.7,3.5,20.5,3.5l48.6,1.7c0,0,19.4-4.2,27.8,0l30.6-0.7c0,0,22.2,1-1.7-5.9l-2.1-0.7c0,0,14.9-5.6,17.4-9
		c0,0-17.7-63.9-19.8-80.9l-5.9-34.4c0,0,2.1,0.7,4.5-0.7c0,0,86.4,65.6,85.1,66.3c0,0,11.5,3.5,3.5-6.2l-82.6-65.6
		c0,0,0.7-8.3-1.4-9l-9.4-9.4c0,0-3.1-8.8-4.5-12.7c0,0-2.5-42.8-5.2-46.8c0,0,0.6-6.7-10.4-12.1l-6.1-4.8c0,0-1-1,1.5-2.3
		c0,0,6.1-2.3,5.6-9l-4.4-23.2c0,0-3.1-4.6-8.2-5.2l-0.4-1.3h-3.8v1.5c0,0-7.5,1-9.6,5.9l-0.6,5.9c0,0-5.4,10.9-5.9,14.4
		c0,0-0.4,2.9,0.6,4.6c0,0-7.5-4.6-15.5,0.4c0,0-3.5,2.1-5.4,4l-2.5-0.4L98.8,46c0,0-5.2,1.9-5.2,4.6c0,0-2.1,4.6,0,6.3l0.8,1.9
		l-3.6-1.5c0,0-2.1-0.6-3.3,0.6L85.6,60l-0.2,4.2c0,0,1.5,2.1,3.1,2.5c0,0-5,2.9-4,6.9c0,0,1.2,3.1,3.5,4.2L86.8,78v3.6
		c0,0,1.7,3.1,2.7,3.5c0,0-11.7,111.4-14.2,109.9c0,0-13.2,65-17.6,76.5c0,0,0.8,1.7,19.6,5.2C77.2,276.7,62.8,280.2,61.6,279.3z"/>
	<path class="st1" d="M141.6,28.1l-0.4-13.9c0,0-6.9,2.5-5.8,7.3c0,0,4.2,1.9,4.6,3.5l0.1,1.2l-5.3-0.4c0,0-8.5,9.2-9.1,13
		c0,0-1-3.1,6.2-11.2l-1.4-2l0.8-1.3l0.4-4.1c0,0,1.5-6.3,9.2-7.1h0.4l0.1-0.7l2.9-0.1l0.1,13.6c0,0,4.3-3.9,4.4-3.3
		c0,0,1-0.6,1.5,0.1c0,0,0.7,1.7,0.7,3c0,0,1.5,1.2,1.7,2.6c0,0-2.3-2.2-3.2-2.1c0,0-2.9-0.1-5.6,3.1l-0.1,0.4h-1.3L141.6,28.1z"/>
	<path class="st1" d="M145.4,29.9c0,0,2.4-2.7,4.6-2.1l-0.1,0.4c0,0-2.2-0.4-2.1,2.3c0,0,0.8,2.1,3.2-0.1l0.8-0.6
		c0,0,0.6,0.6,1.1,0.6l-3.1,3.6c0,0-3.9-0.3-4.9-1.7l-0.1-1.6L145.4,29.9z"/>
	<polygon class="st1" points="150,34.7 152.8,31.9 153,34.9 149.9,40.2 	"/>
	<path class="st1" d="M148.8,38.3l0.1,3.5l-5.5-6.8h-1.7v-2.2l-1.9-0.2c0,0-3.4,2.1-5.1,1.4l-0.6,0.2l0.1,3l-0.6-0.1v0.9
		c0,0-1.2-0.6-1.6-2l-0.3-3.9l0.2-1.6l1,0.1c0,0,4.5,2.9,7.2-0.6l0.5,1.3l1.2-0.1l0.4-0.7h1.4v2.2c0,0-0.1,2.4,3.6,3.6
		C147.3,36.2,147.5,37.3,148.8,38.3z"/>
	<path class="st1" d="M134.9,37.9c0,0-0.6,2.3,0.6,3.6c0,0,4.4-4.9,4.4-5.3c0-0.4,0.1-1.6,0.1-1.6S135,37.3,134.9,37.9z"/>
	<path class="st1" d="M145,13v0.9c0,0,5.5,0.5,7.2,4.7C152.2,18.6,151.2,15,145,13z"/>
	<polygon class="st1" points="139.2,45 144.7,45 144.9,46.1 142.5,48.3 141.6,48.2 	"/>
	<path class="st1" d="M136,43l12.1,0.2l-0.1-2.1h-1.4l-0.4-1.7l-0.4-0.3l0,2l-1,0.1v-4.1l-0.5,0v4.1l-1-1l-0.1-4.6l-0.5-0.1l0.1,4.8
		l-1.1,0.7l0-5h-1l0,4.8l-1-0.1l0-2.5l-0.6-0.1l0,3l-1-0.1l-0.1-0.9c0,0-0.9-0.1-1,0.5c-0.1,0.6,0,1.5,0,1.5l-1.1,0L136,43z"/>
	<path class="st1" d="M138.1,25.8c0,0,2.6,2.7,3.7,2.7l0.4,0.9c0,0-1.5-0.2-4.9-3.6L138.1,25.8z"/>
	<path class="st1" d="M132.8,29.4c0.1,0.2,0.5,0.4,0.9,0.6l0-0.1c0,0,1.2-2.1,3.1-1.1c0,0-2.3,1.1-2,1.6v0.1
		c0.5,0.2,0.9,0.3,0.9,0.3C137,30.6,139,29,139,29C135.4,24.9,132.8,29.4,132.8,29.4z"/>
	<path class="st1" d="M149.8,53.2c0,0,12.4,6.1,13.1,11.3c0,0-2.7-4.1-4.2-4.8c0,0,5.9,13.9,6,20.8c0,0-4.4-15.8-7.2-18
		c0,0,7.9,26.8,8.6,43.5l-0.6,0.3c0,0-9.2-45.7-16-52.2L149.8,53.2z"/>
	<path class="st1" d="M149.1,52.4c0,0-8.9-3.4-15.7-2.8c0,0,3.8,0.7,5.3,15.6l4.7,2c0,0-2-12.9-5.5-16.2l3,0.5c0,0,5.5,5.6,6.1,18.1
		l1,0.3c0,0-1.2-12.8-4.6-17.2l0.9,0.2c0,0,4.8,9.6,4.3,17.3h0.9c0,0,0.6-9.7-3.7-16.9l0.6,0.2c0,0,4.5,6.4,3.7,16.6l1.9,0.1
		c0,0,0.9-7.8-4.6-16.6l-0.2-0.9l1.3,0.5L149.1,52.4z"/>
	<path class="st1" d="M141.6,55.5c0,0,2.4,4.9,2.7,9l0.9,0.2c0,0,0.5-4.5-3-9.3H141.6z"/>
	<path class="st1" d="M148.9,54c0,0,4.2,6.7,4.7,11.3l-1.1-0.1C152.5,65.2,149.1,53.9,148.9,54z"/>
	<path class="st1" d="M133.8,52.7c0,0,3.3,6.3,2.4,11.8l-4.9-1.4c0,0-2,4-6.5,7.9C124.8,71,134.3,58.6,133.8,52.7z"/>
	<path class="st1" d="M132.5,49.7c0,0-0.2,7.9-11.1,22C121.3,71.7,135.3,59.9,132.5,49.7z"/>
	<polygon class="st1" points="139.1,72 139.1,88.6 154.2,91 154.1,91.4 138.7,89.1 138.6,71.6 137.6,70.7 137.5,89.7 156.6,92.8 
		157.3,90.8 157.2,75.3 156.2,75.7 156.6,90.2 140.7,88 140.6,73.1 	"/>
	<polygon class="st1" points="137.5,70.5 138.5,71.5 156.7,75.1 158,74.8 	"/>
	<polygon class="st1" points="156,75.6 140.6,73.1 139.1,72 156.8,75.4 	"/>
	<polygon class="st1" points="141.7,74.1 141.7,74.6 143.2,74.7 143.2,74.2 	"/>
	<polygon class="st1" points="142.2,76.2 142.2,77.3 141.7,77.3 141.7,78.3 142.2,78.3 142.2,83 141.7,83 141.7,87.1 143.5,87.3 
		143.2,86.7 142.7,86.6 142.7,83.5 143.2,83.5 143.2,83 142.8,83 142.7,76.2 	"/>
	<polygon class="st1" points="145.3,82.5 145.3,84.2 149.2,84.6 149.5,83 	"/>
	<polygon class="st1" points="145.3,80 145.4,81.1 147.2,81.3 147.2,80.8 148.5,80.9 148.4,81.4 149.5,81.5 149.5,80 146,79.7 	"/>
	<polygon class="st1" points="146,85 146.4,85.7 145.4,85.6 145.2,86.5 145.9,86.6 145.8,87.4 144.8,87.3 144.9,84.9 	"/>
	<polygon class="st1" points="147.7,78.6 144.7,78.1 144.7,76.5 145.7,76.7 145.7,75.8 147.9,76.2 	"/>
	<polygon class="st1" points="151.1,78.3 151.1,79.9 150.5,79.7 150.4,80.7 151,80.7 150.9,82.5 153.5,82.7 153.6,80.5 152.9,80.1 
		153,78.3 151.5,77.7 	"/>
	<polygon class="st1" points="147.4,85.4 148.7,85.6 148.6,87.8 147.2,87.7 	"/>
	<polygon class="st1" points="154.8,85.6 154.6,88.6 153.7,88.6 153.6,89.2 155.5,89.4 155.8,85.7 	"/>
	<polygon class="st1" points="154.1,76.3 154,77.1 155.4,77.5 155.5,76.6 	"/>
	<polygon class="st1" points="154.9,78.1 154.8,79.6 154.2,79.5 154.2,80.8 154.7,80.8 155.1,81.4 155.8,81.4 155.8,80.3 
		155.1,80.3 155.3,78.3 	"/>
	<polygon class="st1" points="152.3,86.4 152.1,88.3 153.6,88.1 153.6,87.4 152.9,87.3 153.1,86.4 	"/>
	<polygon class="st1" points="154.7,82.3 154.7,82.8 155.6,82.9 155.6,82.5 	"/>
	<polygon class="st1" points="154.7,83.8 154.7,84.5 155.5,84.6 155.7,83.9 	"/>
	<path class="st1" d="M104.9,50.3c0,0-4.9-0.6-4.4,3.9c0,0-4.3-1.7-5.1-3.4c0,0-1.7,4.4,3.1,8.6c0,0,3.1,0.7,2.8-2.4l3,2.9
		c0,0-3.6,2.6-3.4,4.1l-4.5-3c0,0-5-4.7-2.6-11c0,0,3.2-3.5,4.4-3.3C98.2,46.6,104.7,49.8,104.9,50.3z"/>
	<path class="st1" d="M96.2,52.2c0,0,6.4,6.5,9-0.9c0,0-0.2,8.2-8.6,2.3L96.2,52.2z"/>
	<path class="st1" d="M104.4,48.3l0.8,0.7c0,0,2.3-2,6.8-3.1c0,0-5.5,3-5.4,3.6c0,0,0.8,5.4-3.6,6.8l1.6,2c0,0,10.6-6.6,10.6-6.6
		c0,0,1,2.3-2.7,6.9c0,0,9.7-7.1,10.4-8.4c0,0-6.7,7.9-12.2,10.6c0,0-0.3,1.1,1.2,1c0,0,7-4.6,8-5.3c0,0,1.3,1.9,0.2,2.5
		c0,0,4.5-3.2,4.5-3.7c0,0-2.1,3.4-3.4,5.1c0,0,7-7.4,7.2-8c0,0-8,11.3-12,13.9l1.3,1.4c0,0,13.5-10.1,14.1-18.8
		C131.8,49.1,118.5,35.8,104.4,48.3z"/>
	<path class="st1" d="M92.3,59c0,0-5.5,2.8-3.6,5.8c0,0,4.8,3.5,5.4,3.2c0,0-2.9,0.7-7.4-3.7c0,0-1.1-2.7,0.1-4.2l1.9-2
		C88.7,58.2,90.2,57.2,92.3,59z"/>
	<path class="st1" d="M93,66.7l-3.9-2.8c0,0-0.3-2.7,3.5-4.5l4.5,3.7C97,63.2,93.5,64.6,93,66.7z"/>
	<path class="st1" d="M98,63.6l0.5-0.4c0,0,2.4,1.4,2.1,2.7c0,0-0.6,3.1-3.2,4.1c0,0-2,0-2.2-0.1l0-0.5c0,0,4.7,0.9,4.8-4.1L98,63.6
		z"/>
	<path class="st1" d="M88.1,68.3l4,3.7c0,0,3.6,0.6,4.7,0C96.8,72,92.8,66.5,88.1,68.3z"/>
	<path class="st1" d="M87.6,68.4l3.7,4.2c0,0-4,2.4-2.1,4.9c0,0-4.4-1.3-3.8-6.6C85.4,71,86.7,68.3,87.6,68.4z"/>
	<path class="st1" d="M91.9,72.6l-0.5,0.9c0,0,6.6,1,6.5,3.9c-0.1,3-2.3,2-3.1,1.8v0.6c0,0,5.1,1.2,4.1-3.8l0.6-0.4v-0.5
		C99.6,75.2,94.6,72.2,91.9,72.6z"/>
	<polygon class="st1" points="118.8,70.7 118.7,74.2 118.2,74 118.3,70.7 	"/>
	<path class="st1" d="M91.6,85.6c0,0-2.4-3.8,2-2.8c4.4,1,5.2,2.3,5.2,2.3s0.5,2.1-0.3,2.6l0.7,0.3c0,0,0.8-1.3,0.4-2.9
		c0,0,1.1,0.1,0.9,1.9h0.5l-0.1-3.4c0,0-7.5-1.9-8.2-5.3h-5.2c0,0-0.5,1.8,0,3.6c0,0,1.7,3.6,4.1,4.2V85.6z"/>
	<path class="st1" d="M119.2,74.1l-1-0.1c0.2,1.4-1.1,1.6-1.1,1.6c-1.1-0.3-2.2-1-3.1-1.8c0.1-1,0.5-5,1.5-4.1
		c1.1,1,2.3,1.2,2.3,1.2l2,0.1l0.1-1l-4.6-4.2l-0.1-2.3c0,0-9.6-3.7-11.2-2.8c0,0,2,2-0.1,5.1c-2.1,3.1-4.5,5.6-4.5,5.6
		s-0.6,1.5-0.4,2c0,0,2.6-3.9,3.8-3.7c0,0,1.1,0.1,1,0.9l0.4-0.1l1.6-2.1l0.1-0.9l0.5,0c0,0,1.7,2.5,1.4,4.2c-1,1.9-4.5,3-4.5,3
		l-2.1-0.1c0.8,4.1-3.2,6.7-3.2,6.7c4.7-1.5,4.8-5.6,4.8-5.6c5.1-0.7,5.6-4.2,5.6-4.2l2.1-0.1l0-0.5l-2.6,0c0.1-0.7,0.1-2.1-1-4.1
		l1.3-0.1l0.2,1l0.3,0l0.2-0.9l1.9-0.1c0,0,1.6,0.9,0.2,3.9l0.4,0.4l-0.2,0.8c3.3,4.3,6.6,4.5,6.6,4.5c1.6-0.3,2-2.2,2-2.2v-3.2
		l-0.4-0.1L119.2,74.1z M111.7,71.5l0.8,0.9C112.1,72,111.9,71.7,111.7,71.5z M111.4,64.2c0,0-3.4-0.1-4.6-0.5l-0.1,2.7l-1.4,0.3
		c0,0-0.6-5.7,2.3-4.9c0,0,3.2-1.4,11.1,8.6c0,0-2.8-1.7-3.7-2.3C115,68,112.7,66.9,111.4,64.2z"/>
	<path class="st1" d="M89.6,86.4c0,0,0.4,1.2,2.2,1.2c0,0-2.8,32.3-1.4,32.3c0,0,6.9-26.8,6.1-31.7H98c0,0-12.6,81.8-20.7,104.4
		C77.2,192.6,90.6,91.6,89.6,86.4z"/>
	<path class="st1" d="M92.7,87.6c0,0,0.9,0.9,2.5,0.4c0,0-2.2,21.5-3.3,23.2L92.7,87.6z"/>
	<path class="st1" d="M101.6,91.3l2.7,0.4c0,0-7.1,32.3-7.4,34.6C96.9,126.4,99.6,98.7,101.6,91.3z"/>
	<path class="st1" d="M101.8,114.5c0,0-0.5,24.7-3.2,37.8C98.7,152.3,98.6,118.5,101.8,114.5z"/>
	<path class="st1" d="M102.7,111.6c0,0-1.9,17.8-0.3,27c0,0,1.4,10.2,1.2,11.9C103.7,150.5,104.1,115.4,102.7,111.6z"/>
	<path class="st1" d="M184,151.8c0,0,1.3-2.9,2.3-3.1l3.4,0.8l81.8,65.1c0,0,1.8,5.5-3.8,3.9l-83.6-66L184,151.8z"/>
	<path class="st1" d="M182,144.5l2.4,1.6l-0.1,1.7l-2.9,3.2c0,0-4.1,0.8-5.2,0c-1.1-0.8-0.1-0.9-0.1-0.9S183.1,145.8,182,144.5z"/>
	<path class="st1" d="M174.7,149.6l3.9-3.6l-0.3-2.9h0.8l0.3,2.3l1-0.9c0,0-1-3.2,2.3-4.1l0.3,1.8c0,0,3.5-0.9-0.1-4.3
		c0,0-7.3-5.3-8.2,3.6l1.9,2.7C176.6,144.3,173.1,148.1,174.7,149.6z"/>
	<path class="st1" d="M173.7,141.3l2.3,3l-2.2,2.9C173.8,147.2,170.6,145,173.7,141.3z"/>
	<path class="st1" d="M173.3,140c0,0,0.2-1.3-1.5-1.1c0,0-2.5,4.1-2.1,5.4c0,0,1,2.5,1.9,2.8c0,0-0.9-2.5-0.3-3.1L173.3,140z"/>
	<path class="st1" d="M169.2,143.8c0,0-0.1-5.4,0.5-5.6l-2,0C167.7,138.2,165.9,141.9,169.2,143.8z"/>
	<path class="st1" d="M173.7,138.6c0,0,2.2-4.4,5.2-3.5c3,0.8-5.3-6.2-5.3-6.2s-2.6,1.1-3.4,3.8c0,0,1.2-0.7,1.8-0.5
		c0,0-1.9,2.9-1.2,4.4C170.8,136.5,171.6,138.8,173.7,138.6z"/>
	<path class="st1" d="M170.5,130.8c0,0,1.9-2.2,3.1-2.3c1.2,0-7.4-6.8-6-10.6l-1,0c0,0-2.2,4.2,4,11.2L170.5,130.8z"/>
	<polygon class="st1" points="164.2,136.8 166.2,138.7 166.7,138.4 164.5,136.5 	"/>
	<polygon class="st1" points="166.7,138 167.7,137.8 163.9,134.8 164.1,135.8 	"/>
	<polygon class="st1" points="168,137.3 168.9,137 164.1,133.2 164,134.2 	"/>
	<polygon class="st1" points="169.1,136.2 170.2,135.6 163.9,130.3 163.8,131.3 166.5,133.3 166.4,133.6 163.5,131.4 163.6,132.3 	
		"/>
	<polygon class="st1" points="130.7,101.7 130.7,103.3 132.1,103.3 132.3,101.9 	"/>
	<polygon class="st1" points="130.7,103.7 130.7,105.3 132.2,105.3 132.2,103.8 	"/>
	<polygon class="st1" points="130.6,105.8 132,105.8 132.3,107.8 130.6,107.9 	"/>
	<polygon class="st1" points="134.4,102.2 134.3,103.3 135.5,103.3 135.4,102.2 	"/>
	<polygon class="st1" points="137,101.8 137,102.7 138,102.8 137.9,101.8 	"/>
	<polygon class="st1" points="137,103.3 136.9,104.4 137.9,104.4 138,103.4 	"/>
	<polygon class="st1" points="140.1,101.1 140,108 144.7,108 144.7,108.5 146.8,108.5 146.8,107.1 144.8,106.9 144.7,102.9 
		146.4,102.8 146.4,102.3 146.8,102.3 146.8,101.2 	"/>
	<polygon class="st1" points="146.8,103.3 146.9,104.4 148.5,104.3 148.5,103.4 	"/>
	<polygon class="st1" points="148.4,105.4 148.4,106.4 146.8,106.3 146.8,105.5 	"/>
	<path class="st1" d="M157.2,103.8l-7.2-1.6l0,6.7l7.4,1C157.5,109.9,162.2,107.2,157.2,103.8z M151,107.8l0-4.5h0.4l0,4.5H151z
		 M157.1,109.4c-4.6-2.6-0.2-5.2-0.2-5.2l0.1,0.5c-3.2,1.7,0.1,4.1,0.1,4.1L157.1,109.4z"/>
	<polygon class="st1" points="159.9,105.3 160.9,105.4 160.6,106.9 159.9,106.9 	"/>
	<polygon class="st1" points="159.8,107.9 160.6,108 160.3,110.2 159.7,110.1 	"/>
</g>
</svg>
